<ttFont>
    <TTGlyph name="A" xMin="-36" yMin="0" xMax="1289" yMax="1452">
      <contour>
        <pt x="711" y="451" on="1"/>
        <pt x="407" y="451" on="1"/>
        <pt x="432" y="543" on="1"/>
        <pt x="681" y="543" on="1"/>
      </contour>
      <contour>
        <pt x="513" y="1003" on="1"/>
        <pt x="278" y="301" on="1"/>
        <pt x="247" y="212" on="0"/>
        <pt x="249" y="123" on="0"/>
        <pt x="275" y="95" on="0"/>
        <pt x="317" y="83" on="0"/>
        <pt x="371" y="75" on="0"/>
        <pt x="399" y="61" on="1"/>
        <pt x="399" y="0" on="1"/>
        <pt x="-36" y="0" on="1"/>
        <pt x="-36" y="61" on="1"/>
        <pt x="-15" y="73" on="0"/>
        <pt x="31" y="87" on="0"/>
        <pt x="52" y="96" on="1"/>
        <pt x="101" y="118" on="0"/>
        <pt x="115" y="162" on="1"/>
        <pt x="453" y="1165" on="1"/>
      </contour>
      <contour>
        <pt x="488" y="1267" on="1"/>
        <pt x="434" y="1286" on="0"/>
        <pt x="415" y="1305" on="1"/>
        <pt x="417" y="1326" on="0"/>
        <pt x="424" y="1363" on="0"/>
        <pt x="431" y="1400" on="0"/>
        <pt x="435" y="1412" on="1"/>
        <pt x="625" y="1452" on="0"/>
        <pt x="655" y="1452" on="1"/>
        <pt x="676" y="1435" on="0"/>
        <pt x="694" y="1389" on="1"/>
        <pt x="1133" y="178" on="1"/>
        <pt x="1155" y="118" on="0"/>
        <pt x="1199" y="96" on="1"/>
        <pt x="1219" y="86" on="0"/>
        <pt x="1264" y="73" on="0"/>
        <pt x="1289" y="61" on="1"/>
        <pt x="1289" y="0" on="1"/>
        <pt x="748" y="0" on="1"/>
        <pt x="748" y="61" on="1"/>
        <pt x="771" y="72" on="0"/>
        <pt x="821" y="81" on="0"/>
        <pt x="842" y="86" on="1"/>
        <pt x="888" y="97" on="0"/>
        <pt x="888" y="131" on="1"/>
        <pt x="888" y="161" on="0"/>
        <pt x="792" y="425" on="0"/>
        <pt x="755" y="528" on="1"/>
        <pt x="652" y="817" on="0"/>
        <pt x="553" y="1106" on="1"/>
      </contour>
    </TTGlyph>
    <TTGlyph name="AE" xMin="-64" yMin="0" xMax="1840" yMax="1436">
      <contour>
        <pt x="886" y="1317" on="1"/>
        <pt x="864" y="1329" on="0"/>
        <pt x="836" y="1329" on="1"/>
        <pt x="818" y="1318" on="0"/>
        <pt x="793" y="1268" on="1"/>
        <pt x="473" y="659" on="1"/>
        <pt x="282" y="322" on="0"/>
        <pt x="220" y="172" on="0"/>
        <pt x="220" y="121" on="0"/>
        <pt x="247" y="97" on="0"/>
        <pt x="289" y="84" on="0"/>
        <pt x="341" y="74" on="0"/>
        <pt x="367" y="61" on="1"/>
        <pt x="367" y="0" on="1"/>
        <pt x="-64" y="0" on="1"/>
        <pt x="-64" y="61" on="1"/>
        <pt x="-42" y="76" on="0"/>
        <pt x="-1" y="91" on="0"/>
        <pt x="19" y="102" on="1"/>
        <pt x="63" y="126" on="0"/>
        <pt x="102" y="197" on="1"/>
        <pt x="636" y="1182" on="1"/>
        <pt x="677" y="1256" on="0"/>
        <pt x="677" y="1282" on="1"/>
        <pt x="677" y="1314" on="0"/>
        <pt x="630" y="1330" on="1"/>
        <pt x="609" y="1336" on="0"/>
        <pt x="558" y="1348" on="0"/>
        <pt x="534" y="1358" on="1"/>
        <pt x="534" y="1421" on="1"/>
        <pt x="1135" y="1421" on="1"/>
        <pt x="1135" y="168" on="1"/>
        <pt x="1135" y="91" on="0"/>
        <pt x="1236" y="84" on="1"/>
        <pt x="1267" y="82" on="0"/>
        <pt x="1396" y="82" on="0"/>
        <pt x="1528" y="107" on="0"/>
        <pt x="1575" y="136" on="1"/>
        <pt x="1663" y="189" on="0"/>
        <pt x="1703" y="326" on="1"/>
        <pt x="1712" y="357" on="0"/>
        <pt x="1725" y="408" on="0"/>
        <pt x="1732" y="429" on="1"/>
        <pt x="1749" y="474" on="0"/>
        <pt x="1776" y="500" on="1"/>
        <pt x="1840" y="500" on="1"/>
        <pt x="1840" y="0" on="1"/>
        <pt x="736" y="0" on="1"/>
        <pt x="736" y="59" on="1"/>
        <pt x="757" y="71" on="0"/>
        <pt x="795" y="81" on="0"/>
        <pt x="828" y="90" on="0"/>
        <pt x="856" y="103" on="0"/>
        <pt x="866" y="118" on="1"/>
        <pt x="886" y="149" on="0"/>
        <pt x="886" y="227" on="1"/>
      </contour>
      <contour>
        <pt x="1327" y="1339" on="1"/>
        <pt x="1248" y="1339" on="0"/>
        <pt x="1219" y="1335" on="1"/>
        <pt x="1219" y="1421" on="1"/>
        <pt x="1590" y="1421" on="1"/>
        <pt x="1644" y="1421" on="0"/>
        <pt x="1794" y="1436" on="1"/>
        <pt x="1794" y="946" on="1"/>
        <pt x="1726" y="946" on="1"/>
        <pt x="1694" y="975" on="0"/>
        <pt x="1665" y="1068" on="0"/>
        <pt x="1649" y="1124" on="1"/>
        <pt x="1613" y="1243" on="0"/>
        <pt x="1552" y="1288" on="1"/>
        <pt x="1482" y="1339" on="0"/>
      </contour>
      <contour>
        <pt x="1216" y="795" on="1"/>
        <pt x="1372" y="795" on="1"/>
        <pt x="1372" y="659" on="1"/>
        <pt x="1216" y="659" on="1"/>
      </contour>
      <contour>
        <pt x="803" y="659" on="1"/>
        <pt x="562" y="659" on="1"/>
        <pt x="610" y="795" on="1"/>
        <pt x="803" y="748" on="1"/>
      </contour>
    </TTGlyph>
    <TTGlyph name="Aacute" xMin="-36" yMin="0" xMax="1289" yMax="1892">
      <contour>
        <pt x="711" y="451" on="1"/>
        <pt x="407" y="451" on="1"/>
        <pt x="432" y="543" on="1"/>
        <pt x="681" y="543" on="1"/>
      </contour>
      <contour>
        <pt x="513" y="1003" on="1"/>
        <pt x="278" y="301" on="1"/>
        <pt x="247" y="212" on="0"/>
        <pt x="249" y="123" on="0"/>
        <pt x="275" y="95" on="0"/>
        <pt x="317" y="83" on="0"/>
        <pt x="371" y="75" on="0"/>
        <pt x="399" y="61" on="1"/>
        <pt x="399" y="0" on="1"/>
        <pt x="-36" y="0" on="1"/>
        <pt x="-36" y="61" on="1"/>
        <pt x="-15" y="73" on="0"/>
        <pt x="31" y="87" on="0"/>
        <pt x="52" y="96" on="1"/>
        <pt x="101" y="118" on="0"/>
        <pt x="115" y="162" on="1"/>
        <pt x="453" y="1165" on="1"/>
      </contour>
      <contour>
        <pt x="488" y="1267" on="1"/>
        <pt x="434" y="1286" on="0"/>
        <pt x="415" y="1305" on="1"/>
        <pt x="417" y="1326" on="0"/>
        <pt x="424" y="1363" on="0"/>
        <pt x="431" y="1400" on="0"/>
        <pt x="435" y="1412" on="1"/>
        <pt x="625" y="1452" on="0"/>
        <pt x="655" y="1452" on="1"/>
        <pt x="676" y="1435" on="0"/>
        <pt x="694" y="1389" on="1"/>
        <pt x="1133" y="178" on="1"/>
        <pt x="1155" y="118" on="0"/>
        <pt x="1199" y="96" on="1"/>
        <pt x="1219" y="86" on="0"/>
        <pt x="1264" y="73" on="0"/>
        <pt x="1289" y="61" on="1"/>
        <pt x="1289" y="0" on="1"/>
        <pt x="748" y="0" on="1"/>
        <pt x="748" y="61" on="1"/>
        <pt x="771" y="72" on="0"/>
        <pt x="821" y="81" on="0"/>
        <pt x="842" y="86" on="1"/>
        <pt x="888" y="97" on="0"/>
        <pt x="888" y="131" on="1"/>
        <pt x="888" y="161" on="0"/>
        <pt x="792" y="425" on="0"/>
        <pt x="755" y="528" on="1"/>
        <pt x="652" y="817" on="0"/>
        <pt x="553" y="1106" on="1"/>
      </contour>
      <contour>
        <pt x="377" y="1542" on="1"/>
        <pt x="664" y="1816" on="1"/>
        <pt x="696" y="1846" on="0"/>
        <pt x="759" y="1892" on="0"/>
        <pt x="814" y="1892" on="0"/>
        <pt x="845" y="1879" on="0"/>
        <pt x="855" y="1868" on="1"/>
        <pt x="876" y="1846" on="0"/>
        <pt x="876" y="1821" on="1"/>
        <pt x="876" y="1780" on="0"/>
        <pt x="812" y="1742" on="1"/>
        <pt x="472" y="1542" on="1"/>
      </contour>
    </TTGlyph>
    <TTGlyph name="Acircumflex" xMin="-36" yMin="0" xMax="1289" yMax="1886">
      <contour>
        <pt x="711" y="451" on="1"/>
        <pt x="407" y="451" on="1"/>
        <pt x="432" y="543" on="1"/>
        <pt x="681" y="543" on="1"/>
      </contour>
      <contour>
        <pt x="513" y="1003" on="1"/>
        <pt x="278" y="301" on="1"/>
        <pt x="247" y="212" on="0"/>
        <pt x="249" y="123" on="0"/>
        <pt x="275" y="95" on="0"/>
        <pt x="317" y="83" on="0"/>
        <pt x="371" y="75" on="0"/>
        <pt x="399" y="61" on="1"/>
        <pt x="399" y="0" on="1"/>
        <pt x="-36" y="0" on="1"/>
        <pt x="-36" y="61" on="1"/>
        <pt x="-15" y="73" on="0"/>
        <pt x="31" y="87" on="0"/>
        <pt x="52" y="96" on="1"/>
        <pt x="101" y="118" on="0"/>
        <pt x="115" y="162" on="1"/>
        <pt x="453" y="1165" on="1"/>
      </contour>
      <contour>
        <pt x="488" y="1267" on="1"/>
        <pt x="434" y="1286" on="0"/>
        <pt x="415" y="1305" on="1"/>
        <pt x="417" y="1326" on="0"/>
        <pt x="424" y="1363" on="0"/>
        <pt x="431" y="1400" on="0"/>
        <pt x="435" y="1412" on="1"/>
        <pt x="625" y="1452" on="0"/>
        <pt x="655" y="1452" on="1"/>
        <pt x="676" y="1435" on="0"/>
        <pt x="694" y="1389" on="1"/>
        <pt x="1133" y="178" on="1"/>
        <pt x="1155" y="118" on="0"/>
        <pt x="1199" y="96" on="1"/>
        <pt x="1219" y="86" on="0"/>
        <pt x="1264" y="73" on="0"/>
        <pt x="1289" y="61" on="1"/>
        <pt x="1289" y="0" on="1"/>
        <pt x="748" y="0" on="1"/>
        <pt x="748" y="61" on="1"/>
        <pt x="771" y="72" on="0"/>
        <pt x="821" y="81" on="0"/>
        <pt x="842" y="86" on="1"/>
        <pt x="888" y="97" on="0"/>
        <pt x="888" y="131" on="1"/>
        <pt x="888" y="161" on="0"/>
        <pt x="792" y="425" on="0"/>
        <pt x="755" y="528" on="1"/>
        <pt x="652" y="817" on="0"/>
        <pt x="553" y="1106" on="1"/>
      </contour>
      <contour>
        <pt x="700" y="1886" on="1"/>
        <pt x="966" y="1542" on="1"/>
        <pt x="879" y="1542" on="1"/>
        <pt x="626" y="1769" on="1"/>
        <pt x="372" y="1542" on="1"/>
        <pt x="287" y="1542" on="1"/>
        <pt x="550" y="1886" on="1"/>
      </contour>
    </TTGlyph>
    <TTGlyph name="Adieresis" xMin="-36" yMin="0" xMax="1289" yMax="1781">
      <contour>
        <pt x="711" y="451" on="1"/>
        <pt x="407" y="451" on="1"/>
        <pt x="432" y="543" on="1"/>
        <pt x="681" y="543" on="1"/>
      </contour>
      <contour>
        <pt x="513" y="1003" on="1"/>
        <pt x="278" y="301" on="1"/>
        <pt x="247" y="212" on="0"/>
        <pt x="249" y="123" on="0"/>
        <pt x="275" y="95" on="0"/>
        <pt x="317" y="83" on="0"/>
        <pt x="371" y="75" on="0"/>
        <pt x="399" y="61" on="1"/>
        <pt x="399" y="0" on="1"/>
        <pt x="-36" y="0" on="1"/>
        <pt x="-36" y="61" on="1"/>
        <pt x="-15" y="73" on="0"/>
        <pt x="31" y="87" on="0"/>
        <pt x="52" y="96" on="1"/>
        <pt x="101" y="118" on="0"/>
        <pt x="115" y="162" on="1"/>
        <pt x="453" y="1165" on="1"/>
      </contour>
      <contour>
        <pt x="488" y="1267" on="1"/>
        <pt x="434" y="1286" on="0"/>
        <pt x="415" y="1305" on="1"/>
        <pt x="417" y="1326" on="0"/>
        <pt x="424" y="1363" on="0"/>
        <pt x="431" y="1400" on="0"/>
        <pt x="435" y="1412" on="1"/>
        <pt x="625" y="1452" on="0"/>
        <pt x="655" y="1452" on="1"/>
        <pt x="676" y="1435" on="0"/>
        <pt x="694" y="1389" on="1"/>
        <pt x="1133" y="178" on="1"/>
        <pt x="1155" y="118" on="0"/>
        <pt x="1199" y="96" on="1"/>
        <pt x="1219" y="86" on="0"/>
        <pt x="1264" y="73" on="0"/>
        <pt x="1289" y="61" on="1"/>
        <pt x="1289" y="0" on="1"/>
        <pt x="748" y="0" on="1"/>
        <pt x="748" y="61" on="1"/>
        <pt x="771" y="72" on="0"/>
        <pt x="821" y="81" on="0"/>
        <pt x="842" y="86" on="1"/>
        <pt x="888" y="97" on="0"/>
        <pt x="888" y="131" on="1"/>
        <pt x="888" y="161" on="0"/>
        <pt x="792" y="425" on="0"/>
        <pt x="755" y="528" on="1"/>
        <pt x="652" y="817" on="0"/>
        <pt x="553" y="1106" on="1"/>
      </contour>
      <contour>
        <pt x="298" y="1724" on="0"/>
        <pt x="366" y="1781" on="0"/>
        <pt x="441" y="1781" on="0"/>
        <pt x="485" y="1766" on="0"/>
        <pt x="501" y="1752" on="1"/>
        <pt x="536" y="1723" on="0"/>
        <pt x="536" y="1656" on="0"/>
        <pt x="517" y="1618" on="0"/>
        <pt x="501" y="1604" on="1"/>
        <pt x="467" y="1576" on="0"/>
        <pt x="366" y="1576" on="0"/>
        <pt x="298" y="1632" on="0"/>
      </contour>
      <contour>
        <pt x="718" y="1724" on="0"/>
        <pt x="786" y="1781" on="0"/>
        <pt x="887" y="1781" on="0"/>
        <pt x="955" y="1724" on="0"/>
        <pt x="955" y="1632" on="0"/>
        <pt x="887" y="1576" on="0"/>
        <pt x="786" y="1576" on="0"/>
        <pt x="718" y="1632" on="0"/>
      </contour>
    </TTGlyph>
    <TTGlyph name="Agrave" xMin="-36" yMin="0" xMax="1289" yMax="1892">
      <contour>
        <pt x="711" y="451" on="1"/>
        <pt x="407" y="451" on="1"/>
        <pt x="432" y="543" on="1"/>
        <pt x="681" y="543" on="1"/>
      </contour>
      <contour>
        <pt x="513" y="1003" on="1"/>
        <pt x="278" y="301" on="1"/>
        <pt x="247" y="212" on="0"/>
        <pt x="249" y="123" on="0"/>
        <pt x="275" y="95" on="0"/>
        <pt x="317" y="83" on="0"/>
        <pt x="371" y="75" on="0"/>
        <pt x="399" y="61" on="1"/>
        <pt x="399" y="0" on="1"/>
        <pt x="-36" y="0" on="1"/>
        <pt x="-36" y="61" on="1"/>
        <pt x="-15" y="73" on="0"/>
        <pt x="31" y="87" on="0"/>
        <pt x="52" y="96" on="1"/>
        <pt x="101" y="118" on="0"/>
        <pt x="115" y="162" on="1"/>
        <pt x="453" y="1165" on="1"/>
      </contour>
      <contour>
        <pt x="488" y="1267" on="1"/>
        <pt x="434" y="1286" on="0"/>
        <pt x="415" y="1305" on="1"/>
        <pt x="417" y="1326" on="0"/>
        <pt x="424" y="1363" on="0"/>
        <pt x="431" y="1400" on="0"/>
        <pt x="435" y="1412" on="1"/>
        <pt x="625" y="1452" on="0"/>
        <pt x="655" y="1452" on="1"/>
        <pt x="676" y="1435" on="0"/>
        <pt x="694" y="1389" on="1"/>
        <pt x="1133" y="178" on="1"/>
        <pt x="1155" y="118" on="0"/>
        <pt x="1199" y="96" on="1"/>
        <pt x="1219" y="86" on="0"/>
        <pt x="1264" y="73" on="0"/>
        <pt x="1289" y="61" on="1"/>
        <pt x="1289" y="0" on="1"/>
        <pt x="748" y="0" on="1"/>
        <pt x="748" y="61" on="1"/>
        <pt x="771" y="72" on="0"/>
        <pt x="821" y="81" on="0"/>
        <pt x="842" y="86" on="1"/>
        <pt x="888" y="97" on="0"/>
        <pt x="888" y="131" on="1"/>
        <pt x="888" y="161" on="0"/>
        <pt x="792" y="425" on="0"/>
        <pt x="755" y="528" on="1"/>
        <pt x="652" y="817" on="0"/>
        <pt x="553" y="1106" on="1"/>
      </contour>
      <contour>
        <pt x="781" y="1542" on="1"/>
        <pt x="442" y="1742" on="1"/>
        <pt x="378" y="1779" on="0"/>
        <pt x="378" y="1822" on="1"/>
        <pt x="378" y="1865" on="0"/>
        <pt x="424" y="1886" on="1"/>
        <pt x="438" y="1892" on="0"/>
        <pt x="466" y="1892" on="1"/>
        <pt x="508" y="1892" on="0"/>
        <pt x="589" y="1816" on="1"/>
        <pt x="876" y="1542" on="1"/>
      </contour>
    </TTGlyph>
    <TTGlyph name="Aring" xMin="-36" yMin="0" xMax="1289" yMax="1970">
      <contour>
        <pt x="711" y="451" on="1"/>
        <pt x="407" y="451" on="1"/>
        <pt x="432" y="543" on="1"/>
        <pt x="681" y="543" on="1"/>
      </contour>
      <contour>
        <pt x="513" y="1003" on="1"/>
        <pt x="278" y="301" on="1"/>
        <pt x="247" y="212" on="0"/>
        <pt x="249" y="123" on="0"/>
        <pt x="275" y="95" on="0"/>
        <pt x="317" y="83" on="0"/>
        <pt x="371" y="75" on="0"/>
        <pt x="399" y="61" on="1"/>
        <pt x="399" y="0" on="1"/>
        <pt x="-36" y="0" on="1"/>
        <pt x="-36" y="61" on="1"/>
        <pt x="-15" y="73" on="0"/>
        <pt x="31" y="87" on="0"/>
        <pt x="52" y="96" on="1"/>
        <pt x="101" y="118" on="0"/>
        <pt x="115" y="162" on="1"/>
        <pt x="453" y="1165" on="1"/>
      </contour>
      <contour>
        <pt x="488" y="1267" on="1"/>
        <pt x="434" y="1286" on="0"/>
        <pt x="415" y="1305" on="1"/>
        <pt x="417" y="1326" on="0"/>
        <pt x="424" y="1363" on="0"/>
        <pt x="431" y="1400" on="0"/>
        <pt x="435" y="1412" on="1"/>
        <pt x="625" y="1452" on="0"/>
        <pt x="655" y="1452" on="1"/>
        <pt x="676" y="1435" on="0"/>
        <pt x="694" y="1389" on="1"/>
        <pt x="1133" y="178" on="1"/>
        <pt x="1155" y="118" on="0"/>
        <pt x="1199" y="96" on="1"/>
        <pt x="1219" y="86" on="0"/>
        <pt x="1264" y="73" on="0"/>
        <pt x="1289" y="61" on="1"/>
        <pt x="1289" y="0" on="1"/>
        <pt x="748" y="0" on="1"/>
        <pt x="748" y="61" on="1"/>
        <pt x="771" y="72" on="0"/>
        <pt x="821" y="81" on="0"/>
        <pt x="842" y="86" on="1"/>
        <pt x="888" y="97" on="0"/>
        <pt x="888" y="131" on="1"/>
        <pt x="888" y="161" on="0"/>
        <pt x="792" y="425" on="0"/>
        <pt x="755" y="528" on="1"/>
        <pt x="652" y="817" on="0"/>
        <pt x="553" y="1106" on="1"/>
      </contour>
      <contour>
        <pt x="386" y="1763" on="1"/>
        <pt x="386" y="1850" on="0"/>
        <pt x="456" y="1911" on="1"/>
        <pt x="525" y="1970" on="0"/>
        <pt x="627" y="1970" on="1"/>
        <pt x="728" y="1970" on="0"/>
        <pt x="796" y="1911" on="1"/>
        <pt x="867" y="1850" on="0"/>
        <pt x="867" y="1763" on="1"/>
        <pt x="867" y="1675" on="0"/>
        <pt x="796" y="1614" on="1"/>
        <pt x="727" y="1554" on="0"/>
        <pt x="627" y="1554" on="1"/>
        <pt x="526" y="1554" on="0"/>
        <pt x="456" y="1614" on="1"/>
        <pt x="386" y="1675" on="0"/>
      </contour>
      <contour>
        <pt x="473" y="1762" on="1"/>
        <pt x="473" y="1734" on="0"/>
        <pt x="497" y="1685" on="0"/>
        <pt x="518" y="1666" on="1"/>
        <pt x="561" y="1626" on="0"/>
        <pt x="627" y="1626" on="1"/>
        <pt x="729" y="1626" on="0"/>
        <pt x="768" y="1710" on="1"/>
        <pt x="780" y="1734" on="0"/>
        <pt x="780" y="1791" on="0"/>
        <pt x="757" y="1841" on="0"/>
        <pt x="736" y="1859" on="1"/>
        <pt x="692" y="1898" on="0"/>
        <pt x="627" y="1898" on="1"/>
        <pt x="562" y="1898" on="0"/>
        <pt x="473" y="1820" on="0"/>
      </contour>
    </TTGlyph>
    <TTGlyph name="Atilde" xMin="-36" yMin="0" xMax="1289" yMax="1812">
      <contour>
        <pt x="711" y="451" on="1"/>
        <pt x="407" y="451" on="1"/>
        <pt x="432" y="543" on="1"/>
        <pt x="681" y="543" on="1"/>
      </contour>
      <contour>
        <pt x="513" y="1003" on="1"/>
        <pt x="278" y="301" on="1"/>
        <pt x="247" y="212" on="0"/>
        <pt x="249" y="123" on="0"/>
        <pt x="275" y="95" on="0"/>
        <pt x="317" y="83" on="0"/>
        <pt x="371" y="75" on="0"/>
        <pt x="399" y="61" on="1"/>
        <pt x="399" y="0" on="1"/>
        <pt x="-36" y="0" on="1"/>
        <pt x="-36" y="61" on="1"/>
        <pt x="-15" y="73" on="0"/>
        <pt x="31" y="87" on="0"/>
        <pt x="52" y="96" on="1"/>
        <pt x="101" y="118" on="0"/>
        <pt x="115" y="162" on="1"/>
        <pt x="453" y="1165" on="1"/>
      </contour>
      <contour>
        <pt x="488" y="1267" on="1"/>
        <pt x="434" y="1286" on="0"/>
        <pt x="415" y="1305" on="1"/>
        <pt x="417" y="1326" on="0"/>
        <pt x="424" y="1363" on="0"/>
        <pt x="431" y="1400" on="0"/>
        <pt x="435" y="1412" on="1"/>
        <pt x="625" y="1452" on="0"/>
        <pt x="655" y="1452" on="1"/>
        <pt x="676" y="1435" on="0"/>
        <pt x="694" y="1389" on="1"/>
        <pt x="1133" y="178" on="1"/>
        <pt x="1155" y="118" on="0"/>
        <pt x="1199" y="96" on="1"/>
        <pt x="1219" y="86" on="0"/>
        <pt x="1264" y="73" on="0"/>
        <pt x="1289" y="61" on="1"/>
        <pt x="1289" y="0" on="1"/>
        <pt x="748" y="0" on="1"/>
        <pt x="748" y="61" on="1"/>
        <pt x="771" y="72" on="0"/>
        <pt x="821" y="81" on="0"/>
        <pt x="842" y="86" on="1"/>
        <pt x="888" y="97" on="0"/>
        <pt x="888" y="131" on="1"/>
        <pt x="888" y="161" on="0"/>
        <pt x="792" y="425" on="0"/>
        <pt x="755" y="528" on="1"/>
        <pt x="652" y="817" on="0"/>
        <pt x="553" y="1106" on="1"/>
      </contour>
      <contour>
        <pt x="982" y="1812" on="1"/>
        <pt x="921" y="1595" on="0"/>
        <pt x="756" y="1595" on="1"/>
        <pt x="698" y="1595" on="0"/>
        <pt x="558" y="1662" on="0"/>
        <pt x="487" y="1693" on="0"/>
        <pt x="425" y="1693" on="0"/>
        <pt x="386" y="1675" on="0"/>
        <pt x="372" y="1660" on="1"/>
        <pt x="352" y="1638" on="0"/>
        <pt x="336" y="1591" on="1"/>
        <pt x="271" y="1591" on="1"/>
        <pt x="294" y="1697" on="0"/>
        <pt x="413" y="1802" on="0"/>
        <pt x="495" y="1802" on="1"/>
        <pt x="552" y="1802" on="0"/>
        <pt x="694" y="1734" on="0"/>
        <pt x="763" y="1703" on="0"/>
        <pt x="820" y="1703" on="0"/>
        <pt x="858" y="1720" on="0"/>
        <pt x="872" y="1734" on="1"/>
        <pt x="888" y="1751" on="0"/>
        <pt x="917" y="1812" on="1"/>
      </contour>
    </TTGlyph>
    <TTGlyph name="B" xMin="84" yMin="0" xMax="1251" yMax="1421">
      <contour>
        <pt x="628" y="1339" on="1"/>
        <pt x="580" y="1339" on="0"/>
        <pt x="556" y="1332" on="1"/>
        <pt x="556" y="1421" on="1"/>
        <pt x="660" y="1421" on="1"/>
        <pt x="923" y="1421" on="0"/>
        <pt x="1056" y="1322" on="1"/>
        <pt x="1178" y="1232" on="0"/>
        <pt x="1178" y="1071" on="1"/>
        <pt x="1178" y="943" on="0"/>
        <pt x="1084" y="857" on="1"/>
        <pt x="991" y="772" on="0"/>
        <pt x="832" y="754" on="1"/>
        <pt x="832" y="750" on="1"/>
        <pt x="1129" y="710" on="0"/>
        <pt x="1218" y="536" on="1"/>
        <pt x="1251" y="474" on="0"/>
        <pt x="1251" y="307" on="0"/>
        <pt x="1193" y="165" on="0"/>
        <pt x="1132" y="112" on="1"/>
        <pt x="1001" y="0" on="0"/>
        <pt x="751" y="0" on="1"/>
        <pt x="556" y="0" on="1"/>
        <pt x="556" y="88" on="1"/>
        <pt x="578" y="82" on="0"/>
        <pt x="646" y="82" on="1"/>
        <pt x="819" y="82" on="0"/>
        <pt x="981" y="222" on="0"/>
        <pt x="981" y="377" on="1"/>
        <pt x="981" y="532" on="0"/>
        <pt x="806" y="698" on="0"/>
        <pt x="628" y="698" on="1"/>
        <pt x="556" y="698" on="1"/>
        <pt x="556" y="786" on="1"/>
        <pt x="594" y="786" on="1"/>
        <pt x="907" y="786" on="0"/>
        <pt x="907" y="1069" on="1"/>
        <pt x="907" y="1339" on="0"/>
      </contour>
      <contour>
        <pt x="473" y="0" on="1"/>
        <pt x="84" y="0" on="1"/>
        <pt x="84" y="59" on="1"/>
        <pt x="111" y="71" on="0"/>
        <pt x="162" y="85" on="0"/>
        <pt x="182" y="96" on="1"/>
        <pt x="224" y="120" on="0"/>
        <pt x="224" y="184" on="1"/>
        <pt x="224" y="1237" on="1"/>
        <pt x="224" y="1301" on="0"/>
        <pt x="182" y="1325" on="1"/>
        <pt x="162" y="1336" on="0"/>
        <pt x="111" y="1350" on="0"/>
        <pt x="84" y="1362" on="1"/>
        <pt x="84" y="1421" on="1"/>
        <pt x="473" y="1421" on="1"/>
      </contour>
    </TTGlyph>
    <TTGlyph name="C" xMin="86" yMin="-30" xMax="1225" yMax="1452">
      <contour>
        <pt x="1047" y="1352" on="1"/>
        <pt x="1083" y="1352" on="0"/>
        <pt x="1106" y="1405" on="1"/>
        <pt x="1194" y="1405" on="1"/>
        <pt x="1194" y="905" on="1"/>
        <pt x="1126" y="905" on="1"/>
        <pt x="1086" y="943" on="0"/>
        <pt x="1024" y="1116" on="0"/>
        <pt x="984" y="1216" on="0"/>
        <pt x="954" y="1258" on="1"/>
        <pt x="888" y="1351" on="0"/>
        <pt x="771" y="1367" on="1"/>
        <pt x="771" y="1449" on="1"/>
        <pt x="897" y="1437" on="0"/>
        <pt x="1013" y="1365" on="1"/>
        <pt x="1034" y="1352" on="0"/>
      </contour>
      <contour>
        <pt x="771" y="65" on="1"/>
        <pt x="991" y="65" on="0"/>
        <pt x="1084" y="285" on="1"/>
        <pt x="1116" y="361" on="0"/>
        <pt x="1130" y="467" on="1"/>
        <pt x="1225" y="444" on="1"/>
        <pt x="1194" y="211" on="0"/>
        <pt x="970" y="-20" on="0"/>
        <pt x="771" y="-30" on="1"/>
      </contour>
      <contour>
        <pt x="688" y="-30" on="1"/>
        <pt x="417" y="-16" on="0"/>
        <pt x="252" y="183" on="1"/>
        <pt x="86" y="384" on="0"/>
        <pt x="86" y="711" on="1"/>
        <pt x="86" y="1029" on="0"/>
        <pt x="258" y="1238" on="1"/>
        <pt x="427" y="1444" on="0"/>
        <pt x="688" y="1452" on="1"/>
        <pt x="688" y="1368" on="1"/>
        <pt x="467" y="1347" on="0"/>
        <pt x="394" y="1013" on="1"/>
        <pt x="367" y="889" on="0"/>
        <pt x="367" y="542" on="0"/>
        <pt x="421" y="312" on="0"/>
        <pt x="466" y="237" on="1"/>
        <pt x="548" y="98" on="0"/>
        <pt x="688" y="71" on="1"/>
      </contour>
    </TTGlyph>
    <TTGlyph name="Ccedilla" xMin="86" yMin="-444" xMax="1225" yMax="1452">
      <contour>
        <pt x="1047" y="1352" on="1"/>
        <pt x="1083" y="1352" on="0"/>
        <pt x="1106" y="1405" on="1"/>
        <pt x="1194" y="1405" on="1"/>
        <pt x="1194" y="905" on="1"/>
        <pt x="1126" y="905" on="1"/>
        <pt x="1086" y="943" on="0"/>
        <pt x="1024" y="1116" on="0"/>
        <pt x="984" y="1216" on="0"/>
        <pt x="954" y="1258" on="1"/>
        <pt x="888" y="1351" on="0"/>
        <pt x="771" y="1367" on="1"/>
        <pt x="771" y="1449" on="1"/>
        <pt x="897" y="1437" on="0"/>
        <pt x="1013" y="1365" on="1"/>
        <pt x="1034" y="1352" on="0"/>
      </contour>
      <contour>
        <pt x="771" y="65" on="1"/>
        <pt x="991" y="65" on="0"/>
        <pt x="1084" y="285" on="1"/>
        <pt x="1116" y="361" on="0"/>
        <pt x="1130" y="467" on="1"/>
        <pt x="1225" y="444" on="1"/>
        <pt x="1194" y="211" on="0"/>
        <pt x="970" y="-20" on="0"/>
        <pt x="771" y="-30" on="1"/>
      </contour>
      <contour>
        <pt x="688" y="-30" on="1"/>
        <pt x="417" y="-16" on="0"/>
        <pt x="252" y="183" on="1"/>
        <pt x="86" y="384" on="0"/>
        <pt x="86" y="711" on="1"/>
        <pt x="86" y="1029" on="0"/>
        <pt x="258" y="1238" on="1"/>
        <pt x="427" y="1444" on="0"/>
        <pt x="688" y="1452" on="1"/>
        <pt x="688" y="1368" on="1"/>
        <pt x="467" y="1347" on="0"/>
        <pt x="394" y="1013" on="1"/>
        <pt x="367" y="889" on="0"/>
        <pt x="367" y="542" on="0"/>
        <pt x="421" y="312" on="0"/>
        <pt x="466" y="237" on="1"/>
        <pt x="548" y="98" on="0"/>
        <pt x="688" y="71" on="1"/>
      </contour>
      <contour>
        <pt x="627" y="-203" on="1"/>
        <pt x="583" y="-203" on="0"/>
        <pt x="555" y="-217" on="1"/>
        <pt x="519" y="-205" on="1"/>
        <pt x="623" y="0" on="1"/>
        <pt x="702" y="0" on="1"/>
        <pt x="634" y="-137" on="1"/>
        <pt x="714" y="-114" on="0"/>
        <pt x="793" y="-137" on="1"/>
        <pt x="862" y="-157" on="0"/>
        <pt x="892" y="-210" on="1"/>
        <pt x="906" y="-237" on="0"/>
        <pt x="906" y="-308" on="0"/>
        <pt x="868" y="-372" on="0"/>
        <pt x="832" y="-395" on="1"/>
        <pt x="755" y="-444" on="0"/>
        <pt x="627" y="-444" on="1"/>
        <pt x="510" y="-444" on="0"/>
        <pt x="414" y="-410" on="1"/>
        <pt x="450" y="-348" on="1"/>
        <pt x="514" y="-375" on="0"/>
        <pt x="668" y="-375" on="0"/>
        <pt x="740" y="-324" on="0"/>
        <pt x="740" y="-287" on="1"/>
        <pt x="740" y="-203" on="0"/>
      </contour>
    </TTGlyph>
    <TTGlyph name="D" xMin="84" yMin="0" xMax="1351" yMax="1421">
      <contour>
        <pt x="826" y="1316" on="1"/>
        <pt x="748" y="1346" on="0"/>
        <pt x="599" y="1346" on="0"/>
        <pt x="572" y="1341" on="1"/>
        <pt x="572" y="1421" on="1"/>
        <pt x="670" y="1421" on="1"/>
        <pt x="990" y="1421" on="0"/>
        <pt x="1173" y="1223" on="1"/>
        <pt x="1351" y="1031" on="0"/>
        <pt x="1351" y="711" on="1"/>
        <pt x="1351" y="390" on="0"/>
        <pt x="1173" y="198" on="1"/>
        <pt x="990" y="0" on="0"/>
        <pt x="670" y="0" on="1"/>
        <pt x="572" y="0" on="1"/>
        <pt x="572" y="81" on="1"/>
        <pt x="612" y="76" on="0"/>
        <pt x="748" y="76" on="0"/>
        <pt x="905" y="137" on="0"/>
        <pt x="959" y="210" on="1"/>
        <pt x="1069" y="360" on="0"/>
        <pt x="1069" y="711" on="1"/>
        <pt x="1069" y="1221" on="0"/>
      </contour>
      <contour>
        <pt x="489" y="0" on="1"/>
        <pt x="84" y="0" on="1"/>
        <pt x="84" y="59" on="1"/>
        <pt x="111" y="71" on="0"/>
        <pt x="162" y="85" on="0"/>
        <pt x="182" y="96" on="1"/>
        <pt x="224" y="120" on="0"/>
        <pt x="224" y="184" on="1"/>
        <pt x="224" y="1237" on="1"/>
        <pt x="224" y="1301" on="0"/>
        <pt x="182" y="1325" on="1"/>
        <pt x="162" y="1336" on="0"/>
        <pt x="111" y="1350" on="0"/>
        <pt x="84" y="1362" on="1"/>
        <pt x="84" y="1421" on="1"/>
        <pt x="489" y="1421" on="1"/>
      </contour>
    </TTGlyph>
    <TTGlyph name="Delta" xMin="69" yMin="0" xMax="1194" yMax="1450">
      <contour>
        <pt x="69" y="0" on="1"/>
        <pt x="69" y="53" on="1"/>
        <pt x="580" y="1427" on="1"/>
        <pt x="662" y="1450" on="1"/>
        <pt x="1194" y="53" on="1"/>
        <pt x="1194" y="0" on="1"/>
      </contour>
      <contour>
        <pt x="560" y="1135" on="1"/>
        <pt x="188" y="98" on="1"/>
        <pt x="945" y="98" on="1"/>
      </contour>
    </TTGlyph>
    <TTGlyph name="E" xMin="84" yMin="0" xMax="1171" yMax="1436">
      <contour>
        <pt x="84" y="0" on="1"/>
        <pt x="84" y="59" on="1"/>
        <pt x="108" y="74" on="0"/>
        <pt x="169" y="90" on="0"/>
        <pt x="195" y="104" on="0"/>
        <pt x="204" y="119" on="1"/>
        <pt x="224" y="150" on="0"/>
        <pt x="224" y="233" on="1"/>
        <pt x="224" y="1186" on="1"/>
        <pt x="224" y="1270" on="0"/>
        <pt x="195" y="1316" on="0"/>
        <pt x="170" y="1329" on="0"/>
        <pt x="154" y="1334" on="1"/>
        <pt x="104" y="1348" on="0"/>
        <pt x="84" y="1362" on="1"/>
        <pt x="84" y="1421" on="1"/>
        <pt x="473" y="1421" on="1"/>
        <pt x="473" y="0" on="1"/>
      </contour>
      <contour>
        <pt x="556" y="82" on="1"/>
        <pt x="575" y="81" on="1"/>
        <pt x="800" y="81" on="0"/>
        <pt x="894" y="128" on="1"/>
        <pt x="993" y="178" on="0"/>
        <pt x="1034" y="326" on="1"/>
        <pt x="1043" y="357" on="0"/>
        <pt x="1056" y="408" on="0"/>
        <pt x="1064" y="429" on="1"/>
        <pt x="1079" y="473" on="0"/>
        <pt x="1106" y="500" on="1"/>
        <pt x="1171" y="500" on="1"/>
        <pt x="1171" y="0" on="1"/>
        <pt x="556" y="0" on="1"/>
      </contour>
      <contour>
        <pt x="926" y="1421" on="1"/>
        <pt x="988" y="1421" on="0"/>
        <pt x="1126" y="1436" on="1"/>
        <pt x="1126" y="946" on="1"/>
        <pt x="1056" y="946" on="1"/>
        <pt x="1021" y="991" on="0"/>
        <pt x="983" y="1103" on="0"/>
        <pt x="943" y="1209" on="0"/>
        <pt x="903" y="1273" on="0"/>
        <pt x="873" y="1295" on="1"/>
        <pt x="813" y="1339" on="0"/>
        <pt x="608" y="1339" on="0"/>
        <pt x="556" y="1324" on="1"/>
        <pt x="556" y="1421" on="1"/>
      </contour>
      <contour>
        <pt x="556" y="846" on="1"/>
        <pt x="848" y="846" on="1"/>
        <pt x="848" y="658" on="1"/>
        <pt x="556" y="658" on="1"/>
      </contour>
    </TTGlyph>
    <TTGlyph name="Eacute" xMin="84" yMin="0" xMax="1171" yMax="1892">
      <contour>
        <pt x="84" y="0" on="1"/>
        <pt x="84" y="59" on="1"/>
        <pt x="108" y="74" on="0"/>
        <pt x="169" y="90" on="0"/>
        <pt x="195" y="104" on="0"/>
        <pt x="204" y="119" on="1"/>
        <pt x="224" y="150" on="0"/>
        <pt x="224" y="233" on="1"/>
        <pt x="224" y="1186" on="1"/>
        <pt x="224" y="1270" on="0"/>
        <pt x="195" y="1316" on="0"/>
        <pt x="170" y="1329" on="0"/>
        <pt x="154" y="1334" on="1"/>
        <pt x="104" y="1348" on="0"/>
        <pt x="84" y="1362" on="1"/>
        <pt x="84" y="1421" on="1"/>
        <pt x="473" y="1421" on="1"/>
        <pt x="473" y="0" on="1"/>
      </contour>
      <contour>
        <pt x="556" y="82" on="1"/>
        <pt x="575" y="81" on="1"/>
        <pt x="800" y="81" on="0"/>
        <pt x="894" y="128" on="1"/>
        <pt x="993" y="178" on="0"/>
        <pt x="1034" y="326" on="1"/>
        <pt x="1043" y="357" on="0"/>
        <pt x="1056" y="408" on="0"/>
        <pt x="1064" y="429" on="1"/>
        <pt x="1079" y="473" on="0"/>
        <pt x="1106" y="500" on="1"/>
        <pt x="1171" y="500" on="1"/>
        <pt x="1171" y="0" on="1"/>
        <pt x="556" y="0" on="1"/>
      </contour>
      <contour>
        <pt x="926" y="1421" on="1"/>
        <pt x="988" y="1421" on="0"/>
        <pt x="1126" y="1436" on="1"/>
        <pt x="1126" y="946" on="1"/>
        <pt x="1056" y="946" on="1"/>
        <pt x="1021" y="991" on="0"/>
        <pt x="983" y="1103" on="0"/>
        <pt x="943" y="1209" on="0"/>
        <pt x="903" y="1273" on="0"/>
        <pt x="873" y="1295" on="1"/>
        <pt x="813" y="1339" on="0"/>
        <pt x="608" y="1339" on="0"/>
        <pt x="556" y="1324" on="1"/>
        <pt x="556" y="1421" on="1"/>
      </contour>
      <contour>
        <pt x="556" y="846" on="1"/>
        <pt x="848" y="846" on="1"/>
        <pt x="848" y="658" on="1"/>
        <pt x="556" y="658" on="1"/>
      </contour>
      <contour>
        <pt x="377" y="1542" on="1"/>
        <pt x="664" y="1816" on="1"/>
        <pt x="696" y="1846" on="0"/>
        <pt x="759" y="1892" on="0"/>
        <pt x="814" y="1892" on="0"/>
        <pt x="845" y="1879" on="0"/>
        <pt x="855" y="1868" on="1"/>
        <pt x="876" y="1846" on="0"/>
        <pt x="876" y="1821" on="1"/>
        <pt x="876" y="1780" on="0"/>
        <pt x="812" y="1742" on="1"/>
        <pt x="472" y="1542" on="1"/>
      </contour>
    </TTGlyph>
    <TTGlyph name="Ecircumflex" xMin="84" yMin="0" xMax="1171" yMax="1886">
      <contour>
        <pt x="84" y="0" on="1"/>
        <pt x="84" y="59" on="1"/>
        <pt x="108" y="74" on="0"/>
        <pt x="169" y="90" on="0"/>
        <pt x="195" y="104" on="0"/>
        <pt x="204" y="119" on="1"/>
        <pt x="224" y="150" on="0"/>
        <pt x="224" y="233" on="1"/>
        <pt x="224" y="1186" on="1"/>
        <pt x="224" y="1270" on="0"/>
        <pt x="195" y="1316" on="0"/>
        <pt x="170" y="1329" on="0"/>
        <pt x="154" y="1334" on="1"/>
        <pt x="104" y="1348" on="0"/>
        <pt x="84" y="1362" on="1"/>
        <pt x="84" y="1421" on="1"/>
        <pt x="473" y="1421" on="1"/>
        <pt x="473" y="0" on="1"/>
      </contour>
      <contour>
        <pt x="556" y="82" on="1"/>
        <pt x="575" y="81" on="1"/>
        <pt x="800" y="81" on="0"/>
        <pt x="894" y="128" on="1"/>
        <pt x="993" y="178" on="0"/>
        <pt x="1034" y="326" on="1"/>
        <pt x="1043" y="357" on="0"/>
        <pt x="1056" y="408" on="0"/>
        <pt x="1064" y="429" on="1"/>
        <pt x="1079" y="473" on="0"/>
        <pt x="1106" y="500" on="1"/>
        <pt x="1171" y="500" on="1"/>
        <pt x="1171" y="0" on="1"/>
        <pt x="556" y="0" on="1"/>
      </contour>
      <contour>
        <pt x="926" y="1421" on="1"/>
        <pt x="988" y="1421" on="0"/>
        <pt x="1126" y="1436" on="1"/>
        <pt x="1126" y="946" on="1"/>
        <pt x="1056" y="946" on="1"/>
        <pt x="1021" y="991" on="0"/>
        <pt x="983" y="1103" on="0"/>
        <pt x="943" y="1209" on="0"/>
        <pt x="903" y="1273" on="0"/>
        <pt x="873" y="1295" on="1"/>
        <pt x="813" y="1339" on="0"/>
        <pt x="608" y="1339" on="0"/>
        <pt x="556" y="1324" on="1"/>
        <pt x="556" y="1421" on="1"/>
      </contour>
      <contour>
        <pt x="556" y="846" on="1"/>
        <pt x="848" y="846" on="1"/>
        <pt x="848" y="658" on="1"/>
        <pt x="556" y="658" on="1"/>
      </contour>
      <contour>
        <pt x="700" y="1886" on="1"/>
        <pt x="966" y="1542" on="1"/>
        <pt x="879" y="1542" on="1"/>
        <pt x="626" y="1769" on="1"/>
        <pt x="372" y="1542" on="1"/>
        <pt x="287" y="1542" on="1"/>
        <pt x="550" y="1886" on="1"/>
      </contour>
    </TTGlyph>
    <TTGlyph name="Edieresis" xMin="84" yMin="0" xMax="1171" yMax="1781">
      <contour>
        <pt x="84" y="0" on="1"/>
        <pt x="84" y="59" on="1"/>
        <pt x="108" y="74" on="0"/>
        <pt x="169" y="90" on="0"/>
        <pt x="195" y="104" on="0"/>
        <pt x="204" y="119" on="1"/>
        <pt x="224" y="150" on="0"/>
        <pt x="224" y="233" on="1"/>
        <pt x="224" y="1186" on="1"/>
        <pt x="224" y="1270" on="0"/>
        <pt x="195" y="1316" on="0"/>
        <pt x="170" y="1329" on="0"/>
        <pt x="154" y="1334" on="1"/>
        <pt x="104" y="1348" on="0"/>
        <pt x="84" y="1362" on="1"/>
        <pt x="84" y="1421" on="1"/>
        <pt x="473" y="1421" on="1"/>
        <pt x="473" y="0" on="1"/>
      </contour>
      <contour>
        <pt x="556" y="82" on="1"/>
        <pt x="575" y="81" on="1"/>
        <pt x="800" y="81" on="0"/>
        <pt x="894" y="128" on="1"/>
        <pt x="993" y="178" on="0"/>
        <pt x="1034" y="326" on="1"/>
        <pt x="1043" y="357" on="0"/>
        <pt x="1056" y="408" on="0"/>
        <pt x="1064" y="429" on="1"/>
        <pt x="1079" y="473" on="0"/>
        <pt x="1106" y="500" on="1"/>
        <pt x="1171" y="500" on="1"/>
        <pt x="1171" y="0" on="1"/>
        <pt x="556" y="0" on="1"/>
      </contour>
      <contour>
        <pt x="926" y="1421" on="1"/>
        <pt x="988" y="1421" on="0"/>
        <pt x="1126" y="1436" on="1"/>
        <pt x="1126" y="946" on="1"/>
        <pt x="1056" y="946" on="1"/>
        <pt x="1021" y="991" on="0"/>
        <pt x="983" y="1103" on="0"/>
        <pt x="943" y="1209" on="0"/>
        <pt x="903" y="1273" on="0"/>
        <pt x="873" y="1295" on="1"/>
        <pt x="813" y="1339" on="0"/>
        <pt x="608" y="1339" on="0"/>
        <pt x="556" y="1324" on="1"/>
        <pt x="556" y="1421" on="1"/>
      </contour>
      <contour>
        <pt x="556" y="846" on="1"/>
        <pt x="848" y="846" on="1"/>
        <pt x="848" y="658" on="1"/>
        <pt x="556" y="658" on="1"/>
      </contour>
      <contour>
        <pt x="298" y="1724" on="0"/>
        <pt x="366" y="1781" on="0"/>
        <pt x="441" y="1781" on="0"/>
        <pt x="485" y="1766" on="0"/>
        <pt x="501" y="1752" on="1"/>
        <pt x="536" y="1723" on="0"/>
        <pt x="536" y="1656" on="0"/>
        <pt x="517" y="1618" on="0"/>
        <pt x="501" y="1604" on="1"/>
        <pt x="467" y="1576" on="0"/>
        <pt x="366" y="1576" on="0"/>
        <pt x="298" y="1632" on="0"/>
      </contour>
      <contour>
        <pt x="718" y="1724" on="0"/>
        <pt x="786" y="1781" on="0"/>
        <pt x="887" y="1781" on="0"/>
        <pt x="955" y="1724" on="0"/>
        <pt x="955" y="1632" on="0"/>
        <pt x="887" y="1576" on="0"/>
        <pt x="786" y="1576" on="0"/>
        <pt x="718" y="1632" on="0"/>
      </contour>
    </TTGlyph>
    <TTGlyph name="Egrave" xMin="84" yMin="0" xMax="1171" yMax="1892">
      <contour>
        <pt x="84" y="0" on="1"/>
        <pt x="84" y="59" on="1"/>
        <pt x="108" y="74" on="0"/>
        <pt x="169" y="90" on="0"/>
        <pt x="195" y="104" on="0"/>
        <pt x="204" y="119" on="1"/>
        <pt x="224" y="150" on="0"/>
        <pt x="224" y="233" on="1"/>
        <pt x="224" y="1186" on="1"/>
        <pt x="224" y="1270" on="0"/>
        <pt x="195" y="1316" on="0"/>
        <pt x="170" y="1329" on="0"/>
        <pt x="154" y="1334" on="1"/>
        <pt x="104" y="1348" on="0"/>
        <pt x="84" y="1362" on="1"/>
        <pt x="84" y="1421" on="1"/>
        <pt x="473" y="1421" on="1"/>
        <pt x="473" y="0" on="1"/>
      </contour>
      <contour>
        <pt x="556" y="82" on="1"/>
        <pt x="575" y="81" on="1"/>
        <pt x="800" y="81" on="0"/>
        <pt x="894" y="128" on="1"/>
        <pt x="993" y="178" on="0"/>
        <pt x="1034" y="326" on="1"/>
        <pt x="1043" y="357" on="0"/>
        <pt x="1056" y="408" on="0"/>
        <pt x="1064" y="429" on="1"/>
        <pt x="1079" y="473" on="0"/>
        <pt x="1106" y="500" on="1"/>
        <pt x="1171" y="500" on="1"/>
        <pt x="1171" y="0" on="1"/>
        <pt x="556" y="0" on="1"/>
      </contour>
      <contour>
        <pt x="926" y="1421" on="1"/>
        <pt x="988" y="1421" on="0"/>
        <pt x="1126" y="1436" on="1"/>
        <pt x="1126" y="946" on="1"/>
        <pt x="1056" y="946" on="1"/>
        <pt x="1021" y="991" on="0"/>
        <pt x="983" y="1103" on="0"/>
        <pt x="943" y="1209" on="0"/>
        <pt x="903" y="1273" on="0"/>
        <pt x="873" y="1295" on="1"/>
        <pt x="813" y="1339" on="0"/>
        <pt x="608" y="1339" on="0"/>
        <pt x="556" y="1324" on="1"/>
        <pt x="556" y="1421" on="1"/>
      </contour>
      <contour>
        <pt x="556" y="846" on="1"/>
        <pt x="848" y="846" on="1"/>
        <pt x="848" y="658" on="1"/>
        <pt x="556" y="658" on="1"/>
      </contour>
      <contour>
        <pt x="780" y="1542" on="1"/>
        <pt x="441" y="1742" on="1"/>
        <pt x="377" y="1779" on="0"/>
        <pt x="377" y="1822" on="1"/>
        <pt x="377" y="1865" on="0"/>
        <pt x="422" y="1886" on="1"/>
        <pt x="437" y="1892" on="0"/>
        <pt x="475" y="1892" on="0"/>
        <pt x="507" y="1879" on="0"/>
        <pt x="520" y="1868" on="1"/>
        <pt x="548" y="1847" on="0"/>
        <pt x="556" y="1816" on="1"/>
        <pt x="875" y="1542" on="1"/>
      </contour>
    </TTGlyph>
    <TTGlyph name="Eth" xMin="71" yMin="0" xMax="1351" yMax="1421">
      <contour>
        <pt x="71" y="811" on="1"/>
        <pt x="224" y="811" on="1"/>
        <pt x="224" y="1237" on="1"/>
        <pt x="224" y="1301" on="0"/>
        <pt x="182" y="1325" on="1"/>
        <pt x="162" y="1336" on="0"/>
        <pt x="111" y="1350" on="0"/>
        <pt x="84" y="1362" on="1"/>
        <pt x="84" y="1421" on="1"/>
        <pt x="489" y="1421" on="1"/>
        <pt x="489" y="811" on="1"/>
        <pt x="804" y="811" on="1"/>
        <pt x="804" y="715" on="1"/>
        <pt x="489" y="715" on="1"/>
        <pt x="489" y="0" on="1"/>
        <pt x="84" y="0" on="1"/>
        <pt x="84" y="59" on="1"/>
        <pt x="111" y="71" on="0"/>
        <pt x="162" y="85" on="0"/>
        <pt x="182" y="96" on="1"/>
        <pt x="224" y="120" on="0"/>
        <pt x="224" y="184" on="1"/>
        <pt x="224" y="715" on="1"/>
        <pt x="71" y="715" on="1"/>
      </contour>
      <contour>
        <pt x="826" y="1316" on="1"/>
        <pt x="748" y="1346" on="0"/>
        <pt x="599" y="1346" on="0"/>
        <pt x="572" y="1341" on="1"/>
        <pt x="572" y="1421" on="1"/>
        <pt x="670" y="1421" on="1"/>
        <pt x="990" y="1421" on="0"/>
        <pt x="1173" y="1223" on="1"/>
        <pt x="1351" y="1031" on="0"/>
        <pt x="1351" y="711" on="1"/>
        <pt x="1351" y="390" on="0"/>
        <pt x="1173" y="198" on="1"/>
        <pt x="990" y="0" on="0"/>
        <pt x="670" y="0" on="1"/>
        <pt x="572" y="0" on="1"/>
        <pt x="572" y="81" on="1"/>
        <pt x="612" y="76" on="0"/>
        <pt x="748" y="76" on="0"/>
        <pt x="905" y="137" on="0"/>
        <pt x="959" y="210" on="1"/>
        <pt x="1069" y="360" on="0"/>
        <pt x="1069" y="711" on="1"/>
        <pt x="1069" y="1221" on="0"/>
      </contour>
    </TTGlyph>
    <TTGlyph name="Euro" xMin="5" yMin="-30" xMax="1017" yMax="1450">
      <contour>
        <pt x="881" y="1352" on="1"/>
        <pt x="905" y="1352" on="0"/>
        <pt x="926" y="1405" on="1"/>
        <pt x="990" y="1405" on="1"/>
        <pt x="990" y="987" on="1"/>
        <pt x="931" y="987" on="1"/>
        <pt x="899" y="987" on="0"/>
        <pt x="880" y="1023" on="0"/>
        <pt x="875" y="1052" on="0"/>
        <pt x="857" y="1119" on="0"/>
        <pt x="830" y="1223" on="0"/>
        <pt x="808" y="1266" on="1"/>
        <pt x="761" y="1362" on="0"/>
        <pt x="671" y="1374" on="1"/>
        <pt x="671" y="1449" on="1"/>
        <pt x="769" y="1437" on="0"/>
        <pt x="854" y="1365" on="1"/>
        <pt x="870" y="1352" on="0"/>
      </contour>
      <contour>
        <pt x="697" y="56" on="1"/>
        <pt x="824" y="79" on="0"/>
        <pt x="888" y="248" on="1"/>
        <pt x="912" y="314" on="0"/>
        <pt x="924" y="412" on="1"/>
        <pt x="1017" y="397" on="1"/>
        <pt x="968" y="5" on="0"/>
        <pt x="697" y="-28" on="1"/>
      </contour>
      <contour>
        <pt x="159" y="711" on="1"/>
        <pt x="159" y="763" on="0"/>
        <pt x="163" y="815" on="1"/>
        <pt x="5" y="815" on="1"/>
        <pt x="19" y="903" on="1"/>
        <pt x="170" y="903" on="1"/>
        <pt x="207" y="1141" on="0"/>
        <pt x="319" y="1286" on="1"/>
        <pt x="434" y="1434" on="0"/>
        <pt x="588" y="1450" on="1"/>
        <pt x="588" y="1366" on="1"/>
        <pt x="480" y="1322" on="0"/>
        <pt x="427" y="1096" on="1"/>
        <pt x="408" y="1015" on="0"/>
        <pt x="399" y="903" on="1"/>
        <pt x="755" y="903" on="1"/>
        <pt x="743" y="815" on="1"/>
        <pt x="394" y="815" on="1"/>
        <pt x="392" y="789" on="0"/>
        <pt x="392" y="762" on="1"/>
        <pt x="392" y="668" on="1"/>
        <pt x="722" y="668" on="1"/>
        <pt x="707" y="580" on="1"/>
        <pt x="394" y="580" on="1"/>
        <pt x="413" y="228" on="0"/>
        <pt x="538" y="109" on="1"/>
        <pt x="574" y="74" on="0"/>
        <pt x="614" y="61" on="1"/>
        <pt x="614" y="-30" on="1"/>
        <pt x="431" y="-16" on="0"/>
        <pt x="310" y="145" on="1"/>
        <pt x="187" y="310" on="0"/>
        <pt x="163" y="580" on="1"/>
        <pt x="5" y="580" on="1"/>
        <pt x="19" y="668" on="1"/>
        <pt x="159" y="668" on="1"/>
      </contour>
    </TTGlyph>
    <TTGlyph name="F" xMin="84" yMin="0" xMax="1104" yMax="1436">
      <contour>
        <pt x="839" y="1307" on="0"/>
        <pt x="745" y="1333" on="0"/>
        <pt x="596" y="1333" on="0"/>
        <pt x="556" y="1325" on="1"/>
        <pt x="556" y="1421" on="1"/>
        <pt x="893" y="1421" on="1"/>
        <pt x="960" y="1421" on="0"/>
        <pt x="1104" y="1436" on="1"/>
        <pt x="1104" y="946" on="1"/>
        <pt x="1038" y="946" on="1"/>
        <pt x="1002" y="984" on="0"/>
        <pt x="968" y="1105" on="0"/>
        <pt x="944" y="1182" on="0"/>
        <pt x="903" y="1256" on="0"/>
      </contour>
      <contour>
        <pt x="473" y="227" on="1"/>
        <pt x="473" y="148" on="0"/>
        <pt x="503" y="103" on="0"/>
        <pt x="531" y="90" on="0"/>
        <pt x="567" y="81" on="0"/>
        <pt x="610" y="71" on="0"/>
        <pt x="635" y="59" on="1"/>
        <pt x="635" y="0" on="1"/>
        <pt x="84" y="0" on="1"/>
        <pt x="84" y="59" on="1"/>
        <pt x="108" y="74" on="0"/>
        <pt x="169" y="90" on="0"/>
        <pt x="195" y="104" on="0"/>
        <pt x="204" y="119" on="1"/>
        <pt x="224" y="150" on="0"/>
        <pt x="224" y="233" on="1"/>
        <pt x="224" y="1186" on="1"/>
        <pt x="224" y="1270" on="0"/>
        <pt x="195" y="1316" on="0"/>
        <pt x="170" y="1329" on="0"/>
        <pt x="154" y="1334" on="1"/>
        <pt x="104" y="1348" on="0"/>
        <pt x="84" y="1362" on="1"/>
        <pt x="84" y="1421" on="1"/>
        <pt x="473" y="1421" on="1"/>
      </contour>
      <contour>
        <pt x="556" y="834" on="1"/>
        <pt x="848" y="834" on="1"/>
        <pt x="848" y="646" on="1"/>
        <pt x="556" y="646" on="1"/>
      </contour>
    </TTGlyph>
    <TTGlyph name="G" xMin="88" yMin="-25" xMax="1294" yMax="1451">
      <contour>
        <pt x="1024" y="1356" on="1"/>
        <pt x="1059" y="1356" on="0"/>
        <pt x="1076" y="1409" on="1"/>
        <pt x="1161" y="1409" on="1"/>
        <pt x="1161" y="911" on="1"/>
        <pt x="1094" y="911" on="1"/>
        <pt x="1052" y="964" on="0"/>
        <pt x="992" y="1144" on="0"/>
        <pt x="955" y="1238" on="0"/>
        <pt x="925" y="1276" on="1"/>
        <pt x="858" y="1359" on="0"/>
        <pt x="735" y="1366" on="1"/>
        <pt x="735" y="1451" on="1"/>
        <pt x="825" y="1445" on="0"/>
        <pt x="960" y="1383" on="0"/>
        <pt x="1010" y="1356" on="0"/>
      </contour>
      <contour>
        <pt x="1190" y="242" on="1"/>
        <pt x="1190" y="150" on="0"/>
        <pt x="1223" y="78" on="1"/>
        <pt x="1185" y="55" on="1"/>
        <pt x="1081" y="25" on="0"/>
        <pt x="895" y="25" on="1"/>
        <pt x="885" y="25" on="0"/>
        <pt x="850" y="12" on="1"/>
        <pt x="783" y="-11" on="0"/>
        <pt x="735" y="-20" on="1"/>
        <pt x="735" y="52" on="1"/>
        <pt x="848" y="58" on="0"/>
        <pt x="896" y="142" on="1"/>
        <pt x="941" y="221" on="0"/>
        <pt x="941" y="391" on="1"/>
        <pt x="941" y="484" on="0"/>
        <pt x="929" y="558" on="0"/>
        <pt x="895" y="587" on="0"/>
        <pt x="848" y="604" on="0"/>
        <pt x="794" y="614" on="0"/>
        <pt x="770" y="623" on="1"/>
        <pt x="770" y="690" on="1"/>
        <pt x="1294" y="690" on="1"/>
        <pt x="1289" y="654" on="0"/>
        <pt x="1256" y="612" on="0"/>
        <pt x="1238" y="592" on="1"/>
        <pt x="1190" y="539" on="0"/>
        <pt x="1190" y="467" on="1"/>
      </contour>
      <contour>
        <pt x="652" y="1361" on="1"/>
        <pt x="370" y="1305" on="0"/>
        <pt x="370" y="705" on="1"/>
        <pt x="370" y="215" on="0"/>
        <pt x="542" y="100" on="1"/>
        <pt x="593" y="66" on="0"/>
        <pt x="652" y="56" on="1"/>
        <pt x="652" y="-25" on="1"/>
        <pt x="394" y="-25" on="0"/>
        <pt x="240" y="176" on="1"/>
        <pt x="88" y="377" on="0"/>
        <pt x="88" y="711" on="1"/>
        <pt x="88" y="1010" on="0"/>
        <pt x="244" y="1218" on="1"/>
        <pt x="404" y="1430" on="0"/>
        <pt x="652" y="1450" on="1"/>
      </contour>
    </TTGlyph>
    <TTGlyph name="H" xMin="81" yMin="0" xMax="1368" yMax="1421">
      <contour>
        <pt x="983" y="1200" on="1"/>
        <pt x="983" y="1274" on="0"/>
        <pt x="953" y="1317" on="0"/>
        <pt x="927" y="1329" on="0"/>
        <pt x="912" y="1334" on="1"/>
        <pt x="863" y="1348" on="0"/>
        <pt x="843" y="1362" on="1"/>
        <pt x="843" y="1421" on="1"/>
        <pt x="1368" y="1421" on="1"/>
        <pt x="1368" y="1362" on="1"/>
        <pt x="1341" y="1350" on="0"/>
        <pt x="1292" y="1336" on="0"/>
        <pt x="1273" y="1325" on="1"/>
        <pt x="1232" y="1301" on="0"/>
        <pt x="1232" y="1237" on="1"/>
        <pt x="1232" y="184" on="1"/>
        <pt x="1232" y="120" on="0"/>
        <pt x="1273" y="96" on="1"/>
        <pt x="1292" y="85" on="0"/>
        <pt x="1341" y="71" on="0"/>
        <pt x="1368" y="59" on="1"/>
        <pt x="1368" y="0" on="1"/>
        <pt x="843" y="0" on="1"/>
        <pt x="843" y="59" on="1"/>
        <pt x="959" y="75" on="0"/>
        <pt x="977" y="166" on="1"/>
        <pt x="983" y="196" on="0"/>
        <pt x="983" y="236" on="1"/>
      </contour>
      <contour>
        <pt x="465" y="227" on="1"/>
        <pt x="465" y="118" on="0"/>
        <pt x="507" y="96" on="1"/>
        <pt x="521" y="90" on="0"/>
        <pt x="586" y="71" on="0"/>
        <pt x="605" y="59" on="1"/>
        <pt x="605" y="0" on="1"/>
        <pt x="81" y="0" on="1"/>
        <pt x="81" y="59" on="1"/>
        <pt x="108" y="71" on="0"/>
        <pt x="156" y="85" on="0"/>
        <pt x="175" y="96" on="1"/>
        <pt x="216" y="120" on="0"/>
        <pt x="216" y="184" on="1"/>
        <pt x="216" y="1237" on="1"/>
        <pt x="216" y="1301" on="0"/>
        <pt x="175" y="1325" on="1"/>
        <pt x="156" y="1336" on="0"/>
        <pt x="108" y="1350" on="0"/>
        <pt x="81" y="1362" on="1"/>
        <pt x="81" y="1421" on="1"/>
        <pt x="605" y="1421" on="1"/>
        <pt x="605" y="1362" on="1"/>
        <pt x="582" y="1347" on="0"/>
        <pt x="518" y="1329" on="0"/>
        <pt x="493" y="1316" on="0"/>
        <pt x="484" y="1301" on="1"/>
        <pt x="465" y="1269" on="0"/>
        <pt x="465" y="1190" on="1"/>
      </contour>
      <contour>
        <pt x="900" y="694" on="1"/>
        <pt x="548" y="694" on="1"/>
        <pt x="548" y="786" on="1"/>
        <pt x="900" y="786" on="1"/>
      </contour>
    </TTGlyph>
    <TTGlyph name="I" xMin="93" yMin="0" xMax="632" yMax="1421">
      <contour>
        <pt x="630" y="1421" on="1"/>
        <pt x="630" y="1362" on="1"/>
        <pt x="601" y="1350" on="0"/>
        <pt x="549" y="1336" on="0"/>
        <pt x="530" y="1325" on="1"/>
        <pt x="487" y="1301" on="0"/>
        <pt x="487" y="1237" on="1"/>
        <pt x="487" y="184" on="1"/>
        <pt x="487" y="120" on="0"/>
        <pt x="530" y="96" on="1"/>
        <pt x="550" y="85" on="0"/>
        <pt x="602" y="71" on="0"/>
        <pt x="632" y="59" on="1"/>
        <pt x="632" y="0" on="1"/>
        <pt x="93" y="0" on="1"/>
        <pt x="93" y="59" on="1"/>
        <pt x="122" y="71" on="0"/>
        <pt x="174" y="85" on="0"/>
        <pt x="194" y="96" on="1"/>
        <pt x="238" y="120" on="0"/>
        <pt x="238" y="184" on="1"/>
        <pt x="238" y="1237" on="1"/>
        <pt x="238" y="1301" on="0"/>
        <pt x="194" y="1325" on="1"/>
        <pt x="174" y="1336" on="0"/>
        <pt x="122" y="1350" on="0"/>
        <pt x="93" y="1362" on="1"/>
        <pt x="93" y="1421" on="1"/>
      </contour>
    </TTGlyph>
    <TTGlyph name="IJ" xMin="93" yMin="-30" xMax="1613" yMax="1421">
      <component glyphName="I" x="0" y="0" flags="0x1004"/>
      <component glyphName="J" x="725" y="0" flags="0x1004"/>
    </TTGlyph>
    <TTGlyph name="Iacute" xMin="93" yMin="0" xMax="632" yMax="1892">
      <contour>
        <pt x="630" y="1421" on="1"/>
        <pt x="630" y="1362" on="1"/>
        <pt x="601" y="1350" on="0"/>
        <pt x="549" y="1336" on="0"/>
        <pt x="530" y="1325" on="1"/>
        <pt x="487" y="1301" on="0"/>
        <pt x="487" y="1237" on="1"/>
        <pt x="487" y="184" on="1"/>
        <pt x="487" y="120" on="0"/>
        <pt x="530" y="96" on="1"/>
        <pt x="550" y="85" on="0"/>
        <pt x="602" y="71" on="0"/>
        <pt x="632" y="59" on="1"/>
        <pt x="632" y="0" on="1"/>
        <pt x="93" y="0" on="1"/>
        <pt x="93" y="59" on="1"/>
        <pt x="122" y="71" on="0"/>
        <pt x="174" y="85" on="0"/>
        <pt x="194" y="96" on="1"/>
        <pt x="238" y="120" on="0"/>
        <pt x="238" y="184" on="1"/>
        <pt x="238" y="1237" on="1"/>
        <pt x="238" y="1301" on="0"/>
        <pt x="194" y="1325" on="1"/>
        <pt x="174" y="1336" on="0"/>
        <pt x="122" y="1350" on="0"/>
        <pt x="93" y="1362" on="1"/>
        <pt x="93" y="1421" on="1"/>
      </contour>
      <contour>
        <pt x="113" y="1542" on="1"/>
        <pt x="400" y="1816" on="1"/>
        <pt x="432" y="1846" on="0"/>
        <pt x="495" y="1892" on="0"/>
        <pt x="550" y="1892" on="0"/>
        <pt x="581" y="1879" on="0"/>
        <pt x="591" y="1868" on="1"/>
        <pt x="612" y="1846" on="0"/>
        <pt x="612" y="1821" on="1"/>
        <pt x="612" y="1780" on="0"/>
        <pt x="548" y="1742" on="1"/>
        <pt x="208" y="1542" on="1"/>
      </contour>
    </TTGlyph>
    <TTGlyph name="Icircumflex" xMin="23" yMin="0" xMax="702" yMax="1886">
      <contour>
        <pt x="630" y="1421" on="1"/>
        <pt x="630" y="1362" on="1"/>
        <pt x="601" y="1350" on="0"/>
        <pt x="549" y="1336" on="0"/>
        <pt x="530" y="1325" on="1"/>
        <pt x="487" y="1301" on="0"/>
        <pt x="487" y="1237" on="1"/>
        <pt x="487" y="184" on="1"/>
        <pt x="487" y="120" on="0"/>
        <pt x="530" y="96" on="1"/>
        <pt x="550" y="85" on="0"/>
        <pt x="602" y="71" on="0"/>
        <pt x="632" y="59" on="1"/>
        <pt x="632" y="0" on="1"/>
        <pt x="93" y="0" on="1"/>
        <pt x="93" y="59" on="1"/>
        <pt x="122" y="71" on="0"/>
        <pt x="174" y="85" on="0"/>
        <pt x="194" y="96" on="1"/>
        <pt x="238" y="120" on="0"/>
        <pt x="238" y="184" on="1"/>
        <pt x="238" y="1237" on="1"/>
        <pt x="238" y="1301" on="0"/>
        <pt x="194" y="1325" on="1"/>
        <pt x="174" y="1336" on="0"/>
        <pt x="122" y="1350" on="0"/>
        <pt x="93" y="1362" on="1"/>
        <pt x="93" y="1421" on="1"/>
      </contour>
      <contour>
        <pt x="436" y="1886" on="1"/>
        <pt x="702" y="1542" on="1"/>
        <pt x="615" y="1542" on="1"/>
        <pt x="362" y="1769" on="1"/>
        <pt x="108" y="1542" on="1"/>
        <pt x="23" y="1542" on="1"/>
        <pt x="286" y="1886" on="1"/>
      </contour>
    </TTGlyph>
    <TTGlyph name="Idieresis" xMin="34" yMin="0" xMax="691" yMax="1781">
      <contour>
        <pt x="630" y="1421" on="1"/>
        <pt x="630" y="1362" on="1"/>
        <pt x="601" y="1350" on="0"/>
        <pt x="549" y="1336" on="0"/>
        <pt x="530" y="1325" on="1"/>
        <pt x="487" y="1301" on="0"/>
        <pt x="487" y="1237" on="1"/>
        <pt x="487" y="184" on="1"/>
        <pt x="487" y="120" on="0"/>
        <pt x="530" y="96" on="1"/>
        <pt x="550" y="85" on="0"/>
        <pt x="602" y="71" on="0"/>
        <pt x="632" y="59" on="1"/>
        <pt x="632" y="0" on="1"/>
        <pt x="93" y="0" on="1"/>
        <pt x="93" y="59" on="1"/>
        <pt x="122" y="71" on="0"/>
        <pt x="174" y="85" on="0"/>
        <pt x="194" y="96" on="1"/>
        <pt x="238" y="120" on="0"/>
        <pt x="238" y="184" on="1"/>
        <pt x="238" y="1237" on="1"/>
        <pt x="238" y="1301" on="0"/>
        <pt x="194" y="1325" on="1"/>
        <pt x="174" y="1336" on="0"/>
        <pt x="122" y="1350" on="0"/>
        <pt x="93" y="1362" on="1"/>
        <pt x="93" y="1421" on="1"/>
      </contour>
      <contour>
        <pt x="34" y="1724" on="0"/>
        <pt x="102" y="1781" on="0"/>
        <pt x="177" y="1781" on="0"/>
        <pt x="221" y="1766" on="0"/>
        <pt x="237" y="1752" on="1"/>
        <pt x="272" y="1723" on="0"/>
        <pt x="272" y="1656" on="0"/>
        <pt x="253" y="1618" on="0"/>
        <pt x="237" y="1604" on="1"/>
        <pt x="203" y="1576" on="0"/>
        <pt x="102" y="1576" on="0"/>
        <pt x="34" y="1632" on="0"/>
      </contour>
      <contour>
        <pt x="454" y="1724" on="0"/>
        <pt x="522" y="1781" on="0"/>
        <pt x="623" y="1781" on="0"/>
        <pt x="691" y="1724" on="0"/>
        <pt x="691" y="1632" on="0"/>
        <pt x="623" y="1576" on="0"/>
        <pt x="522" y="1576" on="0"/>
        <pt x="454" y="1632" on="0"/>
      </contour>
    </TTGlyph>
    <TTGlyph name="Igrave" xMin="93" yMin="0" xMax="632" yMax="1892">
      <contour>
        <pt x="630" y="1421" on="1"/>
        <pt x="630" y="1362" on="1"/>
        <pt x="601" y="1350" on="0"/>
        <pt x="549" y="1336" on="0"/>
        <pt x="530" y="1325" on="1"/>
        <pt x="487" y="1301" on="0"/>
        <pt x="487" y="1237" on="1"/>
        <pt x="487" y="184" on="1"/>
        <pt x="487" y="120" on="0"/>
        <pt x="530" y="96" on="1"/>
        <pt x="550" y="85" on="0"/>
        <pt x="602" y="71" on="0"/>
        <pt x="632" y="59" on="1"/>
        <pt x="632" y="0" on="1"/>
        <pt x="93" y="0" on="1"/>
        <pt x="93" y="59" on="1"/>
        <pt x="122" y="71" on="0"/>
        <pt x="174" y="85" on="0"/>
        <pt x="194" y="96" on="1"/>
        <pt x="238" y="120" on="0"/>
        <pt x="238" y="184" on="1"/>
        <pt x="238" y="1237" on="1"/>
        <pt x="238" y="1301" on="0"/>
        <pt x="194" y="1325" on="1"/>
        <pt x="174" y="1336" on="0"/>
        <pt x="122" y="1350" on="0"/>
        <pt x="93" y="1362" on="1"/>
        <pt x="93" y="1421" on="1"/>
      </contour>
      <contour>
        <pt x="516" y="1542" on="1"/>
        <pt x="177" y="1742" on="1"/>
        <pt x="113" y="1779" on="0"/>
        <pt x="113" y="1822" on="1"/>
        <pt x="113" y="1865" on="0"/>
        <pt x="158" y="1886" on="1"/>
        <pt x="173" y="1892" on="0"/>
        <pt x="200" y="1892" on="1"/>
        <pt x="243" y="1892" on="0"/>
        <pt x="324" y="1816" on="1"/>
        <pt x="611" y="1542" on="1"/>
      </contour>
    </TTGlyph>
    <TTGlyph name="Itilde" xMin="7" yMin="0" xMax="718" yMax="1821">
      <component glyphName="I" x="0" y="0" flags="0x1204"/>
      <component glyphName="tilde" x="43" y="455" flags="0x1004"/>
    </TTGlyph>
    <TTGlyph name="J" xMin="21" yMin="-30" xMax="888" yMax="1421">
      <contour>
        <pt x="323" y="-30" on="1"/>
        <pt x="179" y="-24" on="0"/>
        <pt x="96" y="48" on="1"/>
        <pt x="21" y="114" on="0"/>
        <pt x="21" y="300" on="0"/>
        <pt x="100" y="383" on="0"/>
        <pt x="223" y="383" on="0"/>
        <pt x="290" y="316" on="0"/>
        <pt x="290" y="228" on="0"/>
        <pt x="272" y="188" on="0"/>
        <pt x="258" y="176" on="1"/>
        <pt x="243" y="162" on="0"/>
        <pt x="195" y="143" on="1"/>
        <pt x="197" y="105" on="0"/>
        <pt x="265" y="51" on="0"/>
        <pt x="323" y="46" on="1"/>
      </contour>
      <contour>
        <pt x="499" y="1243" on="1"/>
        <pt x="499" y="1303" on="0"/>
        <pt x="447" y="1326" on="1"/>
        <pt x="424" y="1336" on="0"/>
        <pt x="366" y="1350" on="0"/>
        <pt x="337" y="1362" on="1"/>
        <pt x="337" y="1421" on="1"/>
        <pt x="888" y="1421" on="1"/>
        <pt x="888" y="1362" on="1"/>
        <pt x="862" y="1350" on="0"/>
        <pt x="813" y="1336" on="0"/>
        <pt x="794" y="1326" on="1"/>
        <pt x="750" y="1304" on="0"/>
        <pt x="750" y="1243" on="1"/>
        <pt x="750" y="350" on="1"/>
        <pt x="750" y="166" on="0"/>
        <pt x="578" y="-17" on="0"/>
        <pt x="406" y="-29" on="1"/>
        <pt x="406" y="52" on="1"/>
        <pt x="458" y="66" on="0"/>
        <pt x="500" y="155" on="0"/>
        <pt x="500" y="238" on="1"/>
      </contour>
    </TTGlyph>
    <TTGlyph name="Jcircumflex" xMin="21" yMin="-30" xMax="952" yMax="1917">
      <component glyphName="circumflex" x="294" y="477" flags="0x1004"/>
      <component glyphName="J" x="0" y="0" flags="0x1204"/>
    </TTGlyph>
    <TTGlyph name="K" xMin="84" yMin="0" xMax="1375" yMax="1421">
      <contour>
        <pt x="556" y="808" on="1"/>
        <pt x="869" y="1184" on="1"/>
        <pt x="882" y="1199" on="0"/>
        <pt x="910" y="1229" on="0"/>
        <pt x="922" y="1243" on="1"/>
        <pt x="950" y="1276" on="0"/>
        <pt x="950" y="1311" on="0"/>
        <pt x="924" y="1328" on="0"/>
        <pt x="883" y="1339" on="0"/>
        <pt x="834" y="1348" on="0"/>
        <pt x="812" y="1360" on="1"/>
        <pt x="812" y="1421" on="1"/>
        <pt x="1303" y="1421" on="1"/>
        <pt x="1303" y="1360" on="1"/>
        <pt x="1288" y="1348" on="0"/>
        <pt x="1243" y="1335" on="0"/>
        <pt x="1214" y="1326" on="1"/>
        <pt x="1140" y="1302" on="0"/>
        <pt x="1085" y="1249" on="1"/>
        <pt x="760" y="864" on="1"/>
        <pt x="1204" y="172" on="1"/>
        <pt x="1236" y="116" on="0"/>
        <pt x="1289" y="94" on="1"/>
        <pt x="1311" y="85" on="0"/>
        <pt x="1354" y="73" on="0"/>
        <pt x="1375" y="61" on="1"/>
        <pt x="1375" y="0" on="1"/>
        <pt x="814" y="0" on="1"/>
        <pt x="814" y="61" on="1"/>
        <pt x="831" y="73" on="0"/>
        <pt x="875" y="84" on="0"/>
        <pt x="895" y="90" on="1"/>
        <pt x="943" y="104" on="0"/>
        <pt x="943" y="133" on="1"/>
        <pt x="943" y="153" on="0"/>
        <pt x="917" y="198" on="0"/>
        <pt x="895" y="236" on="1"/>
        <pt x="556" y="757" on="1"/>
      </contour>
      <contour>
        <pt x="473" y="223" on="1"/>
        <pt x="473" y="143" on="0"/>
        <pt x="496" y="117" on="1"/>
        <pt x="533" y="73" on="0"/>
        <pt x="612" y="59" on="1"/>
        <pt x="612" y="0" on="1"/>
        <pt x="84" y="0" on="1"/>
        <pt x="84" y="59" on="1"/>
        <pt x="111" y="71" on="0"/>
        <pt x="162" y="85" on="0"/>
        <pt x="182" y="96" on="1"/>
        <pt x="224" y="120" on="0"/>
        <pt x="224" y="184" on="1"/>
        <pt x="224" y="1194" on="1"/>
        <pt x="224" y="1273" on="0"/>
        <pt x="195" y="1317" on="0"/>
        <pt x="169" y="1329" on="0"/>
        <pt x="154" y="1334" on="1"/>
        <pt x="103" y="1348" on="0"/>
        <pt x="84" y="1362" on="1"/>
        <pt x="84" y="1421" on="1"/>
        <pt x="612" y="1421" on="1"/>
        <pt x="612" y="1362" on="1"/>
        <pt x="530" y="1346" on="0"/>
        <pt x="508" y="1319" on="1"/>
        <pt x="473" y="1276" on="0"/>
        <pt x="473" y="1196" on="1"/>
      </contour>
    </TTGlyph>
    <TTGlyph name="L" xMin="90" yMin="0" xMax="1096" yMax="1421">
      <contour>
        <pt x="90" y="0" on="1"/>
        <pt x="90" y="59" on="1"/>
        <pt x="108" y="71" on="0"/>
        <pt x="151" y="81" on="0"/>
        <pt x="170" y="88" on="1"/>
        <pt x="217" y="103" on="0"/>
        <pt x="223" y="143" on="1"/>
        <pt x="230" y="183" on="0"/>
        <pt x="230" y="246" on="1"/>
        <pt x="230" y="1176" on="1"/>
        <pt x="230" y="1293" on="0"/>
        <pt x="204" y="1314" on="1"/>
        <pt x="183" y="1331" on="0"/>
        <pt x="108" y="1350" on="0"/>
        <pt x="90" y="1362" on="1"/>
        <pt x="90" y="1421" on="1"/>
        <pt x="627" y="1421" on="1"/>
        <pt x="627" y="1362" on="1"/>
        <pt x="605" y="1350" on="0"/>
        <pt x="559" y="1339" on="0"/>
        <pt x="539" y="1332" on="1"/>
        <pt x="492" y="1315" on="0"/>
        <pt x="487" y="1278" on="1"/>
        <pt x="480" y="1238" on="0"/>
        <pt x="480" y="1178" on="1"/>
        <pt x="480" y="0" on="1"/>
      </contour>
      <contour>
        <pt x="563" y="83" on="1"/>
        <pt x="578" y="82" on="0"/>
        <pt x="594" y="82" on="1"/>
        <pt x="627" y="82" on="1"/>
        <pt x="815" y="82" on="0"/>
        <pt x="898" y="200" on="1"/>
        <pt x="935" y="254" on="0"/>
        <pt x="977" y="393" on="0"/>
        <pt x="986" y="418" on="1"/>
        <pt x="1005" y="472" on="0"/>
        <pt x="1033" y="508" on="1"/>
        <pt x="1096" y="508" on="1"/>
        <pt x="1096" y="0" on="1"/>
        <pt x="563" y="0" on="1"/>
      </contour>
    </TTGlyph>
    <TTGlyph name="Ldotaccent" xMin="90" yMin="0" xMax="1096" yMax="1421">
      <component glyphName="L" x="0" y="0" flags="0x1204"/>
      <component glyphName="periodcentered" x="570" y="330" flags="0x1004"/>
    </TTGlyph>
    <TTGlyph name="Lslash" xMin="19" yMin="0" xMax="1096" yMax="1421">
      <contour>
        <pt x="19" y="514" on="1"/>
        <pt x="19" y="616" on="1"/>
        <pt x="156" y="676" on="1"/>
        <pt x="156" y="574" on="1"/>
      </contour>
      <contour>
        <pt x="90" y="0" on="1"/>
        <pt x="90" y="59" on="1"/>
        <pt x="108" y="71" on="0"/>
        <pt x="151" y="81" on="0"/>
        <pt x="170" y="88" on="1"/>
        <pt x="217" y="103" on="0"/>
        <pt x="223" y="143" on="1"/>
        <pt x="230" y="183" on="0"/>
        <pt x="230" y="246" on="1"/>
        <pt x="230" y="1176" on="1"/>
        <pt x="230" y="1293" on="0"/>
        <pt x="204" y="1314" on="1"/>
        <pt x="183" y="1331" on="0"/>
        <pt x="108" y="1350" on="0"/>
        <pt x="90" y="1362" on="1"/>
        <pt x="90" y="1421" on="1"/>
        <pt x="627" y="1421" on="1"/>
        <pt x="627" y="1362" on="1"/>
        <pt x="605" y="1350" on="0"/>
        <pt x="559" y="1339" on="0"/>
        <pt x="539" y="1332" on="1"/>
        <pt x="492" y="1315" on="0"/>
        <pt x="487" y="1278" on="1"/>
        <pt x="480" y="1238" on="0"/>
        <pt x="480" y="1178" on="1"/>
        <pt x="480" y="0" on="1"/>
      </contour>
      <contour>
        <pt x="563" y="83" on="1"/>
        <pt x="578" y="82" on="0"/>
        <pt x="594" y="82" on="1"/>
        <pt x="627" y="82" on="1"/>
        <pt x="815" y="82" on="0"/>
        <pt x="898" y="200" on="1"/>
        <pt x="935" y="254" on="0"/>
        <pt x="977" y="393" on="0"/>
        <pt x="986" y="418" on="1"/>
        <pt x="1005" y="472" on="0"/>
        <pt x="1033" y="508" on="1"/>
        <pt x="1096" y="508" on="1"/>
        <pt x="1096" y="0" on="1"/>
        <pt x="563" y="0" on="1"/>
      </contour>
      <contour>
        <pt x="563" y="751" on="1"/>
        <pt x="563" y="853" on="1"/>
        <pt x="878" y="989" on="1"/>
        <pt x="878" y="887" on="1"/>
      </contour>
    </TTGlyph>
    <TTGlyph name="M" xMin="84" yMin="0" xMax="1629" yMax="1421">
      <contour>
        <pt x="904" y="512" on="1"/>
        <pt x="1173" y="1421" on="1"/>
        <pt x="1622" y="1421" on="1"/>
        <pt x="1622" y="1362" on="1"/>
        <pt x="1598" y="1350" on="0"/>
        <pt x="1550" y="1337" on="0"/>
        <pt x="1531" y="1328" on="1"/>
        <pt x="1489" y="1306" on="0"/>
        <pt x="1489" y="1253" on="1"/>
        <pt x="1489" y="184" on="1"/>
        <pt x="1489" y="122" on="0"/>
        <pt x="1532" y="98" on="1"/>
        <pt x="1551" y="87" on="0"/>
        <pt x="1601" y="71" on="0"/>
        <pt x="1629" y="59" on="1"/>
        <pt x="1629" y="0" on="1"/>
        <pt x="1106" y="0" on="1"/>
        <pt x="1106" y="59" on="1"/>
        <pt x="1130" y="71" on="0"/>
        <pt x="1177" y="87" on="0"/>
        <pt x="1196" y="98" on="1"/>
        <pt x="1239" y="123" on="0"/>
        <pt x="1239" y="184" on="1"/>
        <pt x="1239" y="1278" on="1"/>
        <pt x="1235" y="1278" on="1"/>
        <pt x="957" y="337" on="1"/>
      </contour>
      <contour>
        <pt x="338" y="1181" on="1"/>
        <pt x="338" y="213" on="1"/>
        <pt x="338" y="135" on="0"/>
        <pt x="384" y="103" on="1"/>
        <pt x="405" y="89" on="0"/>
        <pt x="458" y="72" on="0"/>
        <pt x="485" y="59" on="1"/>
        <pt x="485" y="0" on="1"/>
        <pt x="84" y="0" on="1"/>
        <pt x="84" y="59" on="1"/>
        <pt x="108" y="71" on="0"/>
        <pt x="158" y="86" on="0"/>
        <pt x="178" y="100" on="1"/>
        <pt x="224" y="131" on="0"/>
        <pt x="224" y="211" on="1"/>
        <pt x="224" y="1224" on="1"/>
      </contour>
      <contour>
        <pt x="342" y="1257" on="1"/>
        <pt x="131" y="1338" on="0"/>
        <pt x="84" y="1362" on="1"/>
        <pt x="84" y="1421" on="1"/>
        <pt x="535" y="1421" on="1"/>
        <pt x="918" y="206" on="1"/>
        <pt x="857" y="0" on="1"/>
        <pt x="739" y="0" on="1"/>
      </contour>
    </TTGlyph>
    <TTGlyph name="N" xMin="54" yMin="-8" xMax="1365" yMax="1423">
      <contour>
        <pt x="1101" y="532" on="1"/>
        <pt x="1101" y="1237" on="1"/>
        <pt x="1101" y="1291" on="0"/>
        <pt x="1051" y="1320" on="1"/>
        <pt x="1029" y="1332" on="0"/>
        <pt x="974" y="1352" on="0"/>
        <pt x="947" y="1364" on="1"/>
        <pt x="947" y="1423" on="1"/>
        <pt x="1365" y="1423" on="1"/>
        <pt x="1365" y="1364" on="1"/>
        <pt x="1340" y="1352" on="0"/>
        <pt x="1287" y="1332" on="0"/>
        <pt x="1266" y="1320" on="1"/>
        <pt x="1216" y="1291" on="0"/>
        <pt x="1216" y="1237" on="1"/>
        <pt x="1216" y="352" on="1"/>
      </contour>
      <contour>
        <pt x="326" y="1062" on="1"/>
        <pt x="326" y="186" on="1"/>
        <pt x="326" y="131" on="0"/>
        <pt x="378" y="104" on="1"/>
        <pt x="401" y="91" on="0"/>
        <pt x="462" y="71" on="0"/>
        <pt x="494" y="59" on="1"/>
        <pt x="494" y="0" on="1"/>
        <pt x="54" y="0" on="1"/>
        <pt x="54" y="59" on="1"/>
        <pt x="82" y="71" on="0"/>
        <pt x="138" y="91" on="0"/>
        <pt x="160" y="104" on="1"/>
        <pt x="211" y="132" on="0"/>
        <pt x="211" y="186" on="1"/>
        <pt x="211" y="1212" on="1"/>
      </contour>
      <contour>
        <pt x="330" y="1186" on="1"/>
        <pt x="223" y="1312" on="0"/>
        <pt x="116" y="1344" on="1"/>
        <pt x="88" y="1353" on="0"/>
        <pt x="61" y="1362" on="1"/>
        <pt x="61" y="1421" on="1"/>
        <pt x="451" y="1421" on="1"/>
        <pt x="1216" y="211" on="1"/>
        <pt x="1216" y="-8" on="1"/>
        <pt x="1069" y="-8" on="1"/>
      </contour>
    </TTGlyph>
    <TTGlyph name="Nacute" xMin="54" yMin="-8" xMax="1365" yMax="1901">
      <component glyphName="N" x="0" y="0" flags="0x1204"/>
      <component glyphName="acute" x="318" y="455" flags="0x1004"/>
    </TTGlyph>
    <TTGlyph name="Ntilde" xMin="54" yMin="-8" xMax="1365" yMax="1812">
      <contour>
        <pt x="1101" y="532" on="1"/>
        <pt x="1101" y="1237" on="1"/>
        <pt x="1101" y="1291" on="0"/>
        <pt x="1051" y="1320" on="1"/>
        <pt x="1029" y="1332" on="0"/>
        <pt x="974" y="1352" on="0"/>
        <pt x="947" y="1364" on="1"/>
        <pt x="947" y="1423" on="1"/>
        <pt x="1365" y="1423" on="1"/>
        <pt x="1365" y="1364" on="1"/>
        <pt x="1340" y="1352" on="0"/>
        <pt x="1287" y="1332" on="0"/>
        <pt x="1266" y="1320" on="1"/>
        <pt x="1216" y="1291" on="0"/>
        <pt x="1216" y="1237" on="1"/>
        <pt x="1216" y="352" on="1"/>
      </contour>
      <contour>
        <pt x="326" y="1062" on="1"/>
        <pt x="326" y="186" on="1"/>
        <pt x="326" y="131" on="0"/>
        <pt x="378" y="104" on="1"/>
        <pt x="401" y="91" on="0"/>
        <pt x="462" y="71" on="0"/>
        <pt x="494" y="59" on="1"/>
        <pt x="494" y="0" on="1"/>
        <pt x="54" y="0" on="1"/>
        <pt x="54" y="59" on="1"/>
        <pt x="82" y="71" on="0"/>
        <pt x="138" y="91" on="0"/>
        <pt x="160" y="104" on="1"/>
        <pt x="211" y="132" on="0"/>
        <pt x="211" y="186" on="1"/>
        <pt x="211" y="1212" on="1"/>
      </contour>
      <contour>
        <pt x="330" y="1186" on="1"/>
        <pt x="223" y="1312" on="0"/>
        <pt x="116" y="1344" on="1"/>
        <pt x="88" y="1353" on="0"/>
        <pt x="61" y="1362" on="1"/>
        <pt x="61" y="1421" on="1"/>
        <pt x="451" y="1421" on="1"/>
        <pt x="1216" y="211" on="1"/>
        <pt x="1216" y="-8" on="1"/>
        <pt x="1069" y="-8" on="1"/>
      </contour>
      <contour>
        <pt x="1070" y="1812" on="1"/>
        <pt x="1009" y="1595" on="0"/>
        <pt x="844" y="1595" on="1"/>
        <pt x="786" y="1595" on="0"/>
        <pt x="646" y="1662" on="0"/>
        <pt x="575" y="1693" on="0"/>
        <pt x="513" y="1693" on="0"/>
        <pt x="474" y="1675" on="0"/>
        <pt x="460" y="1660" on="1"/>
        <pt x="440" y="1638" on="0"/>
        <pt x="424" y="1591" on="1"/>
        <pt x="359" y="1591" on="1"/>
        <pt x="382" y="1697" on="0"/>
        <pt x="501" y="1802" on="0"/>
        <pt x="583" y="1802" on="1"/>
        <pt x="640" y="1802" on="0"/>
        <pt x="782" y="1734" on="0"/>
        <pt x="851" y="1703" on="0"/>
        <pt x="908" y="1703" on="0"/>
        <pt x="946" y="1720" on="0"/>
        <pt x="960" y="1734" on="1"/>
        <pt x="976" y="1751" on="0"/>
        <pt x="1005" y="1812" on="1"/>
      </contour>
    </TTGlyph>
    <TTGlyph name="O" xMin="86" yMin="-30" xMax="1341" yMax="1451">
      <contour>
        <pt x="671" y="-30" on="1"/>
        <pt x="415" y="-12" on="0"/>
        <pt x="248" y="202" on="1"/>
        <pt x="86" y="410" on="0"/>
        <pt x="86" y="711" on="1"/>
        <pt x="86" y="1010" on="0"/>
        <pt x="248" y="1218" on="1"/>
        <pt x="415" y="1432" on="0"/>
        <pt x="671" y="1450" on="1"/>
        <pt x="671" y="1368" on="1"/>
        <pt x="524" y="1353" on="0"/>
        <pt x="450" y="1212" on="1"/>
        <pt x="367" y="1050" on="0"/>
        <pt x="367" y="711" on="1"/>
        <pt x="367" y="213" on="0"/>
        <pt x="546" y="96" on="1"/>
        <pt x="602" y="60" on="0"/>
        <pt x="671" y="53" on="1"/>
      </contour>
      <contour>
        <pt x="754" y="53" on="1"/>
        <pt x="978" y="76" on="0"/>
        <pt x="1036" y="410" on="1"/>
        <pt x="1058" y="533" on="0"/>
        <pt x="1058" y="711" on="1"/>
        <pt x="1058" y="1207" on="0"/>
        <pt x="879" y="1324" on="1"/>
        <pt x="823" y="1360" on="0"/>
        <pt x="754" y="1368" on="1"/>
        <pt x="754" y="1451" on="1"/>
        <pt x="1012" y="1433" on="0"/>
        <pt x="1178" y="1220" on="1"/>
        <pt x="1341" y="1011" on="0"/>
        <pt x="1341" y="411" on="0"/>
        <pt x="1178" y="202" on="1"/>
        <pt x="1012" y="-11" on="0"/>
        <pt x="754" y="-29" on="1"/>
      </contour>
    </TTGlyph>
    <TTGlyph name="OE" xMin="80" yMin="-14" xMax="1962" yMax="1436">
      <contour>
        <pt x="710" y="68" on="1"/>
        <pt x="853" y="68" on="0"/>
        <pt x="927" y="136" on="1"/>
        <pt x="927" y="-6" on="1"/>
        <pt x="796" y="-14" on="0"/>
        <pt x="742" y="-14" on="1"/>
        <pt x="446" y="-14" on="0"/>
        <pt x="260" y="198" on="1"/>
        <pt x="80" y="403" on="0"/>
        <pt x="80" y="711" on="1"/>
        <pt x="80" y="1011" on="0"/>
        <pt x="256" y="1219" on="1"/>
        <pt x="438" y="1436" on="0"/>
        <pt x="725" y="1436" on="1"/>
        <pt x="755" y="1436" on="0"/>
        <pt x="818" y="1432" on="0"/>
        <pt x="850" y="1430" on="1"/>
        <pt x="927" y="1426" on="1"/>
        <pt x="927" y="1311" on="1"/>
        <pt x="849" y="1354" on="0"/>
        <pt x="710" y="1354" on="1"/>
        <pt x="522" y="1354" on="0"/>
        <pt x="352" y="1036" on="0"/>
        <pt x="352" y="711" on="1"/>
        <pt x="352" y="219" on="0"/>
        <pt x="548" y="107" on="1"/>
        <pt x="616" y="68" on="0"/>
      </contour>
      <contour>
        <pt x="1010" y="1423" on="1"/>
        <pt x="1056" y="1421" on="0"/>
        <pt x="1095" y="1421" on="1"/>
        <pt x="1259" y="1421" on="1"/>
        <pt x="1259" y="0" on="1"/>
        <pt x="1109" y="0" on="1"/>
        <pt x="1060" y="0" on="0"/>
        <pt x="1010" y="-2" on="1"/>
      </contour>
      <contour>
        <pt x="1342" y="85" on="1"/>
        <pt x="1370" y="82" on="0"/>
        <pt x="1501" y="82" on="0"/>
        <pt x="1639" y="103" on="0"/>
        <pt x="1688" y="129" on="1"/>
        <pt x="1779" y="177" on="0"/>
        <pt x="1821" y="313" on="1"/>
        <pt x="1831" y="344" on="0"/>
        <pt x="1845" y="398" on="0"/>
        <pt x="1852" y="421" on="1"/>
        <pt x="1868" y="470" on="0"/>
        <pt x="1897" y="500" on="1"/>
        <pt x="1962" y="500" on="1"/>
        <pt x="1962" y="0" on="1"/>
        <pt x="1342" y="0" on="1"/>
      </contour>
      <contour>
        <pt x="1634" y="1316" on="0"/>
        <pt x="1526" y="1339" on="0"/>
        <pt x="1370" y="1339" on="0"/>
        <pt x="1342" y="1335" on="1"/>
        <pt x="1342" y="1421" on="1"/>
        <pt x="1705" y="1421" on="1"/>
        <pt x="1746" y="1421" on="0"/>
        <pt x="1917" y="1436" on="1"/>
        <pt x="1917" y="946" on="1"/>
        <pt x="1848" y="946" on="1"/>
        <pt x="1811" y="983" on="0"/>
        <pt x="1782" y="1082" on="1"/>
        <pt x="1752" y="1184" on="0"/>
        <pt x="1705" y="1268" on="0"/>
      </contour>
      <contour>
        <pt x="1342" y="846" on="1"/>
        <pt x="1634" y="846" on="1"/>
        <pt x="1634" y="658" on="1"/>
        <pt x="1342" y="658" on="1"/>
      </contour>
    </TTGlyph>
    <TTGlyph name="Oacute" xMin="86" yMin="-30" xMax="1341" yMax="1892">
      <contour>
        <pt x="671" y="-30" on="1"/>
        <pt x="415" y="-12" on="0"/>
        <pt x="248" y="202" on="1"/>
        <pt x="86" y="410" on="0"/>
        <pt x="86" y="711" on="1"/>
        <pt x="86" y="1010" on="0"/>
        <pt x="248" y="1218" on="1"/>
        <pt x="415" y="1432" on="0"/>
        <pt x="671" y="1450" on="1"/>
        <pt x="671" y="1368" on="1"/>
        <pt x="524" y="1353" on="0"/>
        <pt x="450" y="1212" on="1"/>
        <pt x="367" y="1050" on="0"/>
        <pt x="367" y="711" on="1"/>
        <pt x="367" y="213" on="0"/>
        <pt x="546" y="96" on="1"/>
        <pt x="602" y="60" on="0"/>
        <pt x="671" y="53" on="1"/>
      </contour>
      <contour>
        <pt x="754" y="53" on="1"/>
        <pt x="978" y="76" on="0"/>
        <pt x="1036" y="410" on="1"/>
        <pt x="1058" y="533" on="0"/>
        <pt x="1058" y="711" on="1"/>
        <pt x="1058" y="1207" on="0"/>
        <pt x="879" y="1324" on="1"/>
        <pt x="823" y="1360" on="0"/>
        <pt x="754" y="1368" on="1"/>
        <pt x="754" y="1451" on="1"/>
        <pt x="1012" y="1433" on="0"/>
        <pt x="1178" y="1220" on="1"/>
        <pt x="1341" y="1011" on="0"/>
        <pt x="1341" y="411" on="0"/>
        <pt x="1178" y="202" on="1"/>
        <pt x="1012" y="-11" on="0"/>
        <pt x="754" y="-29" on="1"/>
      </contour>
      <contour>
        <pt x="465" y="1542" on="1"/>
        <pt x="752" y="1816" on="1"/>
        <pt x="784" y="1846" on="0"/>
        <pt x="847" y="1892" on="0"/>
        <pt x="902" y="1892" on="0"/>
        <pt x="933" y="1879" on="0"/>
        <pt x="943" y="1868" on="1"/>
        <pt x="964" y="1846" on="0"/>
        <pt x="964" y="1821" on="1"/>
        <pt x="964" y="1780" on="0"/>
        <pt x="900" y="1742" on="1"/>
        <pt x="560" y="1542" on="1"/>
      </contour>
    </TTGlyph>
    <TTGlyph name="Ocircumflex" xMin="86" yMin="-30" xMax="1341" yMax="1886">
      <contour>
        <pt x="671" y="-30" on="1"/>
        <pt x="415" y="-12" on="0"/>
        <pt x="248" y="202" on="1"/>
        <pt x="86" y="410" on="0"/>
        <pt x="86" y="711" on="1"/>
        <pt x="86" y="1010" on="0"/>
        <pt x="248" y="1218" on="1"/>
        <pt x="415" y="1432" on="0"/>
        <pt x="671" y="1450" on="1"/>
        <pt x="671" y="1368" on="1"/>
        <pt x="524" y="1353" on="0"/>
        <pt x="450" y="1212" on="1"/>
        <pt x="367" y="1050" on="0"/>
        <pt x="367" y="711" on="1"/>
        <pt x="367" y="213" on="0"/>
        <pt x="546" y="96" on="1"/>
        <pt x="602" y="60" on="0"/>
        <pt x="671" y="53" on="1"/>
      </contour>
      <contour>
        <pt x="754" y="53" on="1"/>
        <pt x="978" y="76" on="0"/>
        <pt x="1036" y="410" on="1"/>
        <pt x="1058" y="533" on="0"/>
        <pt x="1058" y="711" on="1"/>
        <pt x="1058" y="1207" on="0"/>
        <pt x="879" y="1324" on="1"/>
        <pt x="823" y="1360" on="0"/>
        <pt x="754" y="1368" on="1"/>
        <pt x="754" y="1451" on="1"/>
        <pt x="1012" y="1433" on="0"/>
        <pt x="1178" y="1220" on="1"/>
        <pt x="1341" y="1011" on="0"/>
        <pt x="1341" y="411" on="0"/>
        <pt x="1178" y="202" on="1"/>
        <pt x="1012" y="-11" on="0"/>
        <pt x="754" y="-29" on="1"/>
      </contour>
      <contour>
        <pt x="788" y="1886" on="1"/>
        <pt x="1054" y="1542" on="1"/>
        <pt x="967" y="1542" on="1"/>
        <pt x="714" y="1769" on="1"/>
        <pt x="460" y="1542" on="1"/>
        <pt x="375" y="1542" on="1"/>
        <pt x="638" y="1886" on="1"/>
      </contour>
    </TTGlyph>
    <TTGlyph name="Odieresis" xMin="86" yMin="-30" xMax="1341" yMax="1781">
      <contour>
        <pt x="671" y="-30" on="1"/>
        <pt x="415" y="-12" on="0"/>
        <pt x="248" y="202" on="1"/>
        <pt x="86" y="410" on="0"/>
        <pt x="86" y="711" on="1"/>
        <pt x="86" y="1010" on="0"/>
        <pt x="248" y="1218" on="1"/>
        <pt x="415" y="1432" on="0"/>
        <pt x="671" y="1450" on="1"/>
        <pt x="671" y="1368" on="1"/>
        <pt x="524" y="1353" on="0"/>
        <pt x="450" y="1212" on="1"/>
        <pt x="367" y="1050" on="0"/>
        <pt x="367" y="711" on="1"/>
        <pt x="367" y="213" on="0"/>
        <pt x="546" y="96" on="1"/>
        <pt x="602" y="60" on="0"/>
        <pt x="671" y="53" on="1"/>
      </contour>
      <contour>
        <pt x="754" y="53" on="1"/>
        <pt x="978" y="76" on="0"/>
        <pt x="1036" y="410" on="1"/>
        <pt x="1058" y="533" on="0"/>
        <pt x="1058" y="711" on="1"/>
        <pt x="1058" y="1207" on="0"/>
        <pt x="879" y="1324" on="1"/>
        <pt x="823" y="1360" on="0"/>
        <pt x="754" y="1368" on="1"/>
        <pt x="754" y="1451" on="1"/>
        <pt x="1012" y="1433" on="0"/>
        <pt x="1178" y="1220" on="1"/>
        <pt x="1341" y="1011" on="0"/>
        <pt x="1341" y="411" on="0"/>
        <pt x="1178" y="202" on="1"/>
        <pt x="1012" y="-11" on="0"/>
        <pt x="754" y="-29" on="1"/>
      </contour>
      <contour>
        <pt x="386" y="1724" on="0"/>
        <pt x="454" y="1781" on="0"/>
        <pt x="529" y="1781" on="0"/>
        <pt x="573" y="1766" on="0"/>
        <pt x="589" y="1752" on="1"/>
        <pt x="624" y="1723" on="0"/>
        <pt x="624" y="1656" on="0"/>
        <pt x="605" y="1618" on="0"/>
        <pt x="589" y="1604" on="1"/>
        <pt x="555" y="1576" on="0"/>
        <pt x="454" y="1576" on="0"/>
        <pt x="386" y="1632" on="0"/>
      </contour>
      <contour>
        <pt x="806" y="1724" on="0"/>
        <pt x="874" y="1781" on="0"/>
        <pt x="975" y="1781" on="0"/>
        <pt x="1043" y="1724" on="0"/>
        <pt x="1043" y="1632" on="0"/>
        <pt x="975" y="1576" on="0"/>
        <pt x="874" y="1576" on="0"/>
        <pt x="806" y="1632" on="0"/>
      </contour>
    </TTGlyph>
    <TTGlyph name="Ograve" xMin="86" yMin="-30" xMax="1341" yMax="1892">
      <contour>
        <pt x="671" y="-30" on="1"/>
        <pt x="415" y="-12" on="0"/>
        <pt x="248" y="202" on="1"/>
        <pt x="86" y="410" on="0"/>
        <pt x="86" y="711" on="1"/>
        <pt x="86" y="1010" on="0"/>
        <pt x="248" y="1218" on="1"/>
        <pt x="415" y="1432" on="0"/>
        <pt x="671" y="1450" on="1"/>
        <pt x="671" y="1368" on="1"/>
        <pt x="524" y="1353" on="0"/>
        <pt x="450" y="1212" on="1"/>
        <pt x="367" y="1050" on="0"/>
        <pt x="367" y="711" on="1"/>
        <pt x="367" y="213" on="0"/>
        <pt x="546" y="96" on="1"/>
        <pt x="602" y="60" on="0"/>
        <pt x="671" y="53" on="1"/>
      </contour>
      <contour>
        <pt x="754" y="53" on="1"/>
        <pt x="978" y="76" on="0"/>
        <pt x="1036" y="410" on="1"/>
        <pt x="1058" y="533" on="0"/>
        <pt x="1058" y="711" on="1"/>
        <pt x="1058" y="1207" on="0"/>
        <pt x="879" y="1324" on="1"/>
        <pt x="823" y="1360" on="0"/>
        <pt x="754" y="1368" on="1"/>
        <pt x="754" y="1451" on="1"/>
        <pt x="1012" y="1433" on="0"/>
        <pt x="1178" y="1220" on="1"/>
        <pt x="1341" y="1011" on="0"/>
        <pt x="1341" y="411" on="0"/>
        <pt x="1178" y="202" on="1"/>
        <pt x="1012" y="-11" on="0"/>
        <pt x="754" y="-29" on="1"/>
      </contour>
      <contour>
        <pt x="868" y="1542" on="1"/>
        <pt x="529" y="1742" on="1"/>
        <pt x="465" y="1779" on="0"/>
        <pt x="465" y="1822" on="1"/>
        <pt x="465" y="1865" on="0"/>
        <pt x="510" y="1886" on="1"/>
        <pt x="525" y="1892" on="0"/>
        <pt x="552" y="1892" on="1"/>
        <pt x="595" y="1892" on="0"/>
        <pt x="676" y="1816" on="1"/>
        <pt x="963" y="1542" on="1"/>
      </contour>
    </TTGlyph>
    <TTGlyph name="Omega" xMin="61" yMin="0" xMax="1314" yMax="1450">
      <contour>
        <pt x="465" y="147" on="1"/>
        <pt x="123" y="456" on="0"/>
        <pt x="123" y="811" on="1"/>
        <pt x="123" y="1099" on="0"/>
        <pt x="289" y="1278" on="1"/>
        <pt x="449" y="1450" on="0"/>
        <pt x="694" y="1450" on="1"/>
        <pt x="935" y="1450" on="0"/>
        <pt x="1091" y="1282" on="1"/>
        <pt x="1251" y="1109" on="0"/>
        <pt x="1251" y="821" on="1"/>
        <pt x="1251" y="533" on="0"/>
        <pt x="1016" y="269" on="1"/>
        <pt x="954" y="200" on="0"/>
        <pt x="902" y="147" on="1"/>
        <pt x="1106" y="147" on="1"/>
        <pt x="1170" y="147" on="0"/>
        <pt x="1189" y="166" on="1"/>
        <pt x="1223" y="198" on="0"/>
        <pt x="1251" y="291" on="1"/>
        <pt x="1314" y="289" on="1"/>
        <pt x="1268" y="0" on="1"/>
        <pt x="807" y="0" on="1"/>
        <pt x="791" y="31" on="1"/>
        <pt x="823" y="109" on="0"/>
        <pt x="903" y="293" on="0"/>
        <pt x="938" y="393" on="1"/>
        <pt x="1021" y="630" on="0"/>
        <pt x="1021" y="962" on="0"/>
        <pt x="965" y="1184" on="0"/>
        <pt x="918" y="1254" on="1"/>
        <pt x="830" y="1386" on="0"/>
        <pt x="687" y="1386" on="1"/>
        <pt x="453" y="1386" on="0"/>
        <pt x="382" y="1077" on="1"/>
        <pt x="356" y="964" on="0"/>
        <pt x="356" y="696" on="0"/>
        <pt x="398" y="493" on="0"/>
        <pt x="431" y="396" on="1"/>
        <pt x="480" y="250" on="0"/>
        <pt x="582" y="33" on="1"/>
        <pt x="563" y="0" on="1"/>
        <pt x="104" y="0" on="1"/>
        <pt x="61" y="289" on="1"/>
        <pt x="123" y="291" on="1"/>
        <pt x="150" y="201" on="0"/>
        <pt x="175" y="179" on="1"/>
        <pt x="213" y="147" on="0"/>
        <pt x="274" y="147" on="1"/>
      </contour>
    </TTGlyph>
    <TTGlyph name="Oslash" xMin="86" yMin="-139" xMax="1341" yMax="1546">
      <contour>
        <pt x="455" y="202" on="1"/>
        <pt x="530" y="68" on="0"/>
        <pt x="671" y="53" on="1"/>
        <pt x="671" y="-30" on="1"/>
        <pt x="507" y="-18" on="0"/>
        <pt x="377" y="75" on="1"/>
        <pt x="247" y="-139" on="1"/>
        <pt x="131" y="-139" on="1"/>
        <pt x="301" y="141" on="1"/>
        <pt x="199" y="244" on="0"/>
        <pt x="86" y="537" on="0"/>
        <pt x="86" y="858" on="0"/>
        <pt x="171" y="1119" on="0"/>
        <pt x="248" y="1218" on="1"/>
        <pt x="415" y="1432" on="0"/>
        <pt x="671" y="1450" on="1"/>
        <pt x="671" y="1368" on="1"/>
        <pt x="524" y="1353" on="0"/>
        <pt x="450" y="1212" on="1"/>
        <pt x="367" y="1050" on="0"/>
        <pt x="367" y="711" on="1"/>
        <pt x="367" y="471" on="0"/>
        <pt x="409" y="318" on="1"/>
        <pt x="963" y="1229" on="1"/>
        <pt x="892" y="1351" on="0"/>
        <pt x="754" y="1368" on="1"/>
        <pt x="754" y="1451" on="1"/>
        <pt x="909" y="1439" on="0"/>
        <pt x="1038" y="1352" on="1"/>
        <pt x="1156" y="1546" on="1"/>
        <pt x="1273" y="1546" on="1"/>
        <pt x="1116" y="1289" on="1"/>
        <pt x="1222" y="1186" on="0"/>
        <pt x="1341" y="887" on="0"/>
        <pt x="1341" y="563" on="0"/>
        <pt x="1256" y="302" on="0"/>
        <pt x="1178" y="202" on="1"/>
        <pt x="1012" y="-11" on="0"/>
        <pt x="754" y="-29" on="1"/>
        <pt x="754" y="53" on="1"/>
        <pt x="978" y="76" on="0"/>
        <pt x="1036" y="410" on="1"/>
        <pt x="1058" y="533" on="0"/>
        <pt x="1058" y="688" on="1"/>
        <pt x="1058" y="964" on="0"/>
        <pt x="1011" y="1117" on="1"/>
      </contour>
    </TTGlyph>
    <TTGlyph name="Otilde" xMin="86" yMin="-30" xMax="1341" yMax="1812">
      <contour>
        <pt x="671" y="-30" on="1"/>
        <pt x="415" y="-12" on="0"/>
        <pt x="248" y="202" on="1"/>
        <pt x="86" y="410" on="0"/>
        <pt x="86" y="711" on="1"/>
        <pt x="86" y="1010" on="0"/>
        <pt x="248" y="1218" on="1"/>
        <pt x="415" y="1432" on="0"/>
        <pt x="671" y="1450" on="1"/>
        <pt x="671" y="1368" on="1"/>
        <pt x="524" y="1353" on="0"/>
        <pt x="450" y="1212" on="1"/>
        <pt x="367" y="1050" on="0"/>
        <pt x="367" y="711" on="1"/>
        <pt x="367" y="213" on="0"/>
        <pt x="546" y="96" on="1"/>
        <pt x="602" y="60" on="0"/>
        <pt x="671" y="53" on="1"/>
      </contour>
      <contour>
        <pt x="754" y="53" on="1"/>
        <pt x="978" y="76" on="0"/>
        <pt x="1036" y="410" on="1"/>
        <pt x="1058" y="533" on="0"/>
        <pt x="1058" y="711" on="1"/>
        <pt x="1058" y="1207" on="0"/>
        <pt x="879" y="1324" on="1"/>
        <pt x="823" y="1360" on="0"/>
        <pt x="754" y="1368" on="1"/>
        <pt x="754" y="1451" on="1"/>
        <pt x="1012" y="1433" on="0"/>
        <pt x="1178" y="1220" on="1"/>
        <pt x="1341" y="1011" on="0"/>
        <pt x="1341" y="411" on="0"/>
        <pt x="1178" y="202" on="1"/>
        <pt x="1012" y="-11" on="0"/>
        <pt x="754" y="-29" on="1"/>
      </contour>
      <contour>
        <pt x="1070" y="1812" on="1"/>
        <pt x="1009" y="1595" on="0"/>
        <pt x="844" y="1595" on="1"/>
        <pt x="786" y="1595" on="0"/>
        <pt x="646" y="1662" on="0"/>
        <pt x="575" y="1693" on="0"/>
        <pt x="513" y="1693" on="0"/>
        <pt x="474" y="1675" on="0"/>
        <pt x="460" y="1660" on="1"/>
        <pt x="440" y="1638" on="0"/>
        <pt x="424" y="1591" on="1"/>
        <pt x="359" y="1591" on="1"/>
        <pt x="382" y="1697" on="0"/>
        <pt x="501" y="1802" on="0"/>
        <pt x="583" y="1802" on="1"/>
        <pt x="640" y="1802" on="0"/>
        <pt x="782" y="1734" on="0"/>
        <pt x="851" y="1703" on="0"/>
        <pt x="908" y="1703" on="0"/>
        <pt x="946" y="1720" on="0"/>
        <pt x="960" y="1734" on="1"/>
        <pt x="976" y="1751" on="0"/>
        <pt x="1005" y="1812" on="1"/>
      </contour>
    </TTGlyph>
    <TTGlyph name="P" xMin="90" yMin="0" xMax="1199" yMax="1421">
      <contour>
        <pt x="917" y="1049" on="1"/>
        <pt x="917" y="1346" on="0"/>
        <pt x="641" y="1346" on="1"/>
        <pt x="597" y="1346" on="0"/>
        <pt x="563" y="1340" on="1"/>
        <pt x="563" y="1421" on="1"/>
        <pt x="650" y="1421" on="1"/>
        <pt x="1042" y="1421" on="0"/>
        <pt x="1158" y="1217" on="1"/>
        <pt x="1199" y="1146" on="0"/>
        <pt x="1199" y="967" on="0"/>
        <pt x="1134" y="829" on="0"/>
        <pt x="1069" y="778" on="1"/>
        <pt x="929" y="668" on="0"/>
        <pt x="679" y="668" on="1"/>
        <pt x="563" y="668" on="1"/>
        <pt x="563" y="743" on="1"/>
        <pt x="745" y="743" on="0"/>
        <pt x="828" y="808" on="1"/>
        <pt x="917" y="880" on="0"/>
      </contour>
      <contour>
        <pt x="480" y="238" on="1"/>
        <pt x="480" y="169" on="0"/>
        <pt x="491" y="120" on="0"/>
        <pt x="525" y="95" on="0"/>
        <pt x="573" y="82" on="0"/>
        <pt x="629" y="71" on="0"/>
        <pt x="655" y="59" on="1"/>
        <pt x="655" y="0" on="1"/>
        <pt x="90" y="0" on="1"/>
        <pt x="90" y="59" on="1"/>
        <pt x="107" y="71" on="0"/>
        <pt x="150" y="81" on="0"/>
        <pt x="170" y="88" on="1"/>
        <pt x="218" y="103" on="0"/>
        <pt x="230" y="186" on="0"/>
        <pt x="230" y="240" on="1"/>
        <pt x="230" y="1182" on="1"/>
        <pt x="230" y="1293" on="0"/>
        <pt x="204" y="1314" on="1"/>
        <pt x="183" y="1331" on="0"/>
        <pt x="108" y="1350" on="0"/>
        <pt x="90" y="1362" on="1"/>
        <pt x="90" y="1421" on="1"/>
        <pt x="480" y="1421" on="1"/>
      </contour>
    </TTGlyph>
    <TTGlyph name="Q" xMin="86" yMin="-343" xMax="1449" yMax="1451">
      <contour>
        <pt x="754" y="53" on="1"/>
        <pt x="978" y="76" on="0"/>
        <pt x="1036" y="410" on="1"/>
        <pt x="1058" y="533" on="0"/>
        <pt x="1058" y="711" on="1"/>
        <pt x="1058" y="1207" on="0"/>
        <pt x="879" y="1324" on="1"/>
        <pt x="823" y="1360" on="0"/>
        <pt x="754" y="1368" on="1"/>
        <pt x="754" y="1451" on="1"/>
        <pt x="1012" y="1433" on="0"/>
        <pt x="1178" y="1220" on="1"/>
        <pt x="1341" y="1011" on="0"/>
        <pt x="1341" y="711" on="1"/>
        <pt x="1341" y="456" on="0"/>
        <pt x="1220" y="262" on="1"/>
        <pt x="1098" y="66" on="0"/>
        <pt x="896" y="0" on="1"/>
        <pt x="966" y="-39" on="0"/>
        <pt x="1077" y="-110" on="0"/>
        <pt x="1120" y="-137" on="1"/>
        <pt x="1214" y="-195" on="0"/>
        <pt x="1287" y="-195" on="0"/>
        <pt x="1319" y="-186" on="0"/>
        <pt x="1343" y="-170" on="0"/>
        <pt x="1364" y="-149" on="0"/>
        <pt x="1378" y="-138" on="1"/>
        <pt x="1449" y="-203" on="1"/>
        <pt x="1390" y="-298" on="0"/>
        <pt x="1280" y="-331" on="1"/>
        <pt x="1239" y="-343" on="0"/>
        <pt x="1106" y="-343" on="0"/>
        <pt x="975" y="-280" on="0"/>
        <pt x="872" y="-186" on="0"/>
        <pt x="790" y="-76" on="0"/>
        <pt x="754" y="-29" on="1"/>
      </contour>
      <contour>
        <pt x="671" y="-30" on="1"/>
        <pt x="415" y="-12" on="0"/>
        <pt x="248" y="202" on="1"/>
        <pt x="86" y="410" on="0"/>
        <pt x="86" y="711" on="1"/>
        <pt x="86" y="1010" on="0"/>
        <pt x="248" y="1218" on="1"/>
        <pt x="415" y="1432" on="0"/>
        <pt x="671" y="1450" on="1"/>
        <pt x="671" y="1368" on="1"/>
        <pt x="524" y="1353" on="0"/>
        <pt x="450" y="1212" on="1"/>
        <pt x="367" y="1050" on="0"/>
        <pt x="367" y="711" on="1"/>
        <pt x="367" y="213" on="0"/>
        <pt x="546" y="96" on="1"/>
        <pt x="602" y="60" on="0"/>
        <pt x="671" y="53" on="1"/>
      </contour>
    </TTGlyph>
    <TTGlyph name="R" xMin="90" yMin="-16" xMax="1317" yMax="1421">
      <contour>
        <pt x="600" y="1421" on="1"/>
        <pt x="1187" y="1421" on="0"/>
        <pt x="1187" y="1067" on="1"/>
        <pt x="1187" y="923" on="0"/>
        <pt x="1081" y="827" on="1"/>
        <pt x="970" y="727" on="0"/>
        <pt x="779" y="719" on="1"/>
        <pt x="779" y="715" on="1"/>
        <pt x="883" y="690" on="0"/>
        <pt x="940" y="610" on="1"/>
        <pt x="970" y="568" on="0"/>
        <pt x="1042" y="385" on="0"/>
        <pt x="1084" y="278" on="0"/>
        <pt x="1105" y="235" on="1"/>
        <pt x="1152" y="138" on="0"/>
        <pt x="1188" y="138" on="1"/>
        <pt x="1203" y="138" on="0"/>
        <pt x="1225" y="165" on="0"/>
        <pt x="1236" y="182" on="1"/>
        <pt x="1267" y="225" on="0"/>
        <pt x="1292" y="225" on="1"/>
        <pt x="1295" y="225" on="0"/>
        <pt x="1317" y="214" on="0"/>
        <pt x="1317" y="182" on="0"/>
        <pt x="1310" y="164" on="1"/>
        <pt x="1253" y="73" on="0"/>
        <pt x="1224" y="45" on="1"/>
        <pt x="1162" y="-16" on="0"/>
        <pt x="1011" y="-16" on="0"/>
        <pt x="922" y="32" on="0"/>
        <pt x="862" y="113" on="0"/>
        <pt x="825" y="219" on="0"/>
        <pt x="796" y="335" on="0"/>
        <pt x="768" y="453" on="0"/>
        <pt x="747" y="506" on="1"/>
        <pt x="699" y="625" on="0"/>
        <pt x="614" y="667" on="1"/>
        <pt x="593" y="678" on="0"/>
        <pt x="563" y="690" on="1"/>
        <pt x="563" y="772" on="1"/>
        <pt x="846" y="772" on="0"/>
        <pt x="906" y="931" on="1"/>
        <pt x="926" y="986" on="0"/>
        <pt x="926" y="1061" on="1"/>
        <pt x="926" y="1196" on="0"/>
        <pt x="768" y="1346" on="0"/>
        <pt x="605" y="1346" on="1"/>
        <pt x="576" y="1346" on="0"/>
        <pt x="563" y="1343" on="1"/>
        <pt x="563" y="1421" on="1"/>
      </contour>
      <contour>
        <pt x="480" y="238" on="1"/>
        <pt x="480" y="172" on="0"/>
        <pt x="488" y="118" on="0"/>
        <pt x="517" y="94" on="0"/>
        <pt x="557" y="81" on="0"/>
        <pt x="601" y="71" on="0"/>
        <pt x="620" y="59" on="1"/>
        <pt x="620" y="0" on="1"/>
        <pt x="90" y="0" on="1"/>
        <pt x="90" y="59" on="1"/>
        <pt x="105" y="71" on="0"/>
        <pt x="147" y="81" on="0"/>
        <pt x="168" y="88" on="1"/>
        <pt x="218" y="103" on="0"/>
        <pt x="230" y="186" on="0"/>
        <pt x="230" y="240" on="1"/>
        <pt x="230" y="1182" on="1"/>
        <pt x="230" y="1293" on="0"/>
        <pt x="204" y="1314" on="1"/>
        <pt x="183" y="1331" on="0"/>
        <pt x="108" y="1350" on="0"/>
        <pt x="90" y="1362" on="1"/>
        <pt x="90" y="1421" on="1"/>
        <pt x="480" y="1421" on="1"/>
      </contour>
    </TTGlyph>
    <TTGlyph name="Racute" xMin="90" yMin="-16" xMax="1317" yMax="1901">
      <component glyphName="R" x="0" y="0" flags="0x1204"/>
      <component glyphName="acute" x="274" y="455" flags="0x1004"/>
    </TTGlyph>
    <TTGlyph name="Rcaron" xMin="90" yMin="-16" xMax="1317" yMax="1895">
      <component glyphName="R" x="0" y="0" flags="0x1204"/>
      <component glyphName="caron" x="352" y="455" flags="0x1004"/>
    </TTGlyph>
    <TTGlyph name="Rcommaaccent" xMin="90" yMin="-808" xMax="1317" yMax="1421">
      <component glyphName="R" x="0" y="0" flags="0x1204"/>
      <component glyphName="commaaccent" x="435" y="0" flags="0x1004"/>
    </TTGlyph>
    <TTGlyph name="S" xMin="107" yMin="-30" xMax="1069" yMax="1451">
      <contour>
        <pt x="592" y="1449" on="1"/>
        <pt x="666" y="1442" on="0"/>
        <pt x="771" y="1388" on="0"/>
        <pt x="810" y="1366" on="0"/>
        <pt x="837" y="1366" on="0"/>
        <pt x="855" y="1378" on="0"/>
        <pt x="869" y="1394" on="0"/>
        <pt x="879" y="1413" on="0"/>
        <pt x="884" y="1421" on="1"/>
        <pt x="976" y="1421" on="1"/>
        <pt x="976" y="952" on="1"/>
        <pt x="904" y="952" on="1"/>
        <pt x="882" y="975" on="0"/>
        <pt x="826" y="1130" on="0"/>
        <pt x="787" y="1222" on="0"/>
        <pt x="758" y="1262" on="1"/>
        <pt x="694" y="1351" on="0"/>
        <pt x="592" y="1367" on="1"/>
      </contour>
      <contour>
        <pt x="330" y="32" on="0"/>
        <pt x="282" y="55" on="0"/>
        <pt x="231" y="55" on="0"/>
        <pt x="200" y="0" on="1"/>
        <pt x="107" y="0" on="1"/>
        <pt x="107" y="494" on="1"/>
        <pt x="176" y="494" on="1"/>
        <pt x="198" y="471" on="0"/>
        <pt x="233" y="391" on="0"/>
        <pt x="272" y="298" on="0"/>
        <pt x="318" y="200" on="0"/>
        <pt x="351" y="158" on="1"/>
        <pt x="425" y="65" on="0"/>
        <pt x="539" y="53" on="1"/>
        <pt x="539" y="-29" on="1"/>
        <pt x="449" y="-21" on="0"/>
      </contour>
      <contour>
        <pt x="622" y="54" on="1"/>
        <pt x="730" y="67" on="0"/>
        <pt x="789" y="142" on="1"/>
        <pt x="841" y="209" on="0"/>
        <pt x="841" y="382" on="0"/>
        <pt x="779" y="487" on="0"/>
        <pt x="678" y="568" on="0"/>
        <pt x="548" y="634" on="0"/>
        <pt x="413" y="699" on="0"/>
        <pt x="284" y="770" on="0"/>
        <pt x="234" y="816" on="1"/>
        <pt x="121" y="920" on="0"/>
        <pt x="121" y="1069" on="1"/>
        <pt x="121" y="1220" on="0"/>
        <pt x="224" y="1327" on="1"/>
        <pt x="334" y="1439" on="0"/>
        <pt x="509" y="1451" on="1"/>
        <pt x="509" y="1368" on="1"/>
        <pt x="385" y="1352" on="0"/>
        <pt x="342" y="1241" on="1"/>
        <pt x="328" y="1205" on="0"/>
        <pt x="328" y="1097" on="0"/>
        <pt x="392" y="1003" on="0"/>
        <pt x="496" y="929" on="0"/>
        <pt x="629" y="867" on="0"/>
        <pt x="768" y="803" on="0"/>
        <pt x="901" y="729" on="0"/>
        <pt x="953" y="680" on="1"/>
        <pt x="1069" y="569" on="0"/>
        <pt x="1069" y="412" on="1"/>
        <pt x="1069" y="242" on="0"/>
        <pt x="946" y="116" on="1"/>
        <pt x="817" y="-18" on="0"/>
        <pt x="622" y="-30" on="1"/>
      </contour>
    </TTGlyph>
    <TTGlyph name="Scaron" xMin="107" yMin="-30" xMax="1069" yMax="1886">
      <contour>
        <pt x="592" y="1449" on="1"/>
        <pt x="666" y="1442" on="0"/>
        <pt x="771" y="1388" on="0"/>
        <pt x="810" y="1366" on="0"/>
        <pt x="837" y="1366" on="0"/>
        <pt x="855" y="1378" on="0"/>
        <pt x="869" y="1394" on="0"/>
        <pt x="879" y="1413" on="0"/>
        <pt x="884" y="1421" on="1"/>
        <pt x="976" y="1421" on="1"/>
        <pt x="976" y="952" on="1"/>
        <pt x="904" y="952" on="1"/>
        <pt x="882" y="975" on="0"/>
        <pt x="826" y="1130" on="0"/>
        <pt x="787" y="1222" on="0"/>
        <pt x="758" y="1262" on="1"/>
        <pt x="694" y="1351" on="0"/>
        <pt x="592" y="1367" on="1"/>
      </contour>
      <contour>
        <pt x="330" y="32" on="0"/>
        <pt x="282" y="55" on="0"/>
        <pt x="231" y="55" on="0"/>
        <pt x="200" y="0" on="1"/>
        <pt x="107" y="0" on="1"/>
        <pt x="107" y="494" on="1"/>
        <pt x="176" y="494" on="1"/>
        <pt x="198" y="471" on="0"/>
        <pt x="233" y="391" on="0"/>
        <pt x="272" y="298" on="0"/>
        <pt x="318" y="200" on="0"/>
        <pt x="351" y="158" on="1"/>
        <pt x="425" y="65" on="0"/>
        <pt x="539" y="53" on="1"/>
        <pt x="539" y="-29" on="1"/>
        <pt x="449" y="-21" on="0"/>
      </contour>
      <contour>
        <pt x="622" y="54" on="1"/>
        <pt x="730" y="67" on="0"/>
        <pt x="789" y="142" on="1"/>
        <pt x="841" y="209" on="0"/>
        <pt x="841" y="382" on="0"/>
        <pt x="779" y="487" on="0"/>
        <pt x="678" y="568" on="0"/>
        <pt x="548" y="634" on="0"/>
        <pt x="413" y="699" on="0"/>
        <pt x="284" y="770" on="0"/>
        <pt x="234" y="816" on="1"/>
        <pt x="121" y="920" on="0"/>
        <pt x="121" y="1069" on="1"/>
        <pt x="121" y="1220" on="0"/>
        <pt x="224" y="1327" on="1"/>
        <pt x="334" y="1439" on="0"/>
        <pt x="509" y="1451" on="1"/>
        <pt x="509" y="1368" on="1"/>
        <pt x="385" y="1352" on="0"/>
        <pt x="342" y="1241" on="1"/>
        <pt x="328" y="1205" on="0"/>
        <pt x="328" y="1097" on="0"/>
        <pt x="392" y="1003" on="0"/>
        <pt x="496" y="929" on="0"/>
        <pt x="629" y="867" on="0"/>
        <pt x="768" y="803" on="0"/>
        <pt x="901" y="729" on="0"/>
        <pt x="953" y="680" on="1"/>
        <pt x="1069" y="569" on="0"/>
        <pt x="1069" y="412" on="1"/>
        <pt x="1069" y="242" on="0"/>
        <pt x="946" y="116" on="1"/>
        <pt x="817" y="-18" on="0"/>
        <pt x="622" y="-30" on="1"/>
      </contour>
      <contour>
        <pt x="505" y="1542" on="1"/>
        <pt x="242" y="1886" on="1"/>
        <pt x="327" y="1886" on="1"/>
        <pt x="581" y="1658" on="1"/>
        <pt x="836" y="1886" on="1"/>
        <pt x="921" y="1886" on="1"/>
        <pt x="655" y="1542" on="1"/>
      </contour>
    </TTGlyph>
    <TTGlyph name="T" xMin="34" yMin="0" xMax="1151" yMax="1436">
      <contour>
        <pt x="717" y="1421" on="1"/>
        <pt x="717" y="229" on="1"/>
        <pt x="717" y="150" on="0"/>
        <pt x="751" y="105" on="0"/>
        <pt x="780" y="92" on="0"/>
        <pt x="798" y="88" on="1"/>
        <pt x="849" y="75" on="0"/>
        <pt x="875" y="59" on="1"/>
        <pt x="875" y="0" on="1"/>
        <pt x="313" y="0" on="1"/>
        <pt x="313" y="59" on="1"/>
        <pt x="335" y="73" on="0"/>
        <pt x="406" y="92" on="0"/>
        <pt x="435" y="104" on="0"/>
        <pt x="446" y="118" on="1"/>
        <pt x="467" y="148" on="0"/>
        <pt x="467" y="229" on="1"/>
        <pt x="467" y="1421" on="1"/>
      </contour>
      <contour>
        <pt x="1014" y="1421" on="1"/>
        <pt x="1055" y="1421" on="0"/>
        <pt x="1151" y="1436" on="1"/>
        <pt x="1151" y="963" on="1"/>
        <pt x="1083" y="963" on="1"/>
        <pt x="1069" y="1001" on="0"/>
        <pt x="1048" y="1086" on="0"/>
        <pt x="1022" y="1169" on="0"/>
        <pt x="988" y="1246" on="0"/>
        <pt x="961" y="1275" on="1"/>
        <pt x="901" y="1339" on="0"/>
        <pt x="800" y="1339" on="1"/>
        <pt x="800" y="1421" on="1"/>
      </contour>
      <contour>
        <pt x="36" y="1436" on="1"/>
        <pt x="84" y="1421" on="0"/>
        <pt x="109" y="1421" on="1"/>
        <pt x="384" y="1421" on="1"/>
        <pt x="384" y="1339" on="1"/>
        <pt x="240" y="1339" on="0"/>
        <pt x="180" y="1206" on="1"/>
        <pt x="151" y="1143" on="0"/>
        <pt x="117" y="1000" on="0"/>
        <pt x="104" y="963" on="1"/>
        <pt x="34" y="963" on="1"/>
        <pt x="34" y="1434" on="1"/>
      </contour>
    </TTGlyph>
    <TTGlyph name="Thorn" xMin="91" yMin="0" xMax="1200" yMax="1421">
      <contour>
        <pt x="481" y="219" on="1"/>
        <pt x="481" y="169" on="0"/>
        <pt x="516" y="119" on="1"/>
        <pt x="533" y="96" on="0"/>
        <pt x="566" y="88" on="1"/>
        <pt x="634" y="72" on="0"/>
        <pt x="649" y="59" on="1"/>
        <pt x="649" y="0" on="1"/>
        <pt x="91" y="0" on="1"/>
        <pt x="91" y="59" on="1"/>
        <pt x="118" y="71" on="0"/>
        <pt x="169" y="85" on="0"/>
        <pt x="188" y="96" on="1"/>
        <pt x="231" y="120" on="0"/>
        <pt x="231" y="184" on="1"/>
        <pt x="231" y="1194" on="1"/>
        <pt x="231" y="1253" on="0"/>
        <pt x="223" y="1302" on="0"/>
        <pt x="193" y="1325" on="0"/>
        <pt x="154" y="1339" on="0"/>
        <pt x="110" y="1350" on="0"/>
        <pt x="91" y="1362" on="1"/>
        <pt x="91" y="1421" on="1"/>
        <pt x="621" y="1421" on="1"/>
        <pt x="621" y="1362" on="1"/>
        <pt x="597" y="1346" on="0"/>
        <pt x="536" y="1330" on="0"/>
        <pt x="510" y="1318" on="0"/>
        <pt x="500" y="1304" on="1"/>
        <pt x="481" y="1277" on="0"/>
        <pt x="481" y="1200" on="1"/>
      </contour>
      <contour>
        <pt x="644" y="1038" on="1"/>
        <pt x="600" y="1038" on="0"/>
        <pt x="564" y="1032" on="1"/>
        <pt x="564" y="1113" on="1"/>
        <pt x="662" y="1113" on="1"/>
        <pt x="1066" y="1113" on="0"/>
        <pt x="1168" y="894" on="1"/>
        <pt x="1200" y="825" on="0"/>
        <pt x="1200" y="659" on="0"/>
        <pt x="1136" y="521" on="0"/>
        <pt x="1071" y="470" on="1"/>
        <pt x="931" y="360" on="0"/>
        <pt x="680" y="360" on="1"/>
        <pt x="564" y="360" on="1"/>
        <pt x="564" y="436" on="1"/>
        <pt x="574" y="436" on="1"/>
        <pt x="749" y="436" on="0"/>
        <pt x="830" y="501" on="1"/>
        <pt x="918" y="572" on="0"/>
        <pt x="918" y="741" on="1"/>
        <pt x="918" y="1038" on="0"/>
      </contour>
    </TTGlyph>
    <TTGlyph name="U" xMin="64" yMin="-31" xMax="1358" yMax="1421">
      <contour>
        <pt x="793" y="52" on="1"/>
        <pt x="1003" y="61" on="0"/>
        <pt x="1068" y="216" on="1"/>
        <pt x="1090" y="267" on="0"/>
        <pt x="1090" y="334" on="1"/>
        <pt x="1090" y="1225" on="1"/>
        <pt x="1090" y="1308" on="0"/>
        <pt x="992" y="1341" on="1"/>
        <pt x="965" y="1350" on="0"/>
        <pt x="938" y="1362" on="1"/>
        <pt x="938" y="1421" on="1"/>
        <pt x="1358" y="1421" on="1"/>
        <pt x="1358" y="1362" on="1"/>
        <pt x="1331" y="1350" on="0"/>
        <pt x="1276" y="1332" on="0"/>
        <pt x="1254" y="1318" on="1"/>
        <pt x="1204" y="1288" on="0"/>
        <pt x="1204" y="1225" on="1"/>
        <pt x="1204" y="365" on="1"/>
        <pt x="1204" y="1" on="0"/>
        <pt x="793" y="-28" on="1"/>
      </contour>
      <contour>
        <pt x="710" y="-31" on="1"/>
        <pt x="336" y="-31" on="0"/>
        <pt x="234" y="202" on="1"/>
        <pt x="200" y="279" on="0"/>
        <pt x="200" y="379" on="1"/>
        <pt x="200" y="1237" on="1"/>
        <pt x="200" y="1301" on="0"/>
        <pt x="161" y="1325" on="1"/>
        <pt x="143" y="1336" on="0"/>
        <pt x="93" y="1350" on="0"/>
        <pt x="64" y="1362" on="1"/>
        <pt x="64" y="1421" on="1"/>
        <pt x="587" y="1421" on="1"/>
        <pt x="587" y="1362" on="1"/>
        <pt x="557" y="1350" on="0"/>
        <pt x="507" y="1336" on="0"/>
        <pt x="488" y="1325" on="1"/>
        <pt x="449" y="1302" on="0"/>
        <pt x="449" y="1237" on="1"/>
        <pt x="449" y="332" on="1"/>
        <pt x="449" y="215" on="0"/>
        <pt x="520" y="140" on="1"/>
        <pt x="588" y="68" on="0"/>
        <pt x="710" y="54" on="1"/>
      </contour>
    </TTGlyph>
    <TTGlyph name="Uacute" xMin="64" yMin="-31" xMax="1358" yMax="1892">
      <contour>
        <pt x="793" y="52" on="1"/>
        <pt x="1003" y="61" on="0"/>
        <pt x="1068" y="216" on="1"/>
        <pt x="1090" y="267" on="0"/>
        <pt x="1090" y="334" on="1"/>
        <pt x="1090" y="1225" on="1"/>
        <pt x="1090" y="1308" on="0"/>
        <pt x="992" y="1341" on="1"/>
        <pt x="965" y="1350" on="0"/>
        <pt x="938" y="1362" on="1"/>
        <pt x="938" y="1421" on="1"/>
        <pt x="1358" y="1421" on="1"/>
        <pt x="1358" y="1362" on="1"/>
        <pt x="1331" y="1350" on="0"/>
        <pt x="1276" y="1332" on="0"/>
        <pt x="1254" y="1318" on="1"/>
        <pt x="1204" y="1288" on="0"/>
        <pt x="1204" y="1225" on="1"/>
        <pt x="1204" y="365" on="1"/>
        <pt x="1204" y="1" on="0"/>
        <pt x="793" y="-28" on="1"/>
      </contour>
      <contour>
        <pt x="710" y="-31" on="1"/>
        <pt x="336" y="-31" on="0"/>
        <pt x="234" y="202" on="1"/>
        <pt x="200" y="279" on="0"/>
        <pt x="200" y="379" on="1"/>
        <pt x="200" y="1237" on="1"/>
        <pt x="200" y="1301" on="0"/>
        <pt x="161" y="1325" on="1"/>
        <pt x="143" y="1336" on="0"/>
        <pt x="93" y="1350" on="0"/>
        <pt x="64" y="1362" on="1"/>
        <pt x="64" y="1421" on="1"/>
        <pt x="587" y="1421" on="1"/>
        <pt x="587" y="1362" on="1"/>
        <pt x="557" y="1350" on="0"/>
        <pt x="507" y="1336" on="0"/>
        <pt x="488" y="1325" on="1"/>
        <pt x="449" y="1302" on="0"/>
        <pt x="449" y="1237" on="1"/>
        <pt x="449" y="332" on="1"/>
        <pt x="449" y="215" on="0"/>
        <pt x="520" y="140" on="1"/>
        <pt x="588" y="68" on="0"/>
        <pt x="710" y="54" on="1"/>
      </contour>
      <contour>
        <pt x="453" y="1542" on="1"/>
        <pt x="740" y="1816" on="1"/>
        <pt x="772" y="1846" on="0"/>
        <pt x="835" y="1892" on="0"/>
        <pt x="890" y="1892" on="0"/>
        <pt x="921" y="1879" on="0"/>
        <pt x="931" y="1868" on="1"/>
        <pt x="952" y="1846" on="0"/>
        <pt x="952" y="1821" on="1"/>
        <pt x="952" y="1780" on="0"/>
        <pt x="888" y="1742" on="1"/>
        <pt x="548" y="1542" on="1"/>
      </contour>
    </TTGlyph>
    <TTGlyph name="Ucircumflex" xMin="64" yMin="-31" xMax="1358" yMax="1886">
      <contour>
        <pt x="793" y="52" on="1"/>
        <pt x="1003" y="61" on="0"/>
        <pt x="1068" y="216" on="1"/>
        <pt x="1090" y="267" on="0"/>
        <pt x="1090" y="334" on="1"/>
        <pt x="1090" y="1225" on="1"/>
        <pt x="1090" y="1308" on="0"/>
        <pt x="992" y="1341" on="1"/>
        <pt x="965" y="1350" on="0"/>
        <pt x="938" y="1362" on="1"/>
        <pt x="938" y="1421" on="1"/>
        <pt x="1358" y="1421" on="1"/>
        <pt x="1358" y="1362" on="1"/>
        <pt x="1331" y="1350" on="0"/>
        <pt x="1276" y="1332" on="0"/>
        <pt x="1254" y="1318" on="1"/>
        <pt x="1204" y="1288" on="0"/>
        <pt x="1204" y="1225" on="1"/>
        <pt x="1204" y="365" on="1"/>
        <pt x="1204" y="1" on="0"/>
        <pt x="793" y="-28" on="1"/>
      </contour>
      <contour>
        <pt x="710" y="-31" on="1"/>
        <pt x="336" y="-31" on="0"/>
        <pt x="234" y="202" on="1"/>
        <pt x="200" y="279" on="0"/>
        <pt x="200" y="379" on="1"/>
        <pt x="200" y="1237" on="1"/>
        <pt x="200" y="1301" on="0"/>
        <pt x="161" y="1325" on="1"/>
        <pt x="143" y="1336" on="0"/>
        <pt x="93" y="1350" on="0"/>
        <pt x="64" y="1362" on="1"/>
        <pt x="64" y="1421" on="1"/>
        <pt x="587" y="1421" on="1"/>
        <pt x="587" y="1362" on="1"/>
        <pt x="557" y="1350" on="0"/>
        <pt x="507" y="1336" on="0"/>
        <pt x="488" y="1325" on="1"/>
        <pt x="449" y="1302" on="0"/>
        <pt x="449" y="1237" on="1"/>
        <pt x="449" y="332" on="1"/>
        <pt x="449" y="215" on="0"/>
        <pt x="520" y="140" on="1"/>
        <pt x="588" y="68" on="0"/>
        <pt x="710" y="54" on="1"/>
      </contour>
      <contour>
        <pt x="776" y="1886" on="1"/>
        <pt x="1042" y="1542" on="1"/>
        <pt x="955" y="1542" on="1"/>
        <pt x="702" y="1769" on="1"/>
        <pt x="448" y="1542" on="1"/>
        <pt x="363" y="1542" on="1"/>
        <pt x="626" y="1886" on="1"/>
      </contour>
    </TTGlyph>
    <TTGlyph name="Udieresis" xMin="64" yMin="-31" xMax="1358" yMax="1781">
      <contour>
        <pt x="793" y="52" on="1"/>
        <pt x="1003" y="61" on="0"/>
        <pt x="1068" y="216" on="1"/>
        <pt x="1090" y="267" on="0"/>
        <pt x="1090" y="334" on="1"/>
        <pt x="1090" y="1225" on="1"/>
        <pt x="1090" y="1308" on="0"/>
        <pt x="992" y="1341" on="1"/>
        <pt x="965" y="1350" on="0"/>
        <pt x="938" y="1362" on="1"/>
        <pt x="938" y="1421" on="1"/>
        <pt x="1358" y="1421" on="1"/>
        <pt x="1358" y="1362" on="1"/>
        <pt x="1331" y="1350" on="0"/>
        <pt x="1276" y="1332" on="0"/>
        <pt x="1254" y="1318" on="1"/>
        <pt x="1204" y="1288" on="0"/>
        <pt x="1204" y="1225" on="1"/>
        <pt x="1204" y="365" on="1"/>
        <pt x="1204" y="1" on="0"/>
        <pt x="793" y="-28" on="1"/>
      </contour>
      <contour>
        <pt x="710" y="-31" on="1"/>
        <pt x="336" y="-31" on="0"/>
        <pt x="234" y="202" on="1"/>
        <pt x="200" y="279" on="0"/>
        <pt x="200" y="379" on="1"/>
        <pt x="200" y="1237" on="1"/>
        <pt x="200" y="1301" on="0"/>
        <pt x="161" y="1325" on="1"/>
        <pt x="143" y="1336" on="0"/>
        <pt x="93" y="1350" on="0"/>
        <pt x="64" y="1362" on="1"/>
        <pt x="64" y="1421" on="1"/>
        <pt x="587" y="1421" on="1"/>
        <pt x="587" y="1362" on="1"/>
        <pt x="557" y="1350" on="0"/>
        <pt x="507" y="1336" on="0"/>
        <pt x="488" y="1325" on="1"/>
        <pt x="449" y="1302" on="0"/>
        <pt x="449" y="1237" on="1"/>
        <pt x="449" y="332" on="1"/>
        <pt x="449" y="215" on="0"/>
        <pt x="520" y="140" on="1"/>
        <pt x="588" y="68" on="0"/>
        <pt x="710" y="54" on="1"/>
      </contour>
      <contour>
        <pt x="374" y="1724" on="0"/>
        <pt x="442" y="1781" on="0"/>
        <pt x="517" y="1781" on="0"/>
        <pt x="561" y="1766" on="0"/>
        <pt x="577" y="1752" on="1"/>
        <pt x="612" y="1723" on="0"/>
        <pt x="612" y="1656" on="0"/>
        <pt x="593" y="1618" on="0"/>
        <pt x="577" y="1604" on="1"/>
        <pt x="543" y="1576" on="0"/>
        <pt x="442" y="1576" on="0"/>
        <pt x="374" y="1632" on="0"/>
      </contour>
      <contour>
        <pt x="794" y="1724" on="0"/>
        <pt x="862" y="1781" on="0"/>
        <pt x="963" y="1781" on="0"/>
        <pt x="1031" y="1724" on="0"/>
        <pt x="1031" y="1632" on="0"/>
        <pt x="963" y="1576" on="0"/>
        <pt x="862" y="1576" on="0"/>
        <pt x="794" y="1632" on="0"/>
      </contour>
    </TTGlyph>
    <TTGlyph name="Ugrave" xMin="64" yMin="-31" xMax="1358" yMax="1892">
      <contour>
        <pt x="793" y="52" on="1"/>
        <pt x="1003" y="61" on="0"/>
        <pt x="1068" y="216" on="1"/>
        <pt x="1090" y="267" on="0"/>
        <pt x="1090" y="334" on="1"/>
        <pt x="1090" y="1225" on="1"/>
        <pt x="1090" y="1308" on="0"/>
        <pt x="992" y="1341" on="1"/>
        <pt x="965" y="1350" on="0"/>
        <pt x="938" y="1362" on="1"/>
        <pt x="938" y="1421" on="1"/>
        <pt x="1358" y="1421" on="1"/>
        <pt x="1358" y="1362" on="1"/>
        <pt x="1331" y="1350" on="0"/>
        <pt x="1276" y="1332" on="0"/>
        <pt x="1254" y="1318" on="1"/>
        <pt x="1204" y="1288" on="0"/>
        <pt x="1204" y="1225" on="1"/>
        <pt x="1204" y="365" on="1"/>
        <pt x="1204" y="1" on="0"/>
        <pt x="793" y="-28" on="1"/>
      </contour>
      <contour>
        <pt x="710" y="-31" on="1"/>
        <pt x="336" y="-31" on="0"/>
        <pt x="234" y="202" on="1"/>
        <pt x="200" y="279" on="0"/>
        <pt x="200" y="379" on="1"/>
        <pt x="200" y="1237" on="1"/>
        <pt x="200" y="1301" on="0"/>
        <pt x="161" y="1325" on="1"/>
        <pt x="143" y="1336" on="0"/>
        <pt x="93" y="1350" on="0"/>
        <pt x="64" y="1362" on="1"/>
        <pt x="64" y="1421" on="1"/>
        <pt x="587" y="1421" on="1"/>
        <pt x="587" y="1362" on="1"/>
        <pt x="557" y="1350" on="0"/>
        <pt x="507" y="1336" on="0"/>
        <pt x="488" y="1325" on="1"/>
        <pt x="449" y="1302" on="0"/>
        <pt x="449" y="1237" on="1"/>
        <pt x="449" y="332" on="1"/>
        <pt x="449" y="215" on="0"/>
        <pt x="520" y="140" on="1"/>
        <pt x="588" y="68" on="0"/>
        <pt x="710" y="54" on="1"/>
      </contour>
      <contour>
        <pt x="856" y="1542" on="1"/>
        <pt x="517" y="1742" on="1"/>
        <pt x="453" y="1779" on="0"/>
        <pt x="453" y="1822" on="1"/>
        <pt x="453" y="1865" on="0"/>
        <pt x="498" y="1886" on="1"/>
        <pt x="513" y="1892" on="0"/>
        <pt x="540" y="1892" on="1"/>
        <pt x="583" y="1892" on="0"/>
        <pt x="664" y="1816" on="1"/>
        <pt x="951" y="1542" on="1"/>
      </contour>
    </TTGlyph>
    <TTGlyph name="V" xMin="-27" yMin="-23" xMax="1232" yMax="1421">
      <contour>
        <pt x="701" y="427" on="1"/>
        <pt x="701" y="435" on="0"/>
        <pt x="761" y="605" on="0"/>
        <pt x="808" y="739" on="0"/>
        <pt x="857" y="881" on="0"/>
        <pt x="904" y="1023" on="0"/>
        <pt x="922" y="1084" on="1"/>
        <pt x="964" y="1221" on="0"/>
        <pt x="964" y="1292" on="0"/>
        <pt x="939" y="1321" on="0"/>
        <pt x="901" y="1333" on="0"/>
        <pt x="857" y="1343" on="0"/>
        <pt x="838" y="1358" on="1"/>
        <pt x="838" y="1421" on="1"/>
        <pt x="1232" y="1421" on="1"/>
        <pt x="1232" y="1358" on="1"/>
        <pt x="1216" y="1348" on="0"/>
        <pt x="1178" y="1334" on="0"/>
        <pt x="1158" y="1324" on="1"/>
        <pt x="1112" y="1299" on="0"/>
        <pt x="1092" y="1243" on="1"/>
        <pt x="750" y="257" on="1"/>
      </contour>
      <contour>
        <pt x="715" y="156" on="1"/>
        <pt x="653" y="-23" on="1"/>
        <pt x="530" y="-23" on="1"/>
        <pt x="101" y="1270" on="1"/>
        <pt x="84" y="1318" on="0"/>
        <pt x="14" y="1340" on="1"/>
        <pt x="-6" y="1347" on="0"/>
        <pt x="-27" y="1358" on="1"/>
        <pt x="-27" y="1421" on="1"/>
        <pt x="489" y="1421" on="1"/>
        <pt x="489" y="1358" on="1"/>
        <pt x="464" y="1348" on="0"/>
        <pt x="416" y="1336" on="0"/>
        <pt x="398" y="1328" on="1"/>
        <pt x="356" y="1312" on="0"/>
        <pt x="356" y="1253" on="0"/>
        <pt x="379" y="1191" on="0"/>
        <pt x="392" y="1151" on="1"/>
      </contour>
    </TTGlyph>
    <TTGlyph name="W" xMin="-23" yMin="-23" xMax="1765" yMax="1421">
      <contour>
        <pt x="1294" y="470" on="1"/>
        <pt x="1335" y="605" on="0"/>
        <pt x="1438" y="968" on="0"/>
        <pt x="1478" y="1108" on="0"/>
        <pt x="1511" y="1221" on="0"/>
        <pt x="1511" y="1291" on="0"/>
        <pt x="1488" y="1321" on="0"/>
        <pt x="1451" y="1338" on="0"/>
        <pt x="1405" y="1349" on="0"/>
        <pt x="1382" y="1358" on="1"/>
        <pt x="1382" y="1421" on="1"/>
        <pt x="1765" y="1421" on="1"/>
        <pt x="1765" y="1358" on="1"/>
        <pt x="1751" y="1348" on="0"/>
        <pt x="1716" y="1336" on="0"/>
        <pt x="1699" y="1328" on="1"/>
        <pt x="1657" y="1310" on="0"/>
        <pt x="1644" y="1282" on="1"/>
        <pt x="1627" y="1243" on="0"/>
        <pt x="1608" y="1178" on="1"/>
        <pt x="1346" y="292" on="1"/>
      </contour>
      <contour>
        <pt x="1309" y="168" on="1"/>
        <pt x="1253" y="-23" on="1"/>
        <pt x="1128" y="-23" on="1"/>
        <pt x="857" y="897" on="1"/>
        <pt x="852" y="897" on="1"/>
        <pt x="676" y="277" on="1"/>
        <pt x="625" y="462" on="1"/>
        <pt x="767" y="954" on="1"/>
        <pt x="778" y="993" on="0"/>
        <pt x="798" y="1051" on="0"/>
        <pt x="802" y="1077" on="1"/>
        <pt x="785" y="1176" on="0"/>
        <pt x="735" y="1301" on="0"/>
        <pt x="706" y="1324" on="0"/>
        <pt x="674" y="1338" on="0"/>
        <pt x="642" y="1348" on="0"/>
        <pt x="630" y="1358" on="1"/>
        <pt x="630" y="1421" on="1"/>
        <pt x="1106" y="1421" on="1"/>
        <pt x="1106" y="1358" on="1"/>
        <pt x="1087" y="1349" on="0"/>
        <pt x="1045" y="1339" on="0"/>
        <pt x="1027" y="1332" on="1"/>
        <pt x="985" y="1316" on="0"/>
        <pt x="985" y="1258" on="0"/>
        <pt x="1004" y="1198" on="0"/>
        <pt x="1018" y="1153" on="1"/>
      </contour>
      <contour>
        <pt x="641" y="153" on="1"/>
        <pt x="591" y="-23" on="1"/>
        <pt x="460" y="-23" on="1"/>
        <pt x="102" y="1214" on="1"/>
        <pt x="72" y="1311" on="0"/>
        <pt x="47" y="1324" on="1"/>
        <pt x="35" y="1331" on="0"/>
        <pt x="22" y="1336" on="1"/>
        <pt x="-15" y="1348" on="0"/>
        <pt x="-23" y="1358" on="1"/>
        <pt x="-23" y="1421" on="1"/>
        <pt x="444" y="1421" on="1"/>
        <pt x="444" y="1358" on="1"/>
        <pt x="426" y="1348" on="0"/>
        <pt x="385" y="1337" on="0"/>
        <pt x="368" y="1330" on="1"/>
        <pt x="326" y="1313" on="0"/>
        <pt x="326" y="1254" on="0"/>
        <pt x="346" y="1196" on="0"/>
        <pt x="356" y="1161" on="1"/>
      </contour>
    </TTGlyph>
    <TTGlyph name="X" xMin="-23" yMin="0" xMax="1253" yMax="1421">
      <contour>
        <pt x="699" y="961" on="1"/>
        <pt x="749" y="1034" on="0"/>
        <pt x="822" y="1140" on="0"/>
        <pt x="846" y="1178" on="1"/>
        <pt x="893" y="1254" on="0"/>
        <pt x="893" y="1308" on="0"/>
        <pt x="871" y="1328" on="0"/>
        <pt x="836" y="1340" on="0"/>
        <pt x="793" y="1349" on="0"/>
        <pt x="772" y="1358" on="1"/>
        <pt x="772" y="1421" on="1"/>
        <pt x="1216" y="1421" on="1"/>
        <pt x="1216" y="1358" on="1"/>
        <pt x="1196" y="1346" on="0"/>
        <pt x="1155" y="1336" on="1"/>
        <pt x="1085" y="1320" on="0"/>
        <pt x="1060" y="1294" on="1"/>
        <pt x="973" y="1199" on="0"/>
        <pt x="829" y="975" on="1"/>
        <pt x="793" y="919" on="0"/>
        <pt x="754" y="862" on="1"/>
      </contour>
      <contour>
        <pt x="535" y="555" on="1"/>
        <pt x="480" y="472" on="0"/>
        <pt x="400" y="354" on="0"/>
        <pt x="346" y="272" on="0"/>
        <pt x="313" y="220" on="0"/>
        <pt x="304" y="203" on="1"/>
        <pt x="289" y="175" on="0"/>
        <pt x="289" y="119" on="0"/>
        <pt x="313" y="94" on="0"/>
        <pt x="350" y="84" on="0"/>
        <pt x="397" y="77" on="0"/>
        <pt x="420" y="61" on="1"/>
        <pt x="420" y="0" on="1"/>
        <pt x="-23" y="0" on="1"/>
        <pt x="-23" y="61" on="1"/>
        <pt x="-6" y="75" on="0"/>
        <pt x="28" y="85" on="1"/>
        <pt x="94" y="102" on="0"/>
        <pt x="113" y="123" on="1"/>
        <pt x="151" y="165" on="0"/>
        <pt x="169" y="192" on="1"/>
        <pt x="472" y="654" on="1"/>
      </contour>
      <contour>
        <pt x="194" y="1231" on="1"/>
        <pt x="183" y="1250" on="0"/>
        <pt x="158" y="1282" on="0"/>
        <pt x="147" y="1298" on="1"/>
        <pt x="129" y="1321" on="0"/>
        <pt x="64" y="1338" on="0"/>
        <pt x="24" y="1348" on="0"/>
        <pt x="7" y="1358" on="1"/>
        <pt x="7" y="1421" on="1"/>
        <pt x="539" y="1421" on="1"/>
        <pt x="539" y="1364" on="1"/>
        <pt x="519" y="1353" on="0"/>
        <pt x="481" y="1341" on="0"/>
        <pt x="465" y="1335" on="1"/>
        <pt x="430" y="1322" on="0"/>
        <pt x="430" y="1294" on="1"/>
        <pt x="430" y="1275" on="0"/>
        <pt x="456" y="1232" on="1"/>
        <pt x="1027" y="278" on="1"/>
        <pt x="1053" y="233" on="0"/>
        <pt x="1134" y="122" on="0"/>
        <pt x="1173" y="96" on="0"/>
        <pt x="1208" y="82" on="0"/>
        <pt x="1240" y="72" on="0"/>
        <pt x="1253" y="61" on="1"/>
        <pt x="1253" y="0" on="1"/>
        <pt x="707" y="0" on="1"/>
        <pt x="707" y="61" on="1"/>
        <pt x="728" y="72" on="0"/>
        <pt x="775" y="81" on="0"/>
        <pt x="795" y="87" on="1"/>
        <pt x="841" y="101" on="0"/>
        <pt x="841" y="137" on="1"/>
        <pt x="841" y="159" on="0"/>
        <pt x="801" y="223" on="1"/>
      </contour>
    </TTGlyph>
    <TTGlyph name="Y" xMin="-31" yMin="0" xMax="1230" yMax="1421">
      <contour>
        <pt x="709" y="792" on="1"/>
        <pt x="903" y="1170" on="0"/>
        <pt x="917" y="1206" on="1"/>
        <pt x="934" y="1251" on="0"/>
        <pt x="934" y="1296" on="0"/>
        <pt x="908" y="1323" on="0"/>
        <pt x="869" y="1338" on="0"/>
        <pt x="821" y="1349" on="0"/>
        <pt x="800" y="1358" on="1"/>
        <pt x="800" y="1421" on="1"/>
        <pt x="1230" y="1421" on="1"/>
        <pt x="1230" y="1358" on="1"/>
        <pt x="1214" y="1346" on="0"/>
        <pt x="1134" y="1321" on="0"/>
        <pt x="1097" y="1302" on="0"/>
        <pt x="1043" y="1221" on="0"/>
        <pt x="963" y="1076" on="0"/>
        <pt x="885" y="921" on="0"/>
        <pt x="808" y="762" on="0"/>
        <pt x="769" y="685" on="1"/>
      </contour>
      <contour>
        <pt x="727" y="603" on="1"/>
        <pt x="717" y="588" on="1"/>
        <pt x="717" y="231" on="1"/>
        <pt x="717" y="118" on="0"/>
        <pt x="771" y="96" on="1"/>
        <pt x="787" y="90" on="0"/>
        <pt x="805" y="86" on="1"/>
        <pt x="860" y="72" on="0"/>
        <pt x="879" y="59" on="1"/>
        <pt x="879" y="0" on="1"/>
        <pt x="306" y="0" on="1"/>
        <pt x="306" y="59" on="1"/>
        <pt x="328" y="73" on="0"/>
        <pt x="399" y="89" on="0"/>
        <pt x="431" y="102" on="0"/>
        <pt x="442" y="118" on="1"/>
        <pt x="467" y="151" on="0"/>
        <pt x="467" y="236" on="1"/>
        <pt x="467" y="592" on="1"/>
        <pt x="120" y="1257" on="1"/>
        <pt x="91" y="1313" on="0"/>
        <pt x="8" y="1341" on="1"/>
        <pt x="-12" y="1348" on="0"/>
        <pt x="-31" y="1358" on="1"/>
        <pt x="-31" y="1421" on="1"/>
        <pt x="528" y="1421" on="1"/>
        <pt x="528" y="1358" on="1"/>
        <pt x="504" y="1348" on="0"/>
        <pt x="455" y="1338" on="0"/>
        <pt x="436" y="1332" on="1"/>
        <pt x="392" y="1317" on="0"/>
        <pt x="392" y="1282" on="1"/>
        <pt x="392" y="1256" on="0"/>
        <pt x="454" y="1135" on="0"/>
        <pt x="515" y="1016" on="0"/>
        <pt x="606" y="840" on="0"/>
        <pt x="670" y="715" on="1"/>
      </contour>
    </TTGlyph>
    <TTGlyph name="Yacute" xMin="-31" yMin="0" xMax="1230" yMax="1892">
      <contour>
        <pt x="709" y="792" on="1"/>
        <pt x="903" y="1170" on="0"/>
        <pt x="917" y="1206" on="1"/>
        <pt x="934" y="1251" on="0"/>
        <pt x="934" y="1296" on="0"/>
        <pt x="908" y="1323" on="0"/>
        <pt x="869" y="1338" on="0"/>
        <pt x="821" y="1349" on="0"/>
        <pt x="800" y="1358" on="1"/>
        <pt x="800" y="1421" on="1"/>
        <pt x="1230" y="1421" on="1"/>
        <pt x="1230" y="1358" on="1"/>
        <pt x="1214" y="1346" on="0"/>
        <pt x="1134" y="1321" on="0"/>
        <pt x="1097" y="1302" on="0"/>
        <pt x="1043" y="1221" on="0"/>
        <pt x="963" y="1076" on="0"/>
        <pt x="885" y="921" on="0"/>
        <pt x="808" y="762" on="0"/>
        <pt x="769" y="685" on="1"/>
      </contour>
      <contour>
        <pt x="727" y="603" on="1"/>
        <pt x="717" y="588" on="1"/>
        <pt x="717" y="231" on="1"/>
        <pt x="717" y="118" on="0"/>
        <pt x="771" y="96" on="1"/>
        <pt x="787" y="90" on="0"/>
        <pt x="805" y="86" on="1"/>
        <pt x="860" y="72" on="0"/>
        <pt x="879" y="59" on="1"/>
        <pt x="879" y="0" on="1"/>
        <pt x="306" y="0" on="1"/>
        <pt x="306" y="59" on="1"/>
        <pt x="328" y="73" on="0"/>
        <pt x="399" y="89" on="0"/>
        <pt x="431" y="102" on="0"/>
        <pt x="442" y="118" on="1"/>
        <pt x="467" y="151" on="0"/>
        <pt x="467" y="236" on="1"/>
        <pt x="467" y="592" on="1"/>
        <pt x="120" y="1257" on="1"/>
        <pt x="91" y="1313" on="0"/>
        <pt x="8" y="1341" on="1"/>
        <pt x="-12" y="1348" on="0"/>
        <pt x="-31" y="1358" on="1"/>
        <pt x="-31" y="1421" on="1"/>
        <pt x="528" y="1421" on="1"/>
        <pt x="528" y="1358" on="1"/>
        <pt x="504" y="1348" on="0"/>
        <pt x="455" y="1338" on="0"/>
        <pt x="436" y="1332" on="1"/>
        <pt x="392" y="1317" on="0"/>
        <pt x="392" y="1282" on="1"/>
        <pt x="392" y="1256" on="0"/>
        <pt x="454" y="1135" on="0"/>
        <pt x="515" y="1016" on="0"/>
        <pt x="606" y="840" on="0"/>
        <pt x="670" y="715" on="1"/>
      </contour>
      <contour>
        <pt x="344" y="1542" on="1"/>
        <pt x="631" y="1816" on="1"/>
        <pt x="663" y="1846" on="0"/>
        <pt x="726" y="1892" on="0"/>
        <pt x="781" y="1892" on="0"/>
        <pt x="812" y="1879" on="0"/>
        <pt x="822" y="1868" on="1"/>
        <pt x="843" y="1846" on="0"/>
        <pt x="843" y="1809" on="0"/>
        <pt x="833" y="1787" on="0"/>
        <pt x="820" y="1778" on="1"/>
        <pt x="794" y="1760" on="0"/>
        <pt x="727" y="1742" on="1"/>
        <pt x="439" y="1542" on="1"/>
      </contour>
    </TTGlyph>
    <TTGlyph name="Ydieresis" xMin="-31" yMin="0" xMax="1230" yMax="1781">
      <contour>
        <pt x="709" y="792" on="1"/>
        <pt x="903" y="1170" on="0"/>
        <pt x="917" y="1206" on="1"/>
        <pt x="934" y="1251" on="0"/>
        <pt x="934" y="1296" on="0"/>
        <pt x="908" y="1323" on="0"/>
        <pt x="869" y="1338" on="0"/>
        <pt x="821" y="1349" on="0"/>
        <pt x="800" y="1358" on="1"/>
        <pt x="800" y="1421" on="1"/>
        <pt x="1230" y="1421" on="1"/>
        <pt x="1230" y="1358" on="1"/>
        <pt x="1214" y="1346" on="0"/>
        <pt x="1134" y="1321" on="0"/>
        <pt x="1097" y="1302" on="0"/>
        <pt x="1043" y="1221" on="0"/>
        <pt x="963" y="1076" on="0"/>
        <pt x="885" y="921" on="0"/>
        <pt x="808" y="762" on="0"/>
        <pt x="769" y="685" on="1"/>
      </contour>
      <contour>
        <pt x="727" y="603" on="1"/>
        <pt x="717" y="588" on="1"/>
        <pt x="717" y="231" on="1"/>
        <pt x="717" y="118" on="0"/>
        <pt x="771" y="96" on="1"/>
        <pt x="787" y="90" on="0"/>
        <pt x="805" y="86" on="1"/>
        <pt x="860" y="72" on="0"/>
        <pt x="879" y="59" on="1"/>
        <pt x="879" y="0" on="1"/>
        <pt x="306" y="0" on="1"/>
        <pt x="306" y="59" on="1"/>
        <pt x="328" y="73" on="0"/>
        <pt x="399" y="89" on="0"/>
        <pt x="431" y="102" on="0"/>
        <pt x="442" y="118" on="1"/>
        <pt x="467" y="151" on="0"/>
        <pt x="467" y="236" on="1"/>
        <pt x="467" y="592" on="1"/>
        <pt x="120" y="1257" on="1"/>
        <pt x="91" y="1313" on="0"/>
        <pt x="8" y="1341" on="1"/>
        <pt x="-12" y="1348" on="0"/>
        <pt x="-31" y="1358" on="1"/>
        <pt x="-31" y="1421" on="1"/>
        <pt x="528" y="1421" on="1"/>
        <pt x="528" y="1358" on="1"/>
        <pt x="504" y="1348" on="0"/>
        <pt x="455" y="1338" on="0"/>
        <pt x="436" y="1332" on="1"/>
        <pt x="392" y="1317" on="0"/>
        <pt x="392" y="1282" on="1"/>
        <pt x="392" y="1256" on="0"/>
        <pt x="454" y="1135" on="0"/>
        <pt x="515" y="1016" on="0"/>
        <pt x="606" y="840" on="0"/>
        <pt x="670" y="715" on="1"/>
      </contour>
      <contour>
        <pt x="265" y="1724" on="0"/>
        <pt x="333" y="1781" on="0"/>
        <pt x="408" y="1781" on="0"/>
        <pt x="452" y="1766" on="0"/>
        <pt x="468" y="1752" on="1"/>
        <pt x="503" y="1723" on="0"/>
        <pt x="503" y="1656" on="0"/>
        <pt x="484" y="1618" on="0"/>
        <pt x="468" y="1604" on="1"/>
        <pt x="434" y="1576" on="0"/>
        <pt x="333" y="1576" on="0"/>
        <pt x="265" y="1632" on="0"/>
      </contour>
      <contour>
        <pt x="685" y="1724" on="0"/>
        <pt x="753" y="1781" on="0"/>
        <pt x="854" y="1781" on="0"/>
        <pt x="922" y="1724" on="0"/>
        <pt x="922" y="1632" on="0"/>
        <pt x="854" y="1576" on="0"/>
        <pt x="753" y="1576" on="0"/>
        <pt x="685" y="1632" on="0"/>
      </contour>
    </TTGlyph>
    <TTGlyph name="Z" xMin="59" yMin="0" xMax="1094" yMax="1436">
      <contour>
        <pt x="434" y="88" on="1"/>
        <pt x="570" y="88" on="0"/>
        <pt x="767" y="117" on="0"/>
        <pt x="856" y="167" on="0"/>
        <pt x="914" y="235" on="0"/>
        <pt x="948" y="317" on="0"/>
        <pt x="962" y="358" on="1"/>
        <pt x="1000" y="476" on="0"/>
        <pt x="1024" y="510" on="1"/>
        <pt x="1094" y="510" on="1"/>
        <pt x="1094" y="0" on="1"/>
        <pt x="384" y="0" on="1"/>
      </contour>
      <contour>
        <pt x="123" y="1436" on="1"/>
        <pt x="190" y="1421" on="0"/>
        <pt x="283" y="1421" on="1"/>
        <pt x="753" y="1421" on="1"/>
        <pt x="703" y="1333" on="1"/>
        <pt x="481" y="1333" on="0"/>
        <pt x="400" y="1296" on="1"/>
        <pt x="313" y="1256" on="0"/>
        <pt x="276" y="1176" on="1"/>
        <pt x="253" y="1129" on="0"/>
        <pt x="209" y="994" on="0"/>
        <pt x="190" y="967" on="1"/>
        <pt x="123" y="967" on="1"/>
      </contour>
      <contour>
        <pt x="844" y="1421" on="1"/>
        <pt x="1076" y="1421" on="1"/>
        <pt x="1076" y="1346" on="1"/>
        <pt x="284" y="0" on="1"/>
        <pt x="59" y="0" on="1"/>
        <pt x="59" y="92" on="1"/>
      </contour>
    </TTGlyph>
    <TTGlyph name="Zcaron" xMin="59" yMin="0" xMax="1094" yMax="1886">
      <contour>
        <pt x="434" y="88" on="1"/>
        <pt x="570" y="88" on="0"/>
        <pt x="767" y="117" on="0"/>
        <pt x="856" y="167" on="0"/>
        <pt x="914" y="235" on="0"/>
        <pt x="948" y="317" on="0"/>
        <pt x="962" y="358" on="1"/>
        <pt x="1000" y="476" on="0"/>
        <pt x="1024" y="510" on="1"/>
        <pt x="1094" y="510" on="1"/>
        <pt x="1094" y="0" on="1"/>
        <pt x="384" y="0" on="1"/>
      </contour>
      <contour>
        <pt x="123" y="1436" on="1"/>
        <pt x="190" y="1421" on="0"/>
        <pt x="283" y="1421" on="1"/>
        <pt x="753" y="1421" on="1"/>
        <pt x="703" y="1333" on="1"/>
        <pt x="481" y="1333" on="0"/>
        <pt x="400" y="1296" on="1"/>
        <pt x="313" y="1256" on="0"/>
        <pt x="276" y="1176" on="1"/>
        <pt x="253" y="1129" on="0"/>
        <pt x="209" y="994" on="0"/>
        <pt x="190" y="967" on="1"/>
        <pt x="123" y="967" on="1"/>
      </contour>
      <contour>
        <pt x="844" y="1421" on="1"/>
        <pt x="1076" y="1421" on="1"/>
        <pt x="1076" y="1346" on="1"/>
        <pt x="284" y="0" on="1"/>
        <pt x="59" y="0" on="1"/>
        <pt x="59" y="92" on="1"/>
      </contour>
      <contour>
        <pt x="505" y="1542" on="1"/>
        <pt x="242" y="1886" on="1"/>
        <pt x="327" y="1886" on="1"/>
        <pt x="581" y="1658" on="1"/>
        <pt x="836" y="1886" on="1"/>
        <pt x="921" y="1886" on="1"/>
        <pt x="655" y="1542" on="1"/>
      </contour>
    </TTGlyph>
    <TTGlyph name="a" xMin="61" yMin="-27" xMax="1051" yMax="1007">
      <contour>
        <pt x="572" y="510" on="1"/>
        <pt x="304" y="413" on="0"/>
        <pt x="304" y="227" on="1"/>
        <pt x="304" y="152" on="0"/>
        <pt x="376" y="61" on="0"/>
        <pt x="519" y="61" on="0"/>
        <pt x="572" y="114" on="1"/>
        <pt x="572" y="19" on="1"/>
        <pt x="495" y="-27" on="0"/>
        <pt x="301" y="-27" on="0"/>
        <pt x="184" y="11" on="0"/>
        <pt x="144" y="44" on="1"/>
        <pt x="61" y="111" on="0"/>
        <pt x="61" y="221" on="1"/>
        <pt x="61" y="448" on="0"/>
        <pt x="464" y="564" on="1"/>
        <pt x="521" y="581" on="0"/>
        <pt x="572" y="594" on="1"/>
      </contour>
      <contour>
        <pt x="335" y="868" on="1"/>
        <pt x="390" y="847" on="0"/>
        <pt x="390" y="772" on="1"/>
        <pt x="390" y="724" on="0"/>
        <pt x="322" y="666" on="0"/>
        <pt x="207" y="666" on="0"/>
        <pt x="140" y="728" on="0"/>
        <pt x="140" y="826" on="0"/>
        <pt x="186" y="904" on="0"/>
        <pt x="228" y="934" on="1"/>
        <pt x="315" y="997" on="0"/>
        <pt x="447" y="1007" on="1"/>
        <pt x="447" y="931" on="1"/>
        <pt x="366" y="923" on="0"/>
      </contour>
      <contour>
        <pt x="930" y="99" on="1"/>
        <pt x="985" y="99" on="0"/>
        <pt x="1000" y="199" on="1"/>
        <pt x="1051" y="172" on="1"/>
        <pt x="1041" y="75" on="0"/>
        <pt x="954" y="-27" on="0"/>
        <pt x="859" y="-27" on="1"/>
        <pt x="785" y="-27" on="0"/>
        <pt x="749" y="0" on="1"/>
        <pt x="691" y="44" on="0"/>
        <pt x="655" y="133" on="1"/>
        <pt x="655" y="756" on="1"/>
        <pt x="655" y="818" on="0"/>
        <pt x="590" y="909" on="0"/>
        <pt x="530" y="925" on="1"/>
        <pt x="530" y="1007" on="1"/>
        <pt x="869" y="989" on="0"/>
        <pt x="869" y="649" on="1"/>
        <pt x="869" y="176" on="1"/>
        <pt x="869" y="99" on="0"/>
      </contour>
    </TTGlyph>
    <TTGlyph name="aacute" xMin="61" yMin="-27" xMax="1051" yMax="1446">
      <contour>
        <pt x="572" y="510" on="1"/>
        <pt x="304" y="413" on="0"/>
        <pt x="304" y="227" on="1"/>
        <pt x="304" y="152" on="0"/>
        <pt x="376" y="61" on="0"/>
        <pt x="519" y="61" on="0"/>
        <pt x="572" y="114" on="1"/>
        <pt x="572" y="19" on="1"/>
        <pt x="495" y="-27" on="0"/>
        <pt x="301" y="-27" on="0"/>
        <pt x="184" y="11" on="0"/>
        <pt x="144" y="44" on="1"/>
        <pt x="61" y="111" on="0"/>
        <pt x="61" y="221" on="1"/>
        <pt x="61" y="448" on="0"/>
        <pt x="464" y="564" on="1"/>
        <pt x="521" y="581" on="0"/>
        <pt x="572" y="594" on="1"/>
      </contour>
      <contour>
        <pt x="335" y="868" on="1"/>
        <pt x="390" y="847" on="0"/>
        <pt x="390" y="772" on="1"/>
        <pt x="390" y="724" on="0"/>
        <pt x="322" y="666" on="0"/>
        <pt x="207" y="666" on="0"/>
        <pt x="140" y="728" on="0"/>
        <pt x="140" y="826" on="0"/>
        <pt x="186" y="904" on="0"/>
        <pt x="228" y="934" on="1"/>
        <pt x="315" y="997" on="0"/>
        <pt x="447" y="1007" on="1"/>
        <pt x="447" y="931" on="1"/>
        <pt x="366" y="923" on="0"/>
      </contour>
      <contour>
        <pt x="930" y="99" on="1"/>
        <pt x="985" y="99" on="0"/>
        <pt x="1000" y="199" on="1"/>
        <pt x="1051" y="172" on="1"/>
        <pt x="1041" y="75" on="0"/>
        <pt x="954" y="-27" on="0"/>
        <pt x="859" y="-27" on="1"/>
        <pt x="785" y="-27" on="0"/>
        <pt x="749" y="0" on="1"/>
        <pt x="691" y="44" on="0"/>
        <pt x="655" y="133" on="1"/>
        <pt x="655" y="756" on="1"/>
        <pt x="655" y="818" on="0"/>
        <pt x="590" y="909" on="0"/>
        <pt x="530" y="925" on="1"/>
        <pt x="530" y="1007" on="1"/>
        <pt x="869" y="989" on="0"/>
        <pt x="869" y="649" on="1"/>
        <pt x="869" y="176" on="1"/>
        <pt x="869" y="99" on="0"/>
      </contour>
      <contour>
        <pt x="277" y="1096" on="1"/>
        <pt x="564" y="1370" on="1"/>
        <pt x="596" y="1400" on="0"/>
        <pt x="659" y="1446" on="0"/>
        <pt x="714" y="1446" on="0"/>
        <pt x="745" y="1433" on="0"/>
        <pt x="755" y="1422" on="1"/>
        <pt x="776" y="1400" on="0"/>
        <pt x="776" y="1375" on="1"/>
        <pt x="776" y="1334" on="0"/>
        <pt x="712" y="1296" on="1"/>
        <pt x="372" y="1096" on="1"/>
      </contour>
    </TTGlyph>
    <TTGlyph name="acircumflex" xMin="61" yMin="-27" xMax="1051" yMax="1440">
      <contour>
        <pt x="572" y="510" on="1"/>
        <pt x="304" y="413" on="0"/>
        <pt x="304" y="227" on="1"/>
        <pt x="304" y="152" on="0"/>
        <pt x="376" y="61" on="0"/>
        <pt x="519" y="61" on="0"/>
        <pt x="572" y="114" on="1"/>
        <pt x="572" y="19" on="1"/>
        <pt x="495" y="-27" on="0"/>
        <pt x="301" y="-27" on="0"/>
        <pt x="184" y="11" on="0"/>
        <pt x="144" y="44" on="1"/>
        <pt x="61" y="111" on="0"/>
        <pt x="61" y="221" on="1"/>
        <pt x="61" y="448" on="0"/>
        <pt x="464" y="564" on="1"/>
        <pt x="521" y="581" on="0"/>
        <pt x="572" y="594" on="1"/>
      </contour>
      <contour>
        <pt x="335" y="868" on="1"/>
        <pt x="390" y="847" on="0"/>
        <pt x="390" y="772" on="1"/>
        <pt x="390" y="724" on="0"/>
        <pt x="322" y="666" on="0"/>
        <pt x="207" y="666" on="0"/>
        <pt x="140" y="728" on="0"/>
        <pt x="140" y="826" on="0"/>
        <pt x="186" y="904" on="0"/>
        <pt x="228" y="934" on="1"/>
        <pt x="315" y="997" on="0"/>
        <pt x="447" y="1007" on="1"/>
        <pt x="447" y="931" on="1"/>
        <pt x="366" y="923" on="0"/>
      </contour>
      <contour>
        <pt x="930" y="99" on="1"/>
        <pt x="985" y="99" on="0"/>
        <pt x="1000" y="199" on="1"/>
        <pt x="1051" y="172" on="1"/>
        <pt x="1041" y="75" on="0"/>
        <pt x="954" y="-27" on="0"/>
        <pt x="859" y="-27" on="1"/>
        <pt x="785" y="-27" on="0"/>
        <pt x="749" y="0" on="1"/>
        <pt x="691" y="44" on="0"/>
        <pt x="655" y="133" on="1"/>
        <pt x="655" y="756" on="1"/>
        <pt x="655" y="818" on="0"/>
        <pt x="590" y="909" on="0"/>
        <pt x="530" y="925" on="1"/>
        <pt x="530" y="1007" on="1"/>
        <pt x="869" y="989" on="0"/>
        <pt x="869" y="649" on="1"/>
        <pt x="869" y="176" on="1"/>
        <pt x="869" y="99" on="0"/>
      </contour>
      <contour>
        <pt x="600" y="1440" on="1"/>
        <pt x="866" y="1096" on="1"/>
        <pt x="779" y="1096" on="1"/>
        <pt x="526" y="1323" on="1"/>
        <pt x="272" y="1096" on="1"/>
        <pt x="187" y="1096" on="1"/>
        <pt x="450" y="1440" on="1"/>
      </contour>
    </TTGlyph>
    <TTGlyph name="acute" xMin="147" yMin="1096" xMax="646" yMax="1446">
      <contour>
        <pt x="147" y="1096" on="1"/>
        <pt x="434" y="1370" on="1"/>
        <pt x="466" y="1400" on="0"/>
        <pt x="529" y="1446" on="0"/>
        <pt x="584" y="1446" on="0"/>
        <pt x="615" y="1433" on="0"/>
        <pt x="625" y="1422" on="1"/>
        <pt x="646" y="1400" on="0"/>
        <pt x="646" y="1375" on="1"/>
        <pt x="646" y="1334" on="0"/>
        <pt x="582" y="1296" on="1"/>
        <pt x="242" y="1096" on="1"/>
      </contour>
    </TTGlyph>
    <TTGlyph name="adieresis" xMin="61" yMin="-27" xMax="1051" yMax="1335">
      <contour>
        <pt x="572" y="510" on="1"/>
        <pt x="304" y="413" on="0"/>
        <pt x="304" y="227" on="1"/>
        <pt x="304" y="152" on="0"/>
        <pt x="376" y="61" on="0"/>
        <pt x="519" y="61" on="0"/>
        <pt x="572" y="114" on="1"/>
        <pt x="572" y="19" on="1"/>
        <pt x="495" y="-27" on="0"/>
        <pt x="301" y="-27" on="0"/>
        <pt x="184" y="11" on="0"/>
        <pt x="144" y="44" on="1"/>
        <pt x="61" y="111" on="0"/>
        <pt x="61" y="221" on="1"/>
        <pt x="61" y="448" on="0"/>
        <pt x="464" y="564" on="1"/>
        <pt x="521" y="581" on="0"/>
        <pt x="572" y="594" on="1"/>
      </contour>
      <contour>
        <pt x="335" y="868" on="1"/>
        <pt x="390" y="847" on="0"/>
        <pt x="390" y="772" on="1"/>
        <pt x="390" y="724" on="0"/>
        <pt x="322" y="666" on="0"/>
        <pt x="207" y="666" on="0"/>
        <pt x="140" y="728" on="0"/>
        <pt x="140" y="826" on="0"/>
        <pt x="186" y="904" on="0"/>
        <pt x="228" y="934" on="1"/>
        <pt x="315" y="997" on="0"/>
        <pt x="447" y="1007" on="1"/>
        <pt x="447" y="931" on="1"/>
        <pt x="366" y="923" on="0"/>
      </contour>
      <contour>
        <pt x="930" y="99" on="1"/>
        <pt x="985" y="99" on="0"/>
        <pt x="1000" y="199" on="1"/>
        <pt x="1051" y="172" on="1"/>
        <pt x="1041" y="75" on="0"/>
        <pt x="954" y="-27" on="0"/>
        <pt x="859" y="-27" on="1"/>
        <pt x="785" y="-27" on="0"/>
        <pt x="749" y="0" on="1"/>
        <pt x="691" y="44" on="0"/>
        <pt x="655" y="133" on="1"/>
        <pt x="655" y="756" on="1"/>
        <pt x="655" y="818" on="0"/>
        <pt x="590" y="909" on="0"/>
        <pt x="530" y="925" on="1"/>
        <pt x="530" y="1007" on="1"/>
        <pt x="869" y="989" on="0"/>
        <pt x="869" y="649" on="1"/>
        <pt x="869" y="176" on="1"/>
        <pt x="869" y="99" on="0"/>
      </contour>
      <contour>
        <pt x="198" y="1278" on="0"/>
        <pt x="266" y="1335" on="0"/>
        <pt x="341" y="1335" on="0"/>
        <pt x="385" y="1320" on="0"/>
        <pt x="401" y="1306" on="1"/>
        <pt x="436" y="1277" on="0"/>
        <pt x="436" y="1210" on="0"/>
        <pt x="417" y="1172" on="0"/>
        <pt x="401" y="1158" on="1"/>
        <pt x="367" y="1130" on="0"/>
        <pt x="266" y="1130" on="0"/>
        <pt x="198" y="1186" on="0"/>
      </contour>
      <contour>
        <pt x="618" y="1278" on="0"/>
        <pt x="686" y="1335" on="0"/>
        <pt x="787" y="1335" on="0"/>
        <pt x="855" y="1278" on="0"/>
        <pt x="855" y="1186" on="0"/>
        <pt x="787" y="1130" on="0"/>
        <pt x="686" y="1130" on="0"/>
        <pt x="618" y="1186" on="0"/>
      </contour>
    </TTGlyph>
    <TTGlyph name="ae" xMin="79" yMin="-27" xMax="1536" yMax="1007">
      <contour>
        <pt x="1114" y="-27" on="1"/>
        <pt x="890" y="-17" on="0"/>
        <pt x="784" y="172" on="1"/>
        <pt x="730" y="113" on="0"/>
        <pt x="670" y="71" on="1"/>
        <pt x="670" y="745" on="1"/>
        <pt x="670" y="857" on="0"/>
        <pt x="598" y="907" on="1"/>
        <pt x="573" y="925" on="0"/>
        <pt x="536" y="932" on="1"/>
        <pt x="536" y="1007" on="1"/>
        <pt x="703" y="998" on="0"/>
        <pt x="806" y="891" on="1"/>
        <pt x="905" y="992" on="0"/>
        <pt x="1055" y="1006" on="1"/>
        <pt x="1055" y="921" on="1"/>
        <pt x="902" y="880" on="0"/>
        <pt x="902" y="553" on="1"/>
        <pt x="902" y="107" on="0"/>
        <pt x="1114" y="65" on="1"/>
      </contour>
      <contour>
        <pt x="451" y="61" on="1"/>
        <pt x="533" y="61" on="0"/>
        <pt x="587" y="121" on="1"/>
        <pt x="587" y="17" on="1"/>
        <pt x="503" y="-27" on="0"/>
        <pt x="319" y="-27" on="0"/>
        <pt x="200" y="12" on="0"/>
        <pt x="160" y="46" on="1"/>
        <pt x="79" y="116" on="0"/>
        <pt x="79" y="227" on="1"/>
        <pt x="79" y="492" on="0"/>
        <pt x="587" y="592" on="1"/>
        <pt x="587" y="509" on="1"/>
        <pt x="387" y="457" on="0"/>
        <pt x="328" y="322" on="1"/>
        <pt x="310" y="279" on="0"/>
        <pt x="310" y="233" on="1"/>
        <pt x="310" y="61" on="0"/>
      </contour>
      <contour>
        <pt x="1287" y="596" on="1"/>
        <pt x="1287" y="891" on="0"/>
        <pt x="1138" y="922" on="1"/>
        <pt x="1138" y="1007" on="1"/>
        <pt x="1329" y="994" on="0"/>
        <pt x="1433" y="849" on="1"/>
        <pt x="1527" y="718" on="0"/>
        <pt x="1527" y="508" on="1"/>
        <pt x="985" y="508" on="1"/>
        <pt x="985" y="596" on="1"/>
      </contour>
      <contour>
        <pt x="276" y="674" on="1"/>
        <pt x="156" y="674" on="0"/>
        <pt x="156" y="788" on="1"/>
        <pt x="156" y="875" on="0"/>
        <pt x="240" y="937" on="1"/>
        <pt x="322" y="997" on="0"/>
        <pt x="453" y="1007" on="1"/>
        <pt x="453" y="934" on="1"/>
        <pt x="369" y="925" on="0"/>
        <pt x="340" y="872" on="1"/>
        <pt x="396" y="855" on="0"/>
        <pt x="396" y="780" on="1"/>
        <pt x="396" y="732" on="0"/>
        <pt x="329" y="674" on="0"/>
      </contour>
      <contour>
        <pt x="1197" y="63" on="1"/>
        <pt x="1351" y="79" on="0"/>
        <pt x="1417" y="229" on="1"/>
        <pt x="1436" y="272" on="0"/>
        <pt x="1450" y="317" on="1"/>
        <pt x="1536" y="285" on="1"/>
        <pt x="1457" y="4" on="0"/>
        <pt x="1197" y="-24" on="1"/>
      </contour>
    </TTGlyph>
    <TTGlyph name="afii61289" xMin="52" yMin="-27" xMax="825" yMax="1509">
      <contour>
        <pt x="563" y="92" on="1"/>
        <pt x="685" y="92" on="0"/>
        <pt x="777" y="225" on="1"/>
        <pt x="825" y="193" on="1"/>
        <pt x="709" y="-27" on="0"/>
        <pt x="480" y="-27" on="1"/>
        <pt x="321" y="-27" on="0"/>
        <pt x="259" y="53" on="1"/>
        <pt x="222" y="101" on="0"/>
        <pt x="212" y="145" on="1"/>
        <pt x="195" y="220" on="0"/>
        <pt x="195" y="346" on="1"/>
        <pt x="195" y="526" on="1"/>
        <pt x="84" y="449" on="1"/>
        <pt x="52" y="498" on="1"/>
        <pt x="193" y="602" on="1"/>
        <pt x="193" y="874" on="1"/>
        <pt x="193" y="1116" on="0"/>
        <pt x="228" y="1281" on="0"/>
        <pt x="270" y="1364" on="0"/>
        <pt x="306" y="1409" on="1"/>
        <pt x="384" y="1509" on="0"/>
        <pt x="494" y="1509" on="1"/>
        <pt x="585" y="1509" on="0"/>
        <pt x="636" y="1435" on="1"/>
        <pt x="687" y="1363" on="0"/>
        <pt x="687" y="1148" on="0"/>
        <pt x="640" y="984" on="0"/>
        <pt x="600" y="910" on="1"/>
        <pt x="533" y="788" on="0"/>
        <pt x="395" y="645" on="1"/>
        <pt x="395" y="434" on="1"/>
        <pt x="395" y="157" on="0"/>
        <pt x="488" y="108" on="1"/>
        <pt x="519" y="92" on="0"/>
      </contour>
      <contour>
        <pt x="575" y="1241" on="1"/>
        <pt x="575" y="1448" on="0"/>
        <pt x="487" y="1448" on="1"/>
        <pt x="435" y="1448" on="0"/>
        <pt x="395" y="1257" on="0"/>
        <pt x="395" y="987" on="1"/>
        <pt x="395" y="743" on="1"/>
        <pt x="520" y="890" on="0"/>
        <pt x="562" y="1108" on="1"/>
        <pt x="575" y="1176" on="0"/>
      </contour>
    </TTGlyph>
    <TTGlyph name="agrave" xMin="61" yMin="-27" xMax="1051" yMax="1446">
      <contour>
        <pt x="572" y="510" on="1"/>
        <pt x="304" y="413" on="0"/>
        <pt x="304" y="227" on="1"/>
        <pt x="304" y="152" on="0"/>
        <pt x="376" y="61" on="0"/>
        <pt x="519" y="61" on="0"/>
        <pt x="572" y="114" on="1"/>
        <pt x="572" y="19" on="1"/>
        <pt x="495" y="-27" on="0"/>
        <pt x="301" y="-27" on="0"/>
        <pt x="184" y="11" on="0"/>
        <pt x="144" y="44" on="1"/>
        <pt x="61" y="111" on="0"/>
        <pt x="61" y="221" on="1"/>
        <pt x="61" y="448" on="0"/>
        <pt x="464" y="564" on="1"/>
        <pt x="521" y="581" on="0"/>
        <pt x="572" y="594" on="1"/>
      </contour>
      <contour>
        <pt x="335" y="868" on="1"/>
        <pt x="390" y="847" on="0"/>
        <pt x="390" y="772" on="1"/>
        <pt x="390" y="724" on="0"/>
        <pt x="322" y="666" on="0"/>
        <pt x="207" y="666" on="0"/>
        <pt x="140" y="728" on="0"/>
        <pt x="140" y="826" on="0"/>
        <pt x="186" y="904" on="0"/>
        <pt x="228" y="934" on="1"/>
        <pt x="315" y="997" on="0"/>
        <pt x="447" y="1007" on="1"/>
        <pt x="447" y="931" on="1"/>
        <pt x="366" y="923" on="0"/>
      </contour>
      <contour>
        <pt x="930" y="99" on="1"/>
        <pt x="985" y="99" on="0"/>
        <pt x="1000" y="199" on="1"/>
        <pt x="1051" y="172" on="1"/>
        <pt x="1041" y="75" on="0"/>
        <pt x="954" y="-27" on="0"/>
        <pt x="859" y="-27" on="1"/>
        <pt x="785" y="-27" on="0"/>
        <pt x="749" y="0" on="1"/>
        <pt x="691" y="44" on="0"/>
        <pt x="655" y="133" on="1"/>
        <pt x="655" y="756" on="1"/>
        <pt x="655" y="818" on="0"/>
        <pt x="590" y="909" on="0"/>
        <pt x="530" y="925" on="1"/>
        <pt x="530" y="1007" on="1"/>
        <pt x="869" y="989" on="0"/>
        <pt x="869" y="649" on="1"/>
        <pt x="869" y="176" on="1"/>
        <pt x="869" y="99" on="0"/>
      </contour>
      <contour>
        <pt x="681" y="1096" on="1"/>
        <pt x="342" y="1296" on="1"/>
        <pt x="278" y="1333" on="0"/>
        <pt x="278" y="1376" on="1"/>
        <pt x="278" y="1419" on="0"/>
        <pt x="324" y="1440" on="1"/>
        <pt x="338" y="1446" on="0"/>
        <pt x="366" y="1446" on="1"/>
        <pt x="408" y="1446" on="0"/>
        <pt x="489" y="1370" on="1"/>
        <pt x="776" y="1096" on="1"/>
      </contour>
    </TTGlyph>
    <TTGlyph name="ampersand" xMin="73" yMin="-31" xMax="1493" yMax="1451">
      <contour>
        <pt x="633" y="879" on="1"/>
        <pt x="805" y="992" on="0"/>
        <pt x="805" y="1159" on="1"/>
        <pt x="805" y="1242" on="0"/>
        <pt x="741" y="1356" on="0"/>
        <pt x="677" y="1371" on="1"/>
        <pt x="677" y="1451" on="1"/>
        <pt x="813" y="1441" on="0"/>
        <pt x="898" y="1362" on="1"/>
        <pt x="979" y="1286" on="0"/>
        <pt x="979" y="1112" on="0"/>
        <pt x="927" y="997" on="0"/>
        <pt x="885" y="950" on="1"/>
        <pt x="813" y="871" on="0"/>
        <pt x="682" y="803" on="1"/>
      </contour>
      <contour>
        <pt x="368" y="653" on="1"/>
        <pt x="292" y="577" on="0"/>
        <pt x="292" y="434" on="1"/>
        <pt x="292" y="306" on="0"/>
        <pt x="376" y="206" on="1"/>
        <pt x="458" y="107" on="0"/>
        <pt x="584" y="83" on="1"/>
        <pt x="584" y="-31" on="1"/>
        <pt x="569" y="-31" on="1"/>
        <pt x="355" y="-31" on="0"/>
        <pt x="218" y="77" on="1"/>
        <pt x="73" y="190" on="0"/>
        <pt x="73" y="383" on="1"/>
        <pt x="73" y="551" on="0"/>
        <pt x="218" y="666" on="1"/>
        <pt x="262" y="701" on="0"/>
        <pt x="314" y="733" on="1"/>
      </contour>
      <contour>
        <pt x="1219" y="-25" on="1"/>
        <pt x="1057" y="-25" on="0"/>
        <pt x="932" y="86" on="1"/>
        <pt x="814" y="-5" on="0"/>
        <pt x="667" y="-25" on="1"/>
        <pt x="667" y="77" on="1"/>
        <pt x="785" y="86" on="0"/>
        <pt x="861" y="150" on="1"/>
        <pt x="721" y="279" on="0"/>
        <pt x="636" y="386" on="1"/>
        <pt x="254" y="860" on="0"/>
        <pt x="254" y="1098" on="1"/>
        <pt x="254" y="1242" on="0"/>
        <pt x="350" y="1340" on="1"/>
        <pt x="441" y="1434" on="0"/>
        <pt x="594" y="1450" on="1"/>
        <pt x="594" y="1373" on="1"/>
        <pt x="481" y="1354" on="0"/>
        <pt x="481" y="1206" on="1"/>
        <pt x="481" y="1036" on="0"/>
        <pt x="582" y="858" on="1"/>
        <pt x="736" y="619" on="0"/>
        <pt x="940" y="398" on="1"/>
        <pt x="981" y="353" on="0"/>
        <pt x="1018" y="319" on="1"/>
        <pt x="1069" y="398" on="0"/>
        <pt x="1087" y="517" on="1"/>
        <pt x="1092" y="550" on="0"/>
        <pt x="1092" y="621" on="0"/>
        <pt x="1059" y="666" on="0"/>
        <pt x="1011" y="687" on="0"/>
        <pt x="957" y="697" on="0"/>
        <pt x="937" y="709" on="1"/>
        <pt x="937" y="774" on="1"/>
        <pt x="1441" y="774" on="1"/>
        <pt x="1441" y="711" on="1"/>
        <pt x="1414" y="703" on="0"/>
        <pt x="1361" y="692" on="0"/>
        <pt x="1336" y="682" on="1"/>
        <pt x="1279" y="659" on="0"/>
        <pt x="1250" y="606" on="1"/>
        <pt x="1233" y="567" on="0"/>
        <pt x="1200" y="479" on="0"/>
        <pt x="1181" y="434" on="1"/>
        <pt x="1135" y="322" on="0"/>
        <pt x="1081" y="246" on="1"/>
        <pt x="1152" y="165" on="0"/>
        <pt x="1181" y="143" on="1"/>
        <pt x="1238" y="100" on="0"/>
        <pt x="1290" y="100" on="1"/>
        <pt x="1396" y="100" on="0"/>
        <pt x="1421" y="242" on="1"/>
        <pt x="1493" y="213" on="1"/>
        <pt x="1458" y="47" on="0"/>
        <pt x="1330" y="-6" on="1"/>
        <pt x="1283" y="-25" on="0"/>
      </contour>
    </TTGlyph>
    <TTGlyph name="approxequal" xMin="71" yMin="299" xMax="990" yMax="870">
      <contour>
        <pt x="990" y="809" on="1"/>
        <pt x="925" y="679" on="0"/>
        <pt x="812" y="636" on="1"/>
        <pt x="772" y="621" on="0"/>
        <pt x="699" y="621" on="0"/>
        <pt x="648" y="629" on="0"/>
        <pt x="622" y="638" on="1"/>
        <pt x="577" y="653" on="0"/>
        <pt x="466" y="717" on="0"/>
        <pt x="387" y="754" on="0"/>
        <pt x="309" y="754" on="0"/>
        <pt x="258" y="732" on="0"/>
        <pt x="237" y="714" on="1"/>
        <pt x="205" y="685" on="0"/>
        <pt x="163" y="621" on="1"/>
        <pt x="71" y="680" on="1"/>
        <pt x="140" y="811" on="0"/>
        <pt x="266" y="852" on="1"/>
        <pt x="308" y="866" on="0"/>
        <pt x="390" y="866" on="0"/>
        <pt x="452" y="852" on="0"/>
        <pt x="504" y="832" on="0"/>
        <pt x="547" y="808" on="0"/>
        <pt x="591" y="785" on="0"/>
        <pt x="634" y="762" on="0"/>
        <pt x="654" y="754" on="1"/>
        <pt x="696" y="735" on="0"/>
        <pt x="759" y="735" on="0"/>
        <pt x="806" y="755" on="0"/>
        <pt x="826" y="773" on="1"/>
        <pt x="860" y="803" on="0"/>
        <pt x="902" y="870" on="1"/>
      </contour>
      <contour>
        <pt x="990" y="489" on="1"/>
        <pt x="926" y="358" on="0"/>
        <pt x="812" y="316" on="1"/>
        <pt x="772" y="301" on="0"/>
        <pt x="698" y="301" on="0"/>
        <pt x="647" y="310" on="0"/>
        <pt x="622" y="318" on="1"/>
        <pt x="577" y="333" on="0"/>
        <pt x="464" y="399" on="0"/>
        <pt x="387" y="434" on="0"/>
        <pt x="308" y="434" on="0"/>
        <pt x="256" y="411" on="0"/>
        <pt x="235" y="392" on="1"/>
        <pt x="205" y="365" on="0"/>
        <pt x="163" y="299" on="1"/>
        <pt x="71" y="358" on="1"/>
        <pt x="140" y="490" on="0"/>
        <pt x="266" y="533" on="1"/>
        <pt x="308" y="547" on="0"/>
        <pt x="390" y="547" on="0"/>
        <pt x="452" y="533" on="0"/>
        <pt x="504" y="512" on="0"/>
        <pt x="547" y="488" on="0"/>
        <pt x="589" y="467" on="0"/>
        <pt x="631" y="443" on="0"/>
        <pt x="651" y="434" on="1"/>
        <pt x="695" y="414" on="0"/>
        <pt x="759" y="414" on="0"/>
        <pt x="806" y="434" on="0"/>
        <pt x="826" y="452" on="1"/>
        <pt x="860" y="483" on="0"/>
        <pt x="902" y="551" on="1"/>
      </contour>
    </TTGlyph>
    <TTGlyph name="aring" xMin="61" yMin="-27" xMax="1051" yMax="1524">
      <contour>
        <pt x="572" y="510" on="1"/>
        <pt x="304" y="413" on="0"/>
        <pt x="304" y="227" on="1"/>
        <pt x="304" y="152" on="0"/>
        <pt x="376" y="61" on="0"/>
        <pt x="519" y="61" on="0"/>
        <pt x="572" y="114" on="1"/>
        <pt x="572" y="19" on="1"/>
        <pt x="495" y="-27" on="0"/>
        <pt x="301" y="-27" on="0"/>
        <pt x="184" y="11" on="0"/>
        <pt x="144" y="44" on="1"/>
        <pt x="61" y="111" on="0"/>
        <pt x="61" y="221" on="1"/>
        <pt x="61" y="448" on="0"/>
        <pt x="464" y="564" on="1"/>
        <pt x="521" y="581" on="0"/>
        <pt x="572" y="594" on="1"/>
      </contour>
      <contour>
        <pt x="335" y="868" on="1"/>
        <pt x="390" y="847" on="0"/>
        <pt x="390" y="772" on="1"/>
        <pt x="390" y="724" on="0"/>
        <pt x="322" y="666" on="0"/>
        <pt x="207" y="666" on="0"/>
        <pt x="140" y="728" on="0"/>
        <pt x="140" y="826" on="0"/>
        <pt x="186" y="904" on="0"/>
        <pt x="228" y="934" on="1"/>
        <pt x="315" y="997" on="0"/>
        <pt x="447" y="1007" on="1"/>
        <pt x="447" y="931" on="1"/>
        <pt x="366" y="923" on="0"/>
      </contour>
      <contour>
        <pt x="930" y="99" on="1"/>
        <pt x="985" y="99" on="0"/>
        <pt x="1000" y="199" on="1"/>
        <pt x="1051" y="172" on="1"/>
        <pt x="1041" y="75" on="0"/>
        <pt x="954" y="-27" on="0"/>
        <pt x="859" y="-27" on="1"/>
        <pt x="785" y="-27" on="0"/>
        <pt x="749" y="0" on="1"/>
        <pt x="691" y="44" on="0"/>
        <pt x="655" y="133" on="1"/>
        <pt x="655" y="756" on="1"/>
        <pt x="655" y="818" on="0"/>
        <pt x="590" y="909" on="0"/>
        <pt x="530" y="925" on="1"/>
        <pt x="530" y="1007" on="1"/>
        <pt x="869" y="989" on="0"/>
        <pt x="869" y="649" on="1"/>
        <pt x="869" y="176" on="1"/>
        <pt x="869" y="99" on="0"/>
      </contour>
      <contour>
        <pt x="286" y="1317" on="1"/>
        <pt x="286" y="1404" on="0"/>
        <pt x="356" y="1465" on="1"/>
        <pt x="425" y="1524" on="0"/>
        <pt x="527" y="1524" on="1"/>
        <pt x="628" y="1524" on="0"/>
        <pt x="696" y="1465" on="1"/>
        <pt x="767" y="1404" on="0"/>
        <pt x="767" y="1317" on="1"/>
        <pt x="767" y="1229" on="0"/>
        <pt x="696" y="1168" on="1"/>
        <pt x="627" y="1108" on="0"/>
        <pt x="527" y="1108" on="1"/>
        <pt x="426" y="1108" on="0"/>
        <pt x="356" y="1168" on="1"/>
        <pt x="286" y="1229" on="0"/>
      </contour>
      <contour>
        <pt x="373" y="1316" on="1"/>
        <pt x="373" y="1288" on="0"/>
        <pt x="397" y="1239" on="0"/>
        <pt x="418" y="1220" on="1"/>
        <pt x="461" y="1180" on="0"/>
        <pt x="527" y="1180" on="1"/>
        <pt x="629" y="1180" on="0"/>
        <pt x="668" y="1264" on="1"/>
        <pt x="680" y="1288" on="0"/>
        <pt x="680" y="1345" on="0"/>
        <pt x="657" y="1395" on="0"/>
        <pt x="636" y="1413" on="1"/>
        <pt x="592" y="1452" on="0"/>
        <pt x="527" y="1452" on="1"/>
        <pt x="462" y="1452" on="0"/>
        <pt x="373" y="1374" on="0"/>
      </contour>
    </TTGlyph>
    <TTGlyph name="asciicircum" xMin="211" yMin="680" xMax="1214" yMax="1421">
      <contour>
        <pt x="211" y="680" on="1"/>
        <pt x="639" y="1421" on="1"/>
        <pt x="786" y="1421" on="1"/>
        <pt x="1214" y="680" on="1"/>
        <pt x="1035" y="680" on="1"/>
        <pt x="712" y="1247" on="1"/>
        <pt x="388" y="680" on="1"/>
      </contour>
    </TTGlyph>
    <TTGlyph name="asciitilde" xMin="166" yMin="344" xMax="1256" yMax="637">
      <contour>
        <pt x="166" y="455" on="1"/>
        <pt x="274" y="631" on="0"/>
        <pt x="463" y="631" on="1"/>
        <pt x="555" y="631" on="0"/>
        <pt x="730" y="562" on="1"/>
        <pt x="796" y="537" on="0"/>
        <pt x="915" y="494" on="0"/>
        <pt x="998" y="494" on="0"/>
        <pt x="1056" y="518" on="0"/>
        <pt x="1081" y="538" on="1"/>
        <pt x="1118" y="569" on="0"/>
        <pt x="1171" y="637" on="1"/>
        <pt x="1256" y="524" on="1"/>
        <pt x="1185" y="440" on="0"/>
        <pt x="1143" y="410" on="1"/>
        <pt x="1057" y="350" on="0"/>
        <pt x="888" y="350" on="0"/>
        <pt x="770" y="393" on="0"/>
        <pt x="655" y="444" on="0"/>
        <pt x="530" y="487" on="0"/>
        <pt x="451" y="487" on="1"/>
        <pt x="329" y="487" on="0"/>
        <pt x="252" y="344" on="1"/>
      </contour>
    </TTGlyph>
    <TTGlyph name="asterisk" xMin="30" yMin="588" xMax="892" yMax="1520">
      <contour>
        <pt x="892" y="1237" on="1"/>
        <pt x="540" y="1055" on="1"/>
        <pt x="892" y="870" on="1"/>
        <pt x="824" y="752" on="1"/>
        <pt x="510" y="969" on="1"/>
        <pt x="522" y="588" on="1"/>
        <pt x="400" y="588" on="1"/>
        <pt x="411" y="969" on="1"/>
        <pt x="98" y="752" on="1"/>
        <pt x="30" y="870" on="1"/>
        <pt x="382" y="1053" on="1"/>
        <pt x="30" y="1237" on="1"/>
        <pt x="98" y="1356" on="1"/>
        <pt x="411" y="1139" on="1"/>
        <pt x="400" y="1520" on="1"/>
        <pt x="522" y="1520" on="1"/>
        <pt x="510" y="1139" on="1"/>
        <pt x="824" y="1356" on="1"/>
      </contour>
    </TTGlyph>
    <TTGlyph name="at" xMin="-388" yMin="-30" xMax="1336" yMax="1451">
      <contour>
        <pt x="556" y="61" on="1"/>
        <pt x="767" y="64" on="0"/>
        <pt x="930" y="124" on="1"/>
        <pt x="982" y="143" on="0"/>
        <pt x="1035" y="166" on="1"/>
        <pt x="1065" y="92" on="1"/>
        <pt x="848" y="8" on="0"/>
        <pt x="632" y="-27" on="0"/>
        <pt x="556" y="-30" on="1"/>
      </contour>
      <contour>
        <pt x="473" y="-30" on="1"/>
        <pt x="92" y="-18" on="0"/>
        <pt x="-155" y="204" on="1"/>
        <pt x="-388" y="413" on="0"/>
        <pt x="-388" y="678" on="1"/>
        <pt x="-388" y="1013" on="0"/>
        <pt x="-146" y="1227" on="1"/>
        <pt x="95" y="1439" on="0"/>
        <pt x="473" y="1451" on="1"/>
        <pt x="473" y="1369" on="1"/>
        <pt x="195" y="1354" on="0"/>
        <pt x="18" y="1176" on="1"/>
        <pt x="-175" y="984" on="0"/>
        <pt x="-175" y="668" on="1"/>
        <pt x="-175" y="437" on="0"/>
        <pt x="4" y="264" on="1"/>
        <pt x="188" y="85" on="0"/>
        <pt x="473" y="63" on="1"/>
      </contour>
      <contour>
        <pt x="818" y="467" on="1"/>
        <pt x="818" y="389" on="0"/>
        <pt x="911" y="389" on="1"/>
        <pt x="1045" y="389" on="0"/>
        <pt x="1138" y="533" on="1"/>
        <pt x="1221" y="663" on="0"/>
        <pt x="1221" y="817" on="1"/>
        <pt x="1221" y="1028" on="0"/>
        <pt x="1034" y="1190" on="1"/>
        <pt x="841" y="1357" on="0"/>
        <pt x="556" y="1369" on="1"/>
        <pt x="556" y="1451" on="1"/>
        <pt x="887" y="1441" on="0"/>
        <pt x="1111" y="1262" on="1"/>
        <pt x="1216" y="1178" on="0"/>
        <pt x="1336" y="951" on="0"/>
        <pt x="1336" y="819" on="1"/>
        <pt x="1336" y="637" on="0"/>
        <pt x="1216" y="481" on="1"/>
        <pt x="1081" y="307" on="0"/>
        <pt x="872" y="307" on="1"/>
        <pt x="781" y="307" on="0"/>
        <pt x="667" y="385" on="0"/>
        <pt x="655" y="446" on="1"/>
        <pt x="650" y="446" on="1"/>
        <pt x="579" y="377" on="0"/>
        <pt x="534" y="353" on="1"/>
        <pt x="448" y="307" on="0"/>
        <pt x="311" y="307" on="0"/>
        <pt x="220" y="339" on="0"/>
        <pt x="188" y="372" on="1"/>
        <pt x="120" y="441" on="0"/>
        <pt x="120" y="575" on="1"/>
        <pt x="120" y="692" on="0"/>
        <pt x="183" y="812" on="1"/>
        <pt x="245" y="932" on="0"/>
        <pt x="352" y="1010" on="1"/>
        <pt x="466" y="1092" on="0"/>
        <pt x="598" y="1092" on="1"/>
        <pt x="685" y="1092" on="0"/>
        <pt x="739" y="1044" on="1"/>
        <pt x="716" y="955" on="1"/>
        <pt x="684" y="995" on="0"/>
        <pt x="574" y="995" on="0"/>
        <pt x="462" y="931" on="0"/>
        <pt x="414" y="874" on="1"/>
        <pt x="303" y="742" on="0"/>
        <pt x="303" y="573" on="1"/>
        <pt x="303" y="490" on="0"/>
        <pt x="375" y="403" on="0"/>
        <pt x="487" y="403" on="0"/>
        <pt x="580" y="476" on="0"/>
        <pt x="620" y="532" on="1"/>
        <pt x="698" y="644" on="0"/>
        <pt x="737" y="787" on="1"/>
        <pt x="813" y="1067" on="1"/>
        <pt x="987" y="1067" on="1"/>
        <pt x="833" y="551" on="1"/>
        <pt x="818" y="502" on="0"/>
      </contour>
    </TTGlyph>
    <TTGlyph name="atilde" xMin="61" yMin="-27" xMax="1051" yMax="1366">
      <contour>
        <pt x="572" y="510" on="1"/>
        <pt x="304" y="413" on="0"/>
        <pt x="304" y="227" on="1"/>
        <pt x="304" y="152" on="0"/>
        <pt x="376" y="61" on="0"/>
        <pt x="519" y="61" on="0"/>
        <pt x="572" y="114" on="1"/>
        <pt x="572" y="19" on="1"/>
        <pt x="495" y="-27" on="0"/>
        <pt x="301" y="-27" on="0"/>
        <pt x="184" y="11" on="0"/>
        <pt x="144" y="44" on="1"/>
        <pt x="61" y="111" on="0"/>
        <pt x="61" y="221" on="1"/>
        <pt x="61" y="448" on="0"/>
        <pt x="464" y="564" on="1"/>
        <pt x="521" y="581" on="0"/>
        <pt x="572" y="594" on="1"/>
      </contour>
      <contour>
        <pt x="335" y="868" on="1"/>
        <pt x="390" y="847" on="0"/>
        <pt x="390" y="772" on="1"/>
        <pt x="390" y="724" on="0"/>
        <pt x="322" y="666" on="0"/>
        <pt x="207" y="666" on="0"/>
        <pt x="140" y="728" on="0"/>
        <pt x="140" y="826" on="0"/>
        <pt x="186" y="904" on="0"/>
        <pt x="228" y="934" on="1"/>
        <pt x="315" y="997" on="0"/>
        <pt x="447" y="1007" on="1"/>
        <pt x="447" y="931" on="1"/>
        <pt x="366" y="923" on="0"/>
      </contour>
      <contour>
        <pt x="930" y="99" on="1"/>
        <pt x="985" y="99" on="0"/>
        <pt x="1000" y="199" on="1"/>
        <pt x="1051" y="172" on="1"/>
        <pt x="1041" y="75" on="0"/>
        <pt x="954" y="-27" on="0"/>
        <pt x="859" y="-27" on="1"/>
        <pt x="785" y="-27" on="0"/>
        <pt x="749" y="0" on="1"/>
        <pt x="691" y="44" on="0"/>
        <pt x="655" y="133" on="1"/>
        <pt x="655" y="756" on="1"/>
        <pt x="655" y="818" on="0"/>
        <pt x="590" y="909" on="0"/>
        <pt x="530" y="925" on="1"/>
        <pt x="530" y="1007" on="1"/>
        <pt x="869" y="989" on="0"/>
        <pt x="869" y="649" on="1"/>
        <pt x="869" y="176" on="1"/>
        <pt x="869" y="99" on="0"/>
      </contour>
      <contour>
        <pt x="882" y="1366" on="1"/>
        <pt x="821" y="1149" on="0"/>
        <pt x="656" y="1149" on="1"/>
        <pt x="598" y="1149" on="0"/>
        <pt x="458" y="1216" on="0"/>
        <pt x="387" y="1247" on="0"/>
        <pt x="325" y="1247" on="0"/>
        <pt x="286" y="1229" on="0"/>
        <pt x="272" y="1214" on="1"/>
        <pt x="252" y="1192" on="0"/>
        <pt x="236" y="1145" on="1"/>
        <pt x="171" y="1145" on="1"/>
        <pt x="194" y="1251" on="0"/>
        <pt x="313" y="1356" on="0"/>
        <pt x="395" y="1356" on="1"/>
        <pt x="452" y="1356" on="0"/>
        <pt x="594" y="1288" on="0"/>
        <pt x="663" y="1257" on="0"/>
        <pt x="720" y="1257" on="0"/>
        <pt x="758" y="1274" on="0"/>
        <pt x="772" y="1288" on="1"/>
        <pt x="788" y="1305" on="0"/>
        <pt x="817" y="1366" on="1"/>
      </contour>
    </TTGlyph>
    <TTGlyph name="b" xMin="38" yMin="-27" xMax="1019" yMax="1427">
      <contour>
        <pt x="821" y="41" on="0"/>
        <pt x="660" y="-27" on="0"/>
        <pt x="509" y="-27" on="0"/>
        <pt x="453" y="-12" on="1"/>
        <pt x="453" y="87" on="1"/>
        <pt x="494" y="59" on="0"/>
        <pt x="546" y="59" on="1"/>
        <pt x="779" y="59" on="0"/>
        <pt x="779" y="483" on="1"/>
        <pt x="779" y="821" on="0"/>
        <pt x="654" y="888" on="1"/>
        <pt x="614" y="909" on="0"/>
        <pt x="530" y="909" on="0"/>
        <pt x="478" y="872" on="0"/>
        <pt x="453" y="849" on="1"/>
        <pt x="453" y="966" on="1"/>
        <pt x="524" y="1008" on="0"/>
        <pt x="677" y="1008" on="0"/>
        <pt x="825" y="946" on="0"/>
        <pt x="884" y="882" on="1"/>
        <pt x="1019" y="739" on="0"/>
        <pt x="1019" y="489" on="1"/>
        <pt x="1019" y="252" on="0"/>
        <pt x="883" y="107" on="1"/>
      </contour>
      <contour>
        <pt x="143" y="-8" on="1"/>
        <pt x="157" y="90" on="0"/>
        <pt x="157" y="219" on="1"/>
        <pt x="157" y="1247" on="1"/>
        <pt x="157" y="1307" on="0"/>
        <pt x="118" y="1330" on="1"/>
        <pt x="100" y="1341" on="0"/>
        <pt x="58" y="1354" on="0"/>
        <pt x="38" y="1366" on="1"/>
        <pt x="38" y="1427" on="1"/>
        <pt x="370" y="1427" on="1"/>
        <pt x="370" y="13" on="1"/>
        <pt x="319" y="34" on="0"/>
        <pt x="296" y="60" on="1"/>
        <pt x="268" y="47" on="0"/>
        <pt x="230" y="-1" on="0"/>
        <pt x="224" y="-8" on="1"/>
      </contour>
    </TTGlyph>
    <TTGlyph name="backslash" xMin="-113" yMin="-31" xMax="705" yMax="1452">
      <contour>
        <pt x="55" y="1452" on="1"/>
        <pt x="705" y="-31" on="1"/>
        <pt x="537" y="-31" on="1"/>
        <pt x="-113" y="1452" on="1"/>
      </contour>
    </TTGlyph>
    <TTGlyph name="bar" xMin="183" yMin="0" xMax="342" yMax="1421">
      <contour>
        <pt x="183" y="1421" on="1"/>
        <pt x="342" y="1421" on="1"/>
        <pt x="342" y="0" on="1"/>
        <pt x="183" y="0" on="1"/>
      </contour>
    </TTGlyph>
    <TTGlyph name="braceleft" xMin="170" yMin="-408" xMax="716" yMax="1479">
      <contour>
        <pt x="349" y="281" on="1"/>
        <pt x="349" y="395" on="0"/>
        <pt x="295" y="477" on="0"/>
        <pt x="225" y="520" on="0"/>
        <pt x="170" y="535" on="1"/>
        <pt x="276" y="564" on="0"/>
        <pt x="315" y="624" on="1"/>
        <pt x="349" y="677" on="0"/>
        <pt x="349" y="791" on="1"/>
        <pt x="349" y="1167" on="1"/>
        <pt x="349" y="1355" on="0"/>
        <pt x="445" y="1424" on="1"/>
        <pt x="523" y="1479" on="0"/>
        <pt x="716" y="1479" on="1"/>
        <pt x="716" y="1425" on="1"/>
        <pt x="571" y="1400" on="0"/>
        <pt x="547" y="1262" on="1"/>
        <pt x="539" y="1217" on="0"/>
        <pt x="539" y="1159" on="1"/>
        <pt x="539" y="821" on="1"/>
        <pt x="539" y="694" on="0"/>
        <pt x="482" y="599" on="0"/>
        <pt x="408" y="551" on="0"/>
        <pt x="349" y="537" on="1"/>
        <pt x="349" y="532" on="1"/>
        <pt x="461" y="505" on="0"/>
        <pt x="503" y="435" on="1"/>
        <pt x="539" y="375" on="0"/>
        <pt x="539" y="248" on="1"/>
        <pt x="539" y="-90" on="1"/>
        <pt x="539" y="-212" on="0"/>
        <pt x="596" y="-304" on="0"/>
        <pt x="664" y="-345" on="0"/>
        <pt x="716" y="-354" on="1"/>
        <pt x="716" y="-408" on="1"/>
        <pt x="524" y="-408" on="0"/>
        <pt x="445" y="-352" on="1"/>
        <pt x="349" y="-283" on="0"/>
        <pt x="349" y="-96" on="1"/>
      </contour>
    </TTGlyph>
    <TTGlyph name="braceright" xMin="270" yMin="-408" xMax="818" yMax="1479">
      <contour>
        <pt x="639" y="791" on="1"/>
        <pt x="639" y="677" on="0"/>
        <pt x="693" y="593" on="0"/>
        <pt x="762" y="550" on="0"/>
        <pt x="818" y="535" on="1"/>
        <pt x="713" y="507" on="0"/>
        <pt x="673" y="446" on="1"/>
        <pt x="639" y="395" on="0"/>
        <pt x="639" y="281" on="1"/>
        <pt x="639" y="-96" on="1"/>
        <pt x="639" y="-283" on="0"/>
        <pt x="543" y="-352" on="1"/>
        <pt x="464" y="-408" on="0"/>
        <pt x="270" y="-408" on="1"/>
        <pt x="270" y="-354" on="1"/>
        <pt x="372" y="-336" on="0"/>
        <pt x="412" y="-271" on="1"/>
        <pt x="449" y="-210" on="0"/>
        <pt x="449" y="-90" on="1"/>
        <pt x="449" y="248" on="1"/>
        <pt x="449" y="375" on="0"/>
        <pt x="506" y="470" on="0"/>
        <pt x="580" y="518" on="0"/>
        <pt x="639" y="532" on="1"/>
        <pt x="639" y="537" on="1"/>
        <pt x="527" y="564" on="0"/>
        <pt x="485" y="634" on="1"/>
        <pt x="449" y="694" on="0"/>
        <pt x="449" y="821" on="1"/>
        <pt x="449" y="1159" on="1"/>
        <pt x="449" y="1340" on="0"/>
        <pt x="357" y="1395" on="1"/>
        <pt x="322" y="1416" on="0"/>
        <pt x="270" y="1425" on="1"/>
        <pt x="270" y="1479" on="1"/>
        <pt x="465" y="1479" on="0"/>
        <pt x="543" y="1424" on="1"/>
        <pt x="639" y="1355" on="0"/>
        <pt x="639" y="1167" on="1"/>
      </contour>
    </TTGlyph>
    <TTGlyph name="bracketleft" xMin="335" yMin="-367" xMax="732" yMax="1438">
      <contour>
        <pt x="335" y="1438" on="1"/>
        <pt x="732" y="1438" on="1"/>
        <pt x="732" y="1368" on="1"/>
        <pt x="732" y="1357" on="0"/>
        <pt x="703" y="1350" on="0"/>
        <pt x="677" y="1343" on="1"/>
        <pt x="579" y="1335" on="0"/>
        <pt x="536" y="1302" on="0"/>
        <pt x="525" y="1261" on="0"/>
        <pt x="525" y="1229" on="1"/>
        <pt x="525" y="-160" on="1"/>
        <pt x="525" y="-225" on="0"/>
        <pt x="547" y="-241" on="1"/>
        <pt x="581" y="-266" on="0"/>
        <pt x="677" y="-274" on="1"/>
        <pt x="703" y="-279" on="0"/>
        <pt x="732" y="-287" on="0"/>
        <pt x="732" y="-299" on="1"/>
        <pt x="732" y="-367" on="1"/>
        <pt x="335" y="-367" on="1"/>
      </contour>
    </TTGlyph>
    <TTGlyph name="bracketright" xMin="256" yMin="-367" xMax="653" yMax="1438">
      <contour>
        <pt x="653" y="-367" on="1"/>
        <pt x="256" y="-367" on="1"/>
        <pt x="256" y="-299" on="1"/>
        <pt x="256" y="-287" on="0"/>
        <pt x="284" y="-279" on="0"/>
        <pt x="358" y="-270" on="0"/>
        <pt x="418" y="-257" on="0"/>
        <pt x="434" y="-245" on="1"/>
        <pt x="462" y="-225" on="0"/>
        <pt x="462" y="-160" on="1"/>
        <pt x="462" y="1229" on="1"/>
        <pt x="462" y="1294" on="0"/>
        <pt x="440" y="1310" on="1"/>
        <pt x="408" y="1335" on="0"/>
        <pt x="310" y="1343" on="1"/>
        <pt x="284" y="1350" on="0"/>
        <pt x="256" y="1357" on="0"/>
        <pt x="256" y="1368" on="1"/>
        <pt x="256" y="1438" on="1"/>
        <pt x="653" y="1438" on="1"/>
      </contour>
    </TTGlyph>
    <TTGlyph name="breve" xMin="21" yMin="1096" xMax="614" yMax="1401">
      <contour>
        <pt x="315" y="1217" on="1"/>
        <pt x="508" y="1217" on="0"/>
        <pt x="548" y="1401" on="1"/>
        <pt x="614" y="1401" on="1"/>
        <pt x="612" y="1276" on="0"/>
        <pt x="534" y="1190" on="1"/>
        <pt x="449" y="1096" on="0"/>
        <pt x="180" y="1096" on="0"/>
        <pt x="29" y="1248" on="0"/>
        <pt x="21" y="1401" on="1"/>
        <pt x="88" y="1401" on="1"/>
        <pt x="100" y="1316" on="0"/>
        <pt x="212" y="1217" on="0"/>
      </contour>
    </TTGlyph>
    <TTGlyph name="brokenbar" xMin="183" yMin="0" xMax="342" yMax="1421">
      <contour>
        <pt x="183" y="537" on="1"/>
        <pt x="342" y="537" on="1"/>
        <pt x="342" y="0" on="1"/>
        <pt x="183" y="0" on="1"/>
      </contour>
      <contour>
        <pt x="183" y="1421" on="1"/>
        <pt x="342" y="1421" on="1"/>
        <pt x="342" y="883" on="1"/>
        <pt x="183" y="883" on="1"/>
      </contour>
    </TTGlyph>
    <TTGlyph name="bullet" xMin="181" yMin="354" xMax="1004" yMax="1065">
      <contour>
        <pt x="181" y="710" on="1"/>
        <pt x="181" y="784" on="0"/>
        <pt x="246" y="913" on="0"/>
        <pt x="302" y="961" on="1"/>
        <pt x="423" y="1065" on="0"/>
        <pt x="594" y="1065" on="1"/>
        <pt x="764" y="1065" on="0"/>
        <pt x="884" y="961" on="1"/>
        <pt x="1004" y="858" on="0"/>
        <pt x="1004" y="711" on="1"/>
        <pt x="1004" y="563" on="0"/>
        <pt x="765" y="354" on="0"/>
        <pt x="594" y="354" on="1"/>
        <pt x="423" y="354" on="0"/>
        <pt x="302" y="458" on="1"/>
        <pt x="181" y="563" on="0"/>
      </contour>
    </TTGlyph>
    <TTGlyph name="c" xMin="71" yMin="-27" xMax="895" yMax="1007">
      <contour>
        <pt x="727" y="846" on="1"/>
        <pt x="699" y="915" on="0"/>
        <pt x="602" y="925" on="1"/>
        <pt x="602" y="1006" on="1"/>
        <pt x="735" y="999" on="0"/>
        <pt x="814" y="918" on="1"/>
        <pt x="883" y="849" on="0"/>
        <pt x="883" y="759" on="1"/>
        <pt x="883" y="667" on="0"/>
        <pt x="812" y="634" on="1"/>
        <pt x="788" y="623" on="0"/>
        <pt x="706" y="623" on="0"/>
        <pt x="641" y="684" on="0"/>
        <pt x="641" y="764" on="0"/>
        <pt x="659" y="802" on="0"/>
        <pt x="685" y="826" on="0"/>
        <pt x="715" y="840" on="0"/>
      </contour>
      <contour>
        <pt x="602" y="64" on="1"/>
        <pt x="724" y="82" on="0"/>
        <pt x="782" y="218" on="1"/>
        <pt x="799" y="256" on="0"/>
        <pt x="812" y="295" on="1"/>
        <pt x="895" y="270" on="1"/>
        <pt x="839" y="77" on="0"/>
        <pt x="712" y="12" on="1"/>
        <pt x="665" y="-13" on="0"/>
        <pt x="602" y="-22" on="1"/>
      </contour>
      <contour>
        <pt x="310" y="492" on="1"/>
        <pt x="310" y="100" on="0"/>
        <pt x="519" y="64" on="1"/>
        <pt x="519" y="-27" on="1"/>
        <pt x="330" y="-23" on="0"/>
        <pt x="204" y="108" on="1"/>
        <pt x="71" y="249" on="0"/>
        <pt x="71" y="481" on="1"/>
        <pt x="71" y="686" on="0"/>
        <pt x="195" y="837" on="1"/>
        <pt x="323" y="993" on="0"/>
        <pt x="519" y="1007" on="1"/>
        <pt x="519" y="919" on="1"/>
        <pt x="369" y="884" on="0"/>
        <pt x="325" y="665" on="1"/>
        <pt x="310" y="590" on="0"/>
      </contour>
    </TTGlyph>
    <TTGlyph name="caron" xMin="-21" yMin="1096" xMax="658" yMax="1440">
      <contour>
        <pt x="242" y="1096" on="1"/>
        <pt x="-21" y="1440" on="1"/>
        <pt x="64" y="1440" on="1"/>
        <pt x="318" y="1212" on="1"/>
        <pt x="573" y="1440" on="1"/>
        <pt x="658" y="1440" on="1"/>
        <pt x="392" y="1096" on="1"/>
      </contour>
    </TTGlyph>
    <TTGlyph name="ccedilla" xMin="71" yMin="-444" xMax="895" yMax="1007">
      <contour>
        <pt x="727" y="846" on="1"/>
        <pt x="699" y="915" on="0"/>
        <pt x="602" y="925" on="1"/>
        <pt x="602" y="1006" on="1"/>
        <pt x="735" y="999" on="0"/>
        <pt x="814" y="918" on="1"/>
        <pt x="883" y="849" on="0"/>
        <pt x="883" y="759" on="1"/>
        <pt x="883" y="667" on="0"/>
        <pt x="812" y="634" on="1"/>
        <pt x="788" y="623" on="0"/>
        <pt x="706" y="623" on="0"/>
        <pt x="641" y="684" on="0"/>
        <pt x="641" y="764" on="0"/>
        <pt x="659" y="802" on="0"/>
        <pt x="685" y="826" on="0"/>
        <pt x="715" y="840" on="0"/>
      </contour>
      <contour>
        <pt x="602" y="64" on="1"/>
        <pt x="724" y="82" on="0"/>
        <pt x="782" y="218" on="1"/>
        <pt x="799" y="256" on="0"/>
        <pt x="812" y="295" on="1"/>
        <pt x="895" y="270" on="1"/>
        <pt x="839" y="77" on="0"/>
        <pt x="712" y="12" on="1"/>
        <pt x="665" y="-13" on="0"/>
        <pt x="602" y="-22" on="1"/>
      </contour>
      <contour>
        <pt x="310" y="492" on="1"/>
        <pt x="310" y="100" on="0"/>
        <pt x="519" y="64" on="1"/>
        <pt x="519" y="-27" on="1"/>
        <pt x="330" y="-23" on="0"/>
        <pt x="204" y="108" on="1"/>
        <pt x="71" y="249" on="0"/>
        <pt x="71" y="481" on="1"/>
        <pt x="71" y="686" on="0"/>
        <pt x="195" y="837" on="1"/>
        <pt x="323" y="993" on="0"/>
        <pt x="519" y="1007" on="1"/>
        <pt x="519" y="919" on="1"/>
        <pt x="369" y="884" on="0"/>
        <pt x="325" y="665" on="1"/>
        <pt x="310" y="590" on="0"/>
      </contour>
      <contour>
        <pt x="450" y="-203" on="1"/>
        <pt x="406" y="-203" on="0"/>
        <pt x="378" y="-217" on="1"/>
        <pt x="342" y="-205" on="1"/>
        <pt x="446" y="0" on="1"/>
        <pt x="525" y="0" on="1"/>
        <pt x="457" y="-137" on="1"/>
        <pt x="536" y="-114" on="0"/>
        <pt x="616" y="-137" on="1"/>
        <pt x="685" y="-157" on="0"/>
        <pt x="714" y="-210" on="1"/>
        <pt x="729" y="-237" on="0"/>
        <pt x="729" y="-308" on="0"/>
        <pt x="691" y="-372" on="0"/>
        <pt x="655" y="-395" on="1"/>
        <pt x="578" y="-444" on="0"/>
        <pt x="450" y="-444" on="1"/>
        <pt x="333" y="-444" on="0"/>
        <pt x="237" y="-410" on="1"/>
        <pt x="273" y="-348" on="1"/>
        <pt x="337" y="-375" on="0"/>
        <pt x="491" y="-375" on="0"/>
        <pt x="563" y="-324" on="0"/>
        <pt x="563" y="-287" on="1"/>
        <pt x="563" y="-203" on="0"/>
      </contour>
    </TTGlyph>
    <TTGlyph name="cedilla" xMin="61" yMin="-444" xMax="553" yMax="0">
      <contour>
        <pt x="274" y="-203" on="1"/>
        <pt x="230" y="-203" on="0"/>
        <pt x="202" y="-217" on="1"/>
        <pt x="166" y="-205" on="1"/>
        <pt x="270" y="0" on="1"/>
        <pt x="349" y="0" on="1"/>
        <pt x="281" y="-137" on="1"/>
        <pt x="315" y="-127" on="0"/>
        <pt x="406" y="-127" on="0"/>
        <pt x="474" y="-147" on="0"/>
        <pt x="499" y="-166" on="1"/>
        <pt x="553" y="-205" on="0"/>
        <pt x="553" y="-270" on="1"/>
        <pt x="553" y="-348" on="0"/>
        <pt x="479" y="-395" on="1"/>
        <pt x="402" y="-444" on="0"/>
        <pt x="274" y="-444" on="1"/>
        <pt x="157" y="-444" on="0"/>
        <pt x="61" y="-410" on="1"/>
        <pt x="97" y="-348" on="1"/>
        <pt x="161" y="-375" on="0"/>
        <pt x="315" y="-375" on="0"/>
        <pt x="387" y="-324" on="0"/>
        <pt x="387" y="-287" on="1"/>
        <pt x="387" y="-203" on="0"/>
      </contour>
    </TTGlyph>
    <TTGlyph name="cent" xMin="108" yMin="0" xMax="962" yMax="1423">
      <contour>
        <pt x="441" y="1058" on="1"/>
        <pt x="335" y="952" on="0"/>
        <pt x="335" y="491" on="0"/>
        <pt x="442" y="393" on="1"/>
        <pt x="441" y="252" on="1"/>
        <pt x="289" y="293" on="0"/>
        <pt x="200" y="414" on="1"/>
        <pt x="108" y="538" on="0"/>
        <pt x="108" y="717" on="1"/>
        <pt x="108" y="881" on="0"/>
        <pt x="200" y="1010" on="1"/>
        <pt x="292" y="1138" on="0"/>
        <pt x="441" y="1188" on="1"/>
      </contour>
      <contour>
        <pt x="620" y="0" on="1"/>
        <pt x="517" y="0" on="1"/>
        <pt x="517" y="1423" on="1"/>
        <pt x="620" y="1423" on="1"/>
      </contour>
      <contour>
        <pt x="797" y="1042" on="1"/>
        <pt x="785" y="1100" on="0"/>
        <pt x="684" y="1128" on="1"/>
        <pt x="684" y="1210" on="1"/>
        <pt x="881" y="1185" on="0"/>
        <pt x="942" y="1068" on="1"/>
        <pt x="962" y="1030" on="0"/>
        <pt x="962" y="931" on="0"/>
        <pt x="901" y="860" on="0"/>
        <pt x="794" y="860" on="0"/>
        <pt x="735" y="915" on="0"/>
        <pt x="735" y="1022" on="0"/>
      </contour>
      <contour>
        <pt x="684" y="334" on="1"/>
        <pt x="794" y="365" on="0"/>
        <pt x="853" y="475" on="1"/>
        <pt x="870" y="507" on="0"/>
        <pt x="885" y="541" on="1"/>
        <pt x="961" y="514" on="1"/>
        <pt x="892" y="295" on="0"/>
        <pt x="684" y="248" on="1"/>
      </contour>
    </TTGlyph>
    <TTGlyph name="circumflex" xMin="-21" yMin="1096" xMax="658" yMax="1440">
      <contour>
        <pt x="392" y="1440" on="1"/>
        <pt x="658" y="1096" on="1"/>
        <pt x="571" y="1096" on="1"/>
        <pt x="318" y="1323" on="1"/>
        <pt x="64" y="1096" on="1"/>
        <pt x="-21" y="1096" on="1"/>
        <pt x="242" y="1440" on="1"/>
      </contour>
    </TTGlyph>
    <TTGlyph name="colon" xMin="127" yMin="-20" xMax="399" yMax="961">
      <contour>
        <pt x="210" y="950" on="1"/>
        <pt x="235" y="961" on="0"/>
        <pt x="292" y="961" on="0"/>
        <pt x="342" y="940" on="0"/>
        <pt x="360" y="922" on="1"/>
        <pt x="399" y="883" on="0"/>
        <pt x="399" y="825" on="1"/>
        <pt x="399" y="735" on="0"/>
        <pt x="317" y="702" on="1"/>
        <pt x="292" y="692" on="0"/>
        <pt x="235" y="692" on="0"/>
        <pt x="185" y="712" on="0"/>
        <pt x="166" y="730" on="1"/>
        <pt x="127" y="767" on="0"/>
        <pt x="127" y="825" on="1"/>
        <pt x="127" y="916" on="0"/>
      </contour>
      <contour>
        <pt x="210" y="238" on="1"/>
        <pt x="235" y="248" on="0"/>
        <pt x="292" y="248" on="0"/>
        <pt x="342" y="227" on="0"/>
        <pt x="360" y="209" on="1"/>
        <pt x="399" y="170" on="0"/>
        <pt x="399" y="113" on="1"/>
        <pt x="399" y="23" on="0"/>
        <pt x="317" y="-10" on="1"/>
        <pt x="292" y="-20" on="0"/>
        <pt x="235" y="-20" on="0"/>
        <pt x="185" y="0" on="0"/>
        <pt x="166" y="18" on="1"/>
        <pt x="127" y="55" on="0"/>
        <pt x="127" y="113" on="1"/>
        <pt x="127" y="203" on="0"/>
      </contour>
    </TTGlyph>
    <TTGlyph name="comma" xMin="129" yMin="-381" xMax="417" yMax="248">
      <contour>
        <pt x="147" y="-338" on="1"/>
        <pt x="188" y="-291" on="0"/>
        <pt x="246" y="-189" on="0"/>
        <pt x="246" y="-144" on="1"/>
        <pt x="246" y="-67" on="0"/>
        <pt x="222" y="-4" on="1"/>
        <pt x="183" y="7" on="0"/>
        <pt x="129" y="67" on="0"/>
        <pt x="129" y="177" on="0"/>
        <pt x="198" y="248" on="0"/>
        <pt x="292" y="248" on="0"/>
        <pt x="349" y="225" on="0"/>
        <pt x="370" y="200" on="1"/>
        <pt x="417" y="144" on="0"/>
        <pt x="417" y="38" on="1"/>
        <pt x="417" y="-182" on="0"/>
        <pt x="230" y="-381" on="1"/>
      </contour>
    </TTGlyph>
    <TTGlyph name="commaaccent" xMin="120" yMin="-808" xMax="408" yMax="-179">
      <contour>
        <pt x="138" y="-765" on="1"/>
        <pt x="179" y="-718" on="0"/>
        <pt x="237" y="-616" on="0"/>
        <pt x="237" y="-570" on="1"/>
        <pt x="237" y="-494" on="0"/>
        <pt x="213" y="-431" on="1"/>
        <pt x="174" y="-420" on="0"/>
        <pt x="120" y="-360" on="0"/>
        <pt x="120" y="-250" on="0"/>
        <pt x="189" y="-179" on="0"/>
        <pt x="283" y="-179" on="0"/>
        <pt x="340" y="-202" on="0"/>
        <pt x="362" y="-228" on="1"/>
        <pt x="408" y="-283" on="0"/>
        <pt x="408" y="-389" on="1"/>
        <pt x="408" y="-609" on="0"/>
        <pt x="221" y="-808" on="1"/>
      </contour>
    </TTGlyph>
</ttFont>
